{
.appVersion = "113";
DisplayStrings = (
"2",
"7",
"9",
"6",
"."
);
copyright = "Copyright (c) 2014, Eduardo Rodriguez Tunni. Copyright (c) 2000, Modular Infotech, Pune, INDIA. All rights reserved. Copyright (c) 2011 by Brian J. Bonislawsky DBA Astigmatic (AOETI) (astigma@astigmatic.com). All rights reserved.";
date = "2014-09-11 13:28:21 +0000";
designer = "Eduardo Rodriguez Tunni, Modular Infotech, Brian J. Bonislawsky";
designerURL = "http://www.tipo.net.ar";
familyName = Amita;
featurePrefixes = (
{
automatic = 1;
code = "languagesystem DFLT dflt;\012languagesystem latn dflt;\012languagesystem dev2 dflt;\012languagesystem latn CAT;\012languagesystem latn ROM;\012languagesystem latn MOL;\012languagesystem dev2 NEP;\012languagesystem deva NEP;\012languagesystem dev2 MAR;\012languagesystem deva MAR;\012";
name = Languagesystems;
}
);
features = (
{
automatic = 1;
code = "feature locl;\012feature frac;\012feature ordn;\012";
name = aalt;
},
{
automatic = 1;
code = "script latn;\012language CAT;\012sub  l' periodcentered' l by ldot;\012sub  L' periodcentered' L by Ldot;\012language ROM;\012sub Scedilla by Scommaaccent;\012sub scedilla by scommaaccent;\012language MOL;\012sub Scedilla by Scommaaccent;\012sub scedilla by scommaaccent;\012\012script dev2;\012language NEP;\012sub jha-deva by jha-deva.loclNEP;\012sub jh-deva by jh-deva.loclNEP;\012sub zha-deva by zha-deva.loclNEP;\012sub five-deva by five-deva.loclNEP;\012sub eight-deva by eight-deva.loclNEP;\012language MAR;\012sub la-deva by la-deva.loclMAR;\012sub l-deva by l-deva.loclMAR;\012sub sha-deva by sha-deva.loclMAR;\012sub sh-deva by sh-deva.loclMAR;\012";
name = locl;
},
{
automatic = 1;
code = "sub one slash four by onequarter;\012sub one slash two by onehalf;\012sub three slash four by threequarters;\012";
name = frac;
},
{
automatic = 1;

glyphs = (
{
glyphname = A;
layers = (
{
layerId = "F9783665-9C0C-4F5A-9005-646D18F9330F";
paths = (
{
closed = 1;
nodes = (
"524 712 LINE",
"436.667 708 OFFCURVE",
"355.667 683 OFFCURVE",
"281 637 CURVE SMOOTH",
"131.667 545 OFFCURVE",
"37 389.667 OFFCURVE",
"37 223 CURVE SMOOTH",
"37 77.667 OFFCURVE",
"115.333 -11 OFFCURVE",
"234 -11 CURVE SMOOTH",
"348.667 -11 OFFCURVE",
"430 95.667 OFFCURVE",
"478 309 CURVE",
"483 309 LINE",
"483 118 LINE SMOOTH",
"483 39.333 OFFCURVE",
"524.667 -5 OFFCURVE",
"586 -5 CURVE SMOOTH",
"635.333 -5 OFFCURVE",
"676.333 26.667 OFFCURVE",
"695 68 CURVE",
"681 81 LINE",
"669 61 OFFCURVE",
"643.333 45 OFFCURVE",
"622 45 CURVE SMOOTH",
"594 45 OFFCURVE",
"577 69.667 OFFCURVE",
"577 107 CURVE SMOOTH",
"577 631 LINE",
"483 594 LINE",
"483 503.333 OFFCURVE",
"472.5 416.167 OFFCURVE",
"451.5 332.5 CURVE SMOOTH",
"409.5 165.167 OFFCURVE",
"335.667 52 OFFCURVE",
"261 52 CURVE SMOOTH",
"185 52 OFFCURVE",
"134 127.667 OFFCURVE",
"134 249 CURVE SMOOTH",
"134 321.667 OFFCURVE",
"150.833 389.167 OFFCURVE",
"184.5 451.5 CURVE SMOOTH",
"251.833 576.167 OFFCURVE",
"376 663 OFFCURVE",
"524 683 CURVE"
);
}
);
userData = {
assembly = "NPUSHB[ ]	/* 11 values pushed */\01227 20 19 12 11 0 6 0 4 1 74 \012MPPEM[ ]	/* MeasurePixelPerEm */\012PUSHB[ ]	/* 1 value pushed */\01230 \012LT[ ]	/* LessThan */\012IF[ ]	/* If */\012NPUSHB[ ]	/* 18 values pushed */\0120 4 4 42 75 1 1 0 0 2 91 3 1 2 2 46 2 76 \012ELSE[ ]	/* Else */\012MPPEM[ ]	/* MeasurePixelPerEm */\012PUSHB[ ]	/* 1 value pushed */\01234 \012LT[ ]	/* LessThan */\012IF[ ]	/* If */\012NPUSHB[ ]	/* 18 values pushed */\0120 4 0 4 114 1 1 0 0 2 91 3 1 2 2 46 2 76 \012ELSE[ ]	/* Else */\012MPPEM[ ]	/* MeasurePixelPerEm */\012PUSHB[ ]	/* 1 value pushed */\01240 \012LT[ ]	/* LessThan */\012IF[ ]	/* If */\012NPUSHB[ ]	/* 28 values pushed */\0120 4 0 4 114 0 0 0 2 91 3 1 2 2 46 75 0 1 1 2 91 3 1 2 2 46 2 76 \012ELSE[ ]	/* Else */\012NPUSHB[ ]	/* 26 values pushed */\0120 4 0 4 114 0 1 1 2 91 0 2 2 46 75 0 0 0 3 91 0 3 3 43 3 76 \012EIF[ ]	/* EndIf */\012EIF[ ]	/* EndIf */\012EIF[ ]	/* EndIf */\012PUSHB[ ]	/* 8 values pushed */\01221 37 37 39 38 5 7 25 \012CALL[ ]	/* CallFunction */";
};
width = 689;
}
);
leftKerningGroup = A;
note = A;
rightKerningGroup = A;
unicode = 0041;
},
{
glyphname = Aogonek;
layers = (
{
layerId = "F9783665-9C0C-4F5A-9005-646D18F9330F";
paths = (
{
closed = 1;
nodes = (
"583.333 -139 OFFCURVE",
"568 -120.333 OFFCURVE",
"568 -91 CURVE SMOOTH",
"568 -61.667 OFFCURVE",
"584.333 -28.667 OFFCURVE",
"611 -2 CURVE",
"648.333 7.333 OFFCURVE",
"680.333 34.667 OFFCURVE",
"695 68 CURVE",
"681 81 LINE",
"669 61 OFFCURVE",
"643.333 45 OFFCURVE",
"622 45 CURVE SMOOTH",
"594 45 OFFCURVE",
"577 69.667 OFFCURVE",
"577 107 CURVE SMOOTH",
"577 631 LINE",
"483 594 LINE",
"483 503.333 OFFCURVE",
"472.5 416.167 OFFCURVE",
"451.5 332.5 CURVE SMOOTH",
"409.5 165.167 OFFCURVE",
"335.667 52 OFFCURVE",
"261 52 CURVE SMOOTH",
"185 52 OFFCURVE",
"134 127.667 OFFCURVE",
"134 249 CURVE SMOOTH",
"134 321.667 OFFCURVE",
"150.833 389.167 OFFCURVE",
"184.5 451.5 CURVE SMOOTH",
"251.833 576.167 OFFCURVE",
"376 663 OFFCURVE",
"524 683 CURVE",
"524 712 LINE",
"436.667 708 OFFCURVE",
"355.667 683 OFFCURVE",
"281 637 CURVE SMOOTH",
"131.667 545 OFFCURVE",
"37 389.667 OFFCURVE",
"37 223 CURVE SMOOTH",
"37 77.667 OFFCURVE",
"115.333 -11 OFFCURVE",
"234 -11 CURVE SMOOTH",
"348.667 -11 OFFCURVE",
"430 95.667 OFFCURVE",
"478 309 CURVE",
"483 309 LINE",
"483 118 LINE SMOOTH",
"483 43.333 OFFCURVE",
"520.333 0 OFFCURVE",
"575 -4 CURVE",
"529.667 -40.667 OFFCURVE",
"507 -80 OFFCURVE",
"507 -122 CURVE SMOOTH",
"507 -171.333 OFFCURVE",
"546 -197 OFFCURVE",
"586 -197 CURVE SMOOTH",
"623.333 -197 OFFCURVE",
"656 -169.333 OFFCURVE",
"680 -128 CURVE",
"663 -113 LINE",
"649.667 -130.333 OFFCURVE",
"633.333 -139 OFFCURVE",
"614 -139 CURVE SMOOTH"
);
}
);
userData = {
assembly = "MPPEM[ ]	/* MeasurePixelPerEm */\012PUSHB[ ]	/* 1 value pushed */\01234 \012LT[ ]	/* LessThan */\012IF[ ]	/* If */\012NPUSHB[ ]	/* 20 values pushed */\01245 44 37 36 25 14 6 3 2 10 1 1 3 2 1 2 5 1 3 74 \012ELSE[ ]	/* Else */\012NPUSHB[ ]	/* 20 values pushed */\01245 44 37 36 25 14 6 3 2 10 1 1 4 2 1 2 5 1 3 74 \012EIF[ ]	/* EndIf */\012MPPEM[ ]	/* MeasurePixelPerEm */\012PUSHB[ ]	/* 1 value pushed */\01230 \012LT[ ]	/* LessThan */\012IF[ ]	/* If */\012NPUSHB[ ]	/* 25 values pushed */\0126 1 5 0 0 5 0 96 0 2 2 42 75 4 1 3 3 1 91 0 1 1 43 1 76 \012ELSE[ ]	/* Else */\012MPPEM[ ]	/* MeasurePixelPerEm */\012PUSHB[ ]	/* 1 value pushed */\01234 \012LT[ ]	/* LessThan */\012IF[ ]	/* If */\012NPUSHB[ ]	/* 25 values pushed */\0120 2 3 2 114 6 1 5 0 0 5 0 96 4 1 3 3 1 91 0 1 1 43 1 76 \012ELSE[ ]	/* Else */\012NPUSHB[ ]	/* 32 values pushed */\0120 2 3 2 114 0 4 3 1 3 4 1 112 6 1 5 0 0 5 0 96 0 3 3 1 91 0 1 1 43 1 76 \012EIF[ ]	/* EndIf */\012EIF[ ]	/* EndIf */\012NPUSHB[ ]	/* 14 values pushed */\0120 0 0 54 0 53 39 39 21 42 36 7 7 25 \012CALL[ ]	/* CallFunction */";
};
width = 689;
}
);
leftKerningGroup = A;
note = Aogonek;
rightKerningGroup = A;
unicode = 0104;
},
{
glyphname = AE;
layers = (
{
layerId = "F9783665-9C0C-4F5A-9005-646D18F9330F";
paths = (
{
closed = 1;
nodes = (
"872 200 LINE",
"859.333 178 OFFCURVE",
"840.667 156.667 OFFCURVE",
"816 136 CURVE SMOOTH",
"766.667 94.667 OFFCURVE",
"699.667 66 OFFCURVE",
"633 66 CURVE SMOOTH",
"550.333 66 OFFCURVE",
"500 123.333 OFFCURVE",
"500 202 CURVE SMOOTH",
"500 308.667 OFFCURVE",
"606 386 OFFCURVE",
"726 422 CURVE",
"717 450 LINE",
"709 445.333 OFFCURVE",
"693.667 443 OFFCURVE",
"671 443 CURVE SMOOTH",
"603.479 443 OFFCURVE",
"534 494.543 OFFCURVE",
"534 560 CURVE SMOOTH",
"534 625.255 OFFCURVE",
"600.885 671 OFFCURVE",
"668 671 CURVE SMOOTH",
"716 671 OFFCURVE",
"751.667 646 OFFCURVE",
"789 606 CURVE",
"851 656 LINE",
"814.333 696.667 OFFCURVE",
"771.667 717 OFFCURVE",
"723 717 CURVE SMOOTH",
"688.333 717 OFFCURVE",
"652 710.333 OFFCURVE",
"614 697 CURVE",
"489.333 697 OFFCURVE",
"383.667 674.333 OFFCURVE",
"297 629 CURVE SMOOTH",
"123.667 538.333 OFFCURVE",
"40 384.333 OFFCURVE",
"40 223 CURVE SMOOTH",
"40 179.667 OFFCURVE",
"47.333 140.167 OFFCURVE",
"62 104.5 CURVE SMOOTH",
"91.333 33.167 OFFCURVE",
"147.667 -11 OFFCURVE",
"221 -11 CURVE SMOOTH",
"293 -11 OFFCURVE",
"351.667 35.333 OFFCURVE",
"397 128 CURVE",
"414.333 42.667 OFFCURVE",
"489.333 -11 OFFCURVE",
"588 -11 CURVE SMOOTH",
"714.667 -11 OFFCURVE",
"831 70.667 OFFCURVE",
"895 180 CURVE"
);
},
{
closed = 1;
nodes = (
"359.333 103 OFFCURVE",
"310 52 OFFCURVE",
"248 52 CURVE SMOOTH",
"170.667 52 OFFCURVE",
"139 146.333 OFFCURVE",
"139 249 CURVE SMOOTH",
"139 312.333 OFFCURVE",
"152.833 372.833 OFFCURVE",
"180.5 430.5 CURVE SMOOTH",
"235.833 545.833 OFFCURVE",
"358 636.333 OFFCURVE",
"550 663 CURVE",
"497.333 626.333 OFFCURVE",
"471 579.333 OFFCURVE",
"471 522 CURVE SMOOTH",
"471 460.667 OFFCURVE",
"511.667 412.667 OFFCURVE",
"577 394 CURVE",
"487.667 352.667 OFFCURVE",
"413.333 286.333 OFFCURVE",
"396 205 CURVE"
);
}
);
userData = {
assembly = "NPUSHB[ ]	/* 76 values pushed */\01253 34 21 20 4 5 4 48 45 6 3 6 5 2 74 0 2 3 4 3 2 4 112 0 5 4 6 4 5 6 112 0 4 4 3 91 0 3 3 42 75 0 6 6 0 92 1 1 0 0 43 75 0 7 7 0 91 1 1 0 0 43 0 76 61 59 39 38 36 33 22 35 34 8 7 27 \012CALL[ ]	/* CallFunction */";
};
width = 898;
}
);
leftKerningGroup = A;
note = AE;
rightKerningGroup = AE;
unicode = 00C6;
},
{
glyphname = B;
layers = (
{
layerId = "F9783665-9C0C-4F5A-9005-646D18F9330F";
paths = (
{
closed = 1;
nodes = (
"312 382 LINE",
"418.667 439.333 OFFCURVE",
"525 536 OFFCURVE",
"525 624 CURVE SMOOTH",
"525 685.333 OFFCURVE",
"475 720 OFFCURVE",
"411 720 CURVE SMOOTH",
"346.333 720 OFFCURVE",
"288.667 704.5 OFFCURVE",
"238 673.5 CURVE SMOOTH",
"136.667 611.5 OFFCURVE",
"77 496.667 OFFCURVE",
"77 354 CURVE SMOOTH",
"77 -8 LINE",
"170 26 LINE",
"170 409 LINE SMOOTH",
"170 445 OFFCURVE",
"175 482.833 OFFCURVE",
"185 522.5 CURVE SMOOTH",
"205 601.833 OFFCURVE",
"252.333 669 OFFCURVE",
"331 669 CURVE SMOOTH",
"385.667 669 OFFCURVE",
"419 635.667 OFFCURVE",
"419 585 CURVE SMOOTH",
"419 487.667 OFFCURVE",
"312 404.333 OFFCURVE",
"196 355 CURVE",
"204 328 LINE",
"248.667 344.667 OFFCURVE",
"294.333 353 OFFCURVE",
"341 353 CURVE SMOOTH",
"368.333 353 OFFCURVE",
"394.5 347.333 OFFCURVE",
"419.5 336 CURVE SMOOTH",
"469.5 313.333 OFFCURVE",
"505 270 OFFCURVE",
"505 218 CURVE SMOOTH",
"505 75.333 OFFCURVE",
"348 -11 OFFCURVE",
"176 -47 CURVE",
"182 -71 LINE",
"242.667 -69.667 OFFCURVE",
"306.333 -57.667 OFFCURVE",
"373 -35 CURVE SMOOTH",
"506.333 10.333 OFFCURVE",
"612 101 OFFCURVE",
"612 225 CURVE SMOOTH",
"612 333 OFFCURVE",
"521.333 389 OFFCURVE",
"408 389 CURVE SMOOTH",
"383.333 389 OFFCURVE",
"352 385.333 OFFCURVE",
"314 378 CURVE"
);
}
);
userData = {
assembly = "NPUSHB[ ]	/* 44 values pushed */\01242 1 2 0 31 30 18 3 1 2 2 74 0 1 2 1 115 0 0 0 2 1 0 2 99 0 3 3 4 91 0 4 4 42 3 76 41 39 39 21 32 5 7 25 \012CALL[ ]	/* CallFunction */";
};
width = 646;
}
);
leftKerningGroup = B;
note = B;
rightKerningGroup = B;
unicode = 0042;
},
{
glyphname = C;
layers = (
{
layerId = "F9783665-9C0C-4F5A-9005-646D18F9330F";
paths = (
{
closed = 1;
nodes = (
"371 730 OFFCURVE",
"304 710.667 OFFCURVE",
"242 672 CURVE SMOOTH",
"118 594.667 OFFCURVE",
"40 454 OFFCURVE",
"40 290 CURVE SMOOTH",
"40 234 OFFCURVE",
"50.5 183.167 OFFCURVE",
"71.5 137.5 CURVE SMOOTH",
"113.5 46.167 OFFCURVE",
"194 -11 OFFCURVE",
"302 -11 CURVE SMOOTH",
"398.667 -11 OFFCURVE",
"482.333 33.667 OFFCURVE",
"553 123 CURVE",
"531 145 LINE",
"480.333 93 OFFCURVE",
"417 65 OFFCURVE",
"353 65 CURVE SMOOTH",
"310.333 65 OFFCURVE",
"272.5 77.167 OFFCURVE",
"239.5 101.5 CURVE SMOOTH",
"173.5 150.167 OFFCURVE",
"136 242.667 OFFCURVE",
"136 360 CURVE SMOOTH",
"136 414 OFFCURVE",
"146.667 464.833 OFFCURVE",
"168 512.5 CURVE SMOOTH",
"210.667 607.833 OFFCURVE",
"286 670 OFFCURVE",
"366 670 CURVE SMOOTH",
"446 670 OFFCURVE",
"498 617 OFFCURVE",
"498 537 CURVE SMOOTH",
"498 474.333 OFFCURVE",
"459.333 412.333 OFFCURVE",
"402 387 CURVE",
"412 369 LINE",
"441.333 377.667 OFFCURVE",
"469.333 394.333 OFFCURVE",
"496 419 CURVE SMOOTH",
"549.333 468.333 OFFCURVE",
"585 538.667 OFFCURVE",
"585 600 CURVE SMOOTH",
"585 677.333 OFFCURVE",
"528.333 730 OFFCURVE",
"443 730 CURVE SMOOTH"
);
}
);
userData = {
assembly = "NPUSHB[ ]	/* 43 values pushed */\01225 24 7 6 4 1 0 1 74 0 0 0 3 91 4 1 3 3 42 75 0 1 1 2 91 0 2 2 43 2 76 0 0 0 35 0 34 36 38 44 5 7 23 \012CALL[ ]	/* CallFunction */";
};
width = 614;
}
);
leftKerningGroup = C;
note = C;
rightKerningGroup = C;
unicode = 0043;
},
{
glyphname = Ccedilla;
layers = (
{
layerId = "F9783665-9C0C-4F5A-9005-646D18F9330F";
paths = (
{
closed = 1;
nodes = (
"310.333 65 OFFCURVE",
"272.5 77.167 OFFCURVE",
"239.5 101.5 CURVE SMOOTH",
"173.5 150.167 OFFCURVE",
"136 242.667 OFFCURVE",
"136 360 CURVE SMOOTH",
"136 414 OFFCURVE",
"146.667 464.833 OFFCURVE",
"168 512.5 CURVE SMOOTH",
"210.667 607.833 OFFCURVE",
"286 670 OFFCURVE",
"366 670 CURVE SMOOTH",
"446 670 OFFCURVE",
"498 617 OFFCURVE",
"498 537 CURVE SMOOTH",
"498 474.333 OFFCURVE",
"459.333 412.333 OFFCURVE",
"402 387 CURVE",
"412 369 LINE",
"441.333 377.667 OFFCURVE",
"469.333 394.333 OFFCURVE",
"496 419 CURVE SMOOTH",
"549.333 468.333 OFFCURVE",
"585 538.667 OFFCURVE",
"585 600 CURVE SMOOTH",
"585 677.333 OFFCURVE",
"528.333 730 OFFCURVE",
"443 730 CURVE SMOOTH",
"371 730 OFFCURVE",
"304 710.667 OFFCURVE",
"242 672 CURVE SMOOTH",
"118 594.667 OFFCURVE",
"40 454 OFFCURVE",
"40 290 CURVE SMOOTH",
"40 238 OFFCURVE",
"48.833 190.5 OFFCURVE",
"66.5 147.5 CURVE SMOOTH",
"101.833 61.5 OFFCURVE",
"170.667 4 OFFCURVE",
"264 -8 CURVE",
"230 -66 LINE",
"247 -80 LINE",
"257 -73.333 OFFCURVE",
"267.333 -70 OFFCURVE",
"278 -70 CURVE SMOOTH",
"302 -70 OFFCURVE",
"321 -89.333 OFFCURVE",
"321 -116 CURVE SMOOTH",
"321 -141.333 OFFCURVE",
"304.667 -160 OFFCURVE",
"282 -160 CURVE SMOOTH",
"266.667 -160 OFFCURVE",
"254 -153 OFFCURVE",
"244 -139 CURVE",
"225 -150 LINE",
"241 -180.667 OFFCURVE",
"272 -198 OFFCURVE",
"304 -198 CURVE SMOOTH",
"349.333 -198 OFFCURVE",
"391 -165.333 OFFCURVE",
"391 -116 CURVE SMOOTH",
"391 -66.667 OFFCURVE",
"357.667 -36 OFFCURVE",
"315 -36 CURVE SMOOTH",
"299 -36 OFFCURVE",
"282.333 -40.333 OFFCURVE",
"265 -49 CURVE",
"288 -10 LINE",
"290.667 -10.667 OFFCURVE",
"295.333 -11 OFFCURVE",
"302 -11 CURVE SMOOTH",
"398.667 -11 OFFCURVE",
"482.333 33.667 OFFCURVE",
"553 123 CURVE",
"531 145 LINE",
"480.333 93 OFFCURVE",
"417 65 OFFCURVE",
"353 65 CURVE SMOOTH"
);
}
);
userData = {
assembly = "NPUSHB[ ]	/* 77 values pushed */\01248 47 3 2 4 7 6 32 1 0 7 31 8 2 4 1 30 20 19 3 3 4 4 74 0 1 0 4 3 1 4 99 0 3 0 2 3 2 95 0 6 6 5 91 0 5 5 42 75 8 1 7 7 0 91 0 0 0 43 0 76 0 0 0 62 0 61 44 42 36 36 36 35 36 9 7 27 \012CALL[ ]	/* CallFunction */";
};
width = 614;
}
);
leftKerningGroup = C;
note = Ccedilla;
rightKerningGroup = C;
unicode = 00C7;
},
{
glyphname = D;
layers = (
{
layerId = "F9783665-9C0C-4F5A-9005-646D18F9330F";
paths = (
{
closed = 1;
nodes = (
"273 713 OFFCURVE",
"115.333 646 OFFCURVE",
"30 562 CURVE",
"50 541 LINE",
"132.667 610.333 OFFCURVE",
"240.667 655 OFFCURVE",
"346 655 CURVE SMOOTH",
"387.333 655 OFFCURVE",
"421.5 645 OFFCURVE",
"448.5 625 CURVE SMOOTH",
"502.5 585 OFFCURVE",
"527 519.333 OFFCURVE",
"527 446 CURVE SMOOTH",
"527 382 OFFCURVE",
"512.5 322.333 OFFCURVE",
"483.5 267 CURVE SMOOTH",
"425.5 156.333 OFFCURVE",
"319 75.667 OFFCURVE",
"187 41 CURVE",
"187 575 LINE",
"94 541 LINE",
"94 -13 LINE",
"181.333 -7.667 OFFCURVE",
"266.833 16.333 OFFCURVE",
"350.5 59 CURVE SMOOTH",
"517.833 144.333 OFFCURVE",
"635 293.667 OFFCURVE",
"635 463 CURVE SMOOTH",
"635 616.333 OFFCURVE",
"549 713 OFFCURVE",
"389 713 CURVE SMOOTH"
);
}
);
userData = {
assembly = "NPUSHB[ ]	/* 10 values pushed */\01221 20 9 8 7 5 0 1 1 74 \012MPPEM[ ]	/* MeasurePixelPerEm */\012PUSHB[ ]	/* 1 value pushed */\01238 \012LT[ ]	/* LessThan */\012IF[ ]	/* If */\012NPUSHB[ ]	/* 17 values pushed */\0120 1 1 2 91 3 1 2 2 42 75 0 0 0 46 0 76 \012ELSE[ ]	/* Else */\012NPUSHB[ ]	/* 15 values pushed */\0123 1 2 0 1 0 2 1 99 0 0 0 46 0 76 \012EIF[ ]	/* EndIf */\012NPUSHB[ ]	/* 11 values pushed */\0120 0 0 24 0 23 42 21 4 7 22 \012CALL[ ]	/* CallFunction */";
};
width = 675;
}
);
leftKerningGroup = B;
note = D;
rightKerningGroup = D;
unicode = 0044;
},
{
glyphname = Eth;
layers = (
{
layerId = "F9783665-9C0C-4F5A-9005-646D18F9330F";
paths = (
{
closed = 1;
nodes = (
"273 713 OFFCURVE",
"115.333 646 OFFCURVE",
"30 562 CURVE",
"50 541 LINE",
"132.667 610.333 OFFCURVE",
"240.667 655 OFFCURVE",
"346 655 CURVE SMOOTH",
"387.333 655 OFFCURVE",
"421.5 645 OFFCURVE",
"448.5 625 CURVE SMOOTH",
"502.5 585 OFFCURVE",
"527 519.333 OFFCURVE",
"527 446 CURVE SMOOTH",
"527 382 OFFCURVE",
"512.5 322.333 OFFCURVE",
"483.5 267 CURVE SMOOTH",
"425.5 156.333 OFFCURVE",
"319 75.667 OFFCURVE",
"187 41 CURVE",
"187 324 LINE",
"332 324 LINE",
"353 374 LINE",
"187 374 LINE",
"187 575 LINE",
"94 541 LINE",
"94 374 LINE",
"11 374 LINE",
"-10 324 LINE",
"94 324 LINE",
"94 -13 LINE",
"181.333 -7.667 OFFCURVE",
"266.833 16.333 OFFCURVE",
"350.5 59 CURVE SMOOTH",
"517.833 144.333 OFFCURVE",
"635 293.667 OFFCURVE",
"635 463 CURVE SMOOTH",
"635 616.333 OFFCURVE",
"549 713 OFFCURVE",
"389 713 CURVE SMOOTH"
);
}
);
userData = {
assembly = "NPUSHB[ ]	/* 13 values pushed */\01229 28 12 11 4 2 5 17 1 0 1 2 74 \012MPPEM[ ]	/* MeasurePixelPerEm */\012PUSHB[ ]	/* 1 value pushed */\01238 \012LT[ ]	/* LessThan */\012IF[ ]	/* If */\012NPUSHB[ ]	/* 27 values pushed */\0123 1 2 4 1 1 0 2 1 97 0 5 5 6 91 7 1 6 6 42 75 0 0 0 46 0 76 \012ELSE[ ]	/* Else */\012NPUSHB[ ]	/* 25 values pushed */\0127 1 6 0 5 2 6 5 99 3 1 2 4 1 1 0 2 1 97 0 0 0 46 0 76 \012EIF[ ]	/* EndIf */\012NPUSHB[ ]	/* 15 values pushed */\0120 0 0 32 0 31 40 17 19 17 17 21 8 7 26 \012CALL[ ]	/* CallFunction */";
};
width = 675;
}
);
leftKerningGroup = B;
note = Eth;
rightKerningGroup = D;
unicode = 00D0;
},
{
glyphname = Dcroat;
layers = (
{
layerId = "F9783665-9C0C-4F5A-9005-646D18F9330F";
paths = (
{
closed = 1;
nodes = (
"273 713 OFFCURVE",
"115.333 646 OFFCURVE",
"30 562 CURVE",
"50 541 LINE",
"132.667 610.333 OFFCURVE",
"240.667 655 OFFCURVE",
"346 655 CURVE SMOOTH",
"387.333 655 OFFCURVE",
"421.5 645 OFFCURVE",
"448.5 625 CURVE SMOOTH",
"502.5 585 OFFCURVE",
"527 519.333 OFFCURVE",
"527 446 CURVE SMOOTH",
"527 382 OFFCURVE",
"512.5 322.333 OFFCURVE",
"483.5 267 CURVE SMOOTH",
"425.5 156.333 OFFCURVE",
"319 75.667 OFFCURVE",
"187 41 CURVE",
"187 324 LINE",
"332 324 LINE",
"353 374 LINE",
"187 374 LINE",
"187 575 LINE",
"94 541 LINE",
"94 374 LINE",
"11 374 LINE",
"-10 324 LINE",
"94 324 LINE",
"94 -13 LINE",
"181.333 -7.667 OFFCURVE",
"266.833 16.333 OFFCURVE",
"350.5 59 CURVE SMOOTH",
"517.833 144.333 OFFCURVE",
"635 293.667 OFFCURVE",
"635 463 CURVE SMOOTH",
"635 616.333 OFFCURVE",
"549 713 OFFCURVE",
"389 713 CURVE SMOOTH"
);
}
);
userData = {
assembly = "NPUSHB[ ]	/* 13 values pushed */\01229 28 12 11 4 2 5 17 1 0 1 2 74 \012MPPEM[ ]	/* MeasurePixelPerEm */\012PUSHB[ ]	/* 1 value pushed */\01238 \012LT[ ]	/* LessThan */\012IF[ ]	/* If */\012NPUSHB[ ]	/* 27 values pushed */\0123 1 2 4 1 1 0 2 1 97 0 5 5 6 91 7 1 6 6 42 75 0 0 0 46 0 76 \012ELSE[ ]	/* Else */\012NPUSHB[ ]	/* 25 values pushed */\0127 1 6 0 5 2 6 5 99 3 1 2 4 1 1 0 2 1 97 0 0 0 46 0 76 \012EIF[ ]	/* EndIf */\012NPUSHB[ ]	/* 15 values pushed */\0120 0 0 32 0 31 40 17 19 17 17 21 8 7 26 \012CALL[ ]	/* CallFunction */";
};
width = 675;
}
);
leftKerningGroup = Dcroat;
note = Dcroat;
rightKerningGroup = Dcroat;
unicode = 0110;
},
{
glyphname = E;
layers = (
{
layerId = "F9783665-9C0C-4F5A-9005-646D18F9330F";
paths = (
{
closed = 1;
nodes = (
"323.667 717 OFFCURVE",
"285.5 709.667 OFFCURVE",
"246.5 695 CURVE SMOOTH",
"168.5 665.667 OFFCURVE",
"109 606 OFFCURVE",
"109 522 CURVE SMOOTH",
"109 459.333 OFFCURVE",
"152.333 408 OFFCURVE",
"219 392 CURVE",
"113.667 345.333 OFFCURVE",
"30 264 OFFCURVE",
"30 168 CURVE SMOOTH",
"30 132.667 OFFCURVE",
"38.5 101.5 OFFCURVE",
"55.5 74.5 CURVE SMOOTH",
"89.5 20.5 OFFCURVE",
"151.333 -11 OFFCURVE",
"226 -11 CURVE SMOOTH",
"352.667 -11 OFFCURVE",
"468.667 70.667 OFFCURVE",
"534 180 CURVE",
"511 200 LINE",
"497.667 178 OFFCURVE",
"478.667 156.667 OFFCURVE",
"454 136 CURVE SMOOTH",
"404.667 94.667 OFFCURVE",
"336.667 66 OFFCURVE",
"270 66 CURVE SMOOTH",
"188.667 66 OFFCURVE",
"139 123 OFFCURVE",
"139 203 CURVE SMOOTH",
"139 309.667 OFFCURVE",
"248 387.333 OFFCURVE",
"364 422 CURVE",
"355 450 LINE",
"344.333 443.333 OFFCURVE",
"326.333 443 OFFCURVE",
"309 443 CURVE SMOOTH",
"240.921 443 OFFCURVE",
"172 494.567 OFFCURVE",
"172 560 CURVE SMOOTH",
"172 625.255 OFFCURVE",
"238.885 671 OFFCURVE",
"306 671 CURVE SMOOTH",
"354 671 OFFCURVE",
"389.667 646 OFFCURVE",
"427 606 CURVE",
"488 656 LINE",
"452.667 696.667 OFFCURVE",
"410.333 717 OFFCURVE",
"361 717 CURVE SMOOTH"
);
}
);
userData = {
assembly = "NPUSHB[ ]	/* 57 values pushed */\01216 2 1 3 1 0 38 28 27 3 2 1 2 74 0 1 0 2 0 1 2 112 0 0 0 4 91 5 1 4 4 42 75 0 2 2 3 92 0 3 3 43 3 76 0 0 0 45 0 44 38 40 38 36 6 7 24 \012CALL[ ]	/* CallFunction */";
};
width = 540;
}
);
leftKerningGroup = B;
note = E;
rightKerningGroup = AE;
unicode = 0045;
},
{
glyphname = Eogonek;
layers = (
{
layerId = "F9783665-9C0C-4F5A-9005-646D18F9330F";
paths = (
{
closed = 1;
nodes = (
"511 200 LINE",
"497.667 178 OFFCURVE",
"478.667 156.667 OFFCURVE",
"454 136 CURVE SMOOTH",
"404.667 94.667 OFFCURVE",
"336.667 66 OFFCURVE",
"270 66 CURVE SMOOTH",
"188.667 66 OFFCURVE",
"139 123 OFFCURVE",
"139 203 CURVE SMOOTH",
"139 309.667 OFFCURVE",
"248 387.333 OFFCURVE",
"364 422 CURVE",
"355 450 LINE",
"344.333 443.333 OFFCURVE",
"326.333 443 OFFCURVE",
"309 443 CURVE SMOOTH",
"240.921 443 OFFCURVE",
"172 494.567 OFFCURVE",
"172 560 CURVE SMOOTH",
"172 625.255 OFFCURVE",
"238.885 671 OFFCURVE",
"306 671 CURVE SMOOTH",
"354 671 OFFCURVE",
"389.667 646 OFFCURVE",
"427 606 CURVE",
"488 656 LINE",
"452.667 696.667 OFFCURVE",
"410.333 717 OFFCURVE",
"361 717 CURVE SMOOTH",
"323.667 717 OFFCURVE",
"285.5 709.667 OFFCURVE",
"246.5 695 CURVE SMOOTH",
"168.5 665.667 OFFCURVE",
"109 606 OFFCURVE",
"109 522 CURVE SMOOTH",
"109 459.333 OFFCURVE",
"152.333 408 OFFCURVE",
"219 392 CURVE",
"113.667 345.333 OFFCURVE",
"30 264 OFFCURVE",
"30 168 CURVE SMOOTH",
"30 132.667 OFFCURVE",
"38.5 101.5 OFFCURVE",
"55.5 74.5 CURVE SMOOTH",
"89.5 20.5 OFFCURVE",
"151.333 -11 OFFCURVE",
"226 -11 CURVE SMOOTH",
"234 -11 LINE",
"194 -46.333 OFFCURVE",
"174 -83.333 OFFCURVE",
"174 -122 CURVE SMOOTH",
"174 -171.333 OFFCURVE",
"213 -197 OFFCURVE",
"253 -197 CURVE SMOOTH",
"290.333 -197 OFFCURVE",
"323 -169.333 OFFCURVE",
"347 -128 CURVE",
"330 -113 LINE",
"316.667 -130.333 OFFCURVE",
"300.333 -139 OFFCURVE",
"281 -139 CURVE SMOOTH",
"250.333 -139 OFFCURVE",
"235 -120.333 OFFCURVE",
"235 -91 CURVE SMOOTH",
"235 -64.333 OFFCURVE",
"249 -32.333 OFFCURVE",
"273 -7 CURVE",
"379.667 9 OFFCURVE",
"476.667 85.333 OFFCURVE",
"534 180 CURVE"
);
}
);
userData = {
assembly = "NPUSHB[ ]	/* 65 values pushed */\01251 37 36 3 5 4 63 62 27 3 6 5 11 10 2 0 2 3 74 0 5 4 6 4 5 6 112 0 0 0 1 0 1 95 0 4 4 3 91 0 3 3 42 75 0 6 6 2 91 0 2 2 43 2 76 40 38 36 44 36 36 39 7 7 27 \012CALL[ ]	/* CallFunction */";
};
width = 540;
}
);
leftKerningGroup = B;
note = Eogonek;
rightKerningGroup = AE;
unicode = 0118;
},
{
glyphname = F;
layers = (
{
layerId = "F9783665-9C0C-4F5A-9005-646D18F9330F";
paths = (
{
closed = 1;
nodes = (
"421 612 LINE SMOOTH",
"487.667 612 OFFCURVE",
"572.333 664 OFFCURVE",
"615 728 CURVE",
"605 739 LINE",
"566.333 705.667 OFFCURVE",
"475 699 OFFCURVE",
"379 699 CURVE SMOOTH",
"208 699 LINE SMOOTH",
"130.667 699 OFFCURVE",
"56.333 653.333 OFFCURVE",
"-9 572 CURVE",
"8 557 LINE",
"42.667 595.667 OFFCURVE",
"77.333 613 OFFCURVE",
"128 613 CURVE SMOOTH",
"266 612 LINE",
"218 568 OFFCURVE",
"180 512.333 OFFCURVE",
"180 455 CURVE SMOOTH",
"180 368 LINE",
"123 368 LINE",
"78 310 LINE",
"180 310 LINE",
"180 26 LINE SMOOTH",
"180 -8.667 OFFCURVE",
"171 -49.667 OFFCURVE",
"151 -71 CURVE",
"172 -92 LINE",
"242.667 -37.333 OFFCURVE",
"273 13.667 OFFCURVE",
"273 115 CURVE SMOOTH",
"273 310 LINE",
"332 310 LINE SMOOTH",
"412.667 310 OFFCURVE",
"472.333 338.667 OFFCURVE",
"511 396 CURVE",
"496 411 LINE",
"460 384.333 OFFCURVE",
"423.667 368 OFFCURVE",
"353 368 CURVE SMOOTH",
"273 368 LINE",
"273 513 LINE SMOOTH",
"273 553 OFFCURVE",
"284 578.667 OFFCURVE",
"312 612 CURVE"
);
}
);
userData = {
assembly = "NPUSHB[ ]	/* 57 values pushed */\01232 31 8 7 4 0 4 1 74 40 39 2 5 72 16 15 2 1 71 0 5 6 1 4 0 5 4 99 3 1 0 1 1 0 87 3 1 0 0 1 91 2 1 1 0 1 79 37 53 36 17 25 36 35 7 7 27 \012CALL[ ]	/* CallFunction */";
};
width = 590;
}
);
leftKerningGroup = B;
note = F;
rightKerningGroup = F;
unicode = 0046;
},
{
glyphname = G;
layers = (
{
layerId = "F9783665-9C0C-4F5A-9005-646D18F9330F";
paths = (
{
closed = 1;
nodes = (
"362.667 726 OFFCURVE",
"295.833 705.5 OFFCURVE",
"235.5 664.5 CURVE SMOOTH",
"114.833 582.5 OFFCURVE",
"41 431.667 OFFCURVE",
"41 257 CURVE SMOOTH",
"41 203.667 OFFCURVE",
"50.167 157 OFFCURVE",
"68.5 117 CURVE SMOOTH",
"105.167 37 OFFCURVE",
"175.333 -8 OFFCURVE",
"266 -8 CURVE SMOOTH",
"299.333 -8 OFFCURVE",
"331.5 0.333 OFFCURVE",
"362.5 17 CURVE SMOOTH",
"424.5 50.333 OFFCURVE",
"473 115 OFFCURVE",
"493 199 CURVE",
"499 199 LINE",
"499 -107 LINE",
"587 -71 LINE",
"587 332 LINE",
"492 299 LINE",
"491.333 261.667 OFFCURVE",
"482 225.5 OFFCURVE",
"464 190.5 CURVE SMOOTH",
"428 120.5 OFFCURVE",
"367.333 72 OFFCURVE",
"306 72 CURVE SMOOTH",
"199.333 72 OFFCURVE",
"146 168 OFFCURVE",
"146 328 CURVE SMOOTH",
"146 393.333 OFFCURVE",
"156.167 452 OFFCURVE",
"176.5 504 CURVE SMOOTH",
"217.167 608 OFFCURVE",
"292.333 671 OFFCURVE",
"383 671 CURVE SMOOTH",
"433.667 671 OFFCURVE",
"467 643 OFFCURVE",
"467 599 CURVE SMOOTH",
"467 544.333 OFFCURVE",
"410.667 485.333 OFFCURVE",
"340 468 CURVE",
"350 449 LINE",
"386 451.667 OFFCURVE",
"421.167 462.333 OFFCURVE",
"455.5 481 CURVE SMOOTH",
"524.167 518.333 OFFCURVE",
"572 577.333 OFFCURVE",
"572 632 CURVE SMOOTH",
"572 688 OFFCURVE",
"516 726 OFFCURVE",
"436 726 CURVE SMOOTH"
);
}
);
userData = {
assembly = "NPUSHB[ ]	/* 49 values pushed */\01228 25 24 7 6 5 1 0 1 74 27 26 2 2 71 0 0 0 3 91 4 1 3 3 42 75 0 1 1 2 91 0 2 2 46 2 76 0 0 0 41 0 40 43 37 44 5 7 23 \012CALL[ ]	/* CallFunction */";
};
width = 660;
}
);
leftKerningGroup = C;
note = G;
rightKerningGroup = G;
unicode = 0047;
},
{
glyphname = H;
layers = (
{
layerId = "F9783665-9C0C-4F5A-9005-646D18F9330F";
paths = (
{
closed = 1;
nodes = (
"475 694 LINE",
"568 730 LINE",
"568 20 LINE",
"475 -14 LINE",
"475 277 LINE",
"194 277 LINE",
"194 20 LINE",
"100 -14 LINE",
"100 277 LINE",
"19 277 LINE",
"48 336 LINE",
"100 336 LINE",
"100 694 LINE",
"194 730 LINE",
"194 336 LINE",
"475 336 LINE"
);
}
);
userData = {
assembly = "NPUSHB[ ]	/* 40 values pushed */\01215 4 3 0 4 0 72 14 13 10 9 4 2 71 1 1 0 2 2 0 85 1 1 0 0 2 89 3 1 2 0 2 77 19 17 19 17 4 7 24 \012CALL[ ]	/* CallFunction */";
};
width = 658;
}
);
leftKerningGroup = B;
note = H;
rightKerningGroup = H;
unicode = 0048;
},
{
glyphname = Hbar;
layers = (
{
layerId = "F9783665-9C0C-4F5A-9005-646D18F9330F";
paths = (
{
closed = 1;
nodes = (
"598 416 LINE",
"623 471 LINE",
"568 471 LINE",
"568 730 LINE",
"475 694 LINE",
"475 471 LINE",
"194 471 LINE",
"194 730 LINE",
"100 694 LINE",
"100 471 LINE",
"49 471 LINE",
"24 416 LINE",
"100 416 LINE",
"100 336 LINE",
"48 336 LINE",
"19 277 LINE",
"100 277 LINE",
"100 -14 LINE",
"194 20 LINE",
"194 277 LINE",
"475 277 LINE",
"475 -14 LINE",
"568 20 LINE",
"568 416 LINE"
);
},
{
closed = 1;
nodes = (
"475 416 LINE",
"475 336 LINE",
"194 336 LINE",
"194 416 LINE"
);
}
);
userData = {
assembly = "NPUSHB[ ]	/* 59 values pushed */\01221 20 17 16 4 5 72 7 6 3 2 4 1 71 7 6 2 5 8 4 2 0 3 5 0 97 9 1 3 1 1 3 85 9 1 3 3 1 89 2 1 1 3 1 77 27 26 17 19 19 17 17 17 19 19 16 10 7 29 \012CALL[ ]	/* CallFunction */";
};
width = 658;
}
);
leftKerningGroup = B;
note = Hbar;
rightKerningGroup = H;
unicode = 0126;
},
{
glyphname = I;
layers = (
{
layerId = "F9783665-9C0C-4F5A-9005-646D18F9330F";
paths = (
{
closed = 1;
nodes = (
"184 19 LINE",
"184 730 LINE",
"91 695 LINE",
"91 -14 LINE"
);
}
);
userData = {
assembly = "PUSHB[ ]	/* 4 values pushed */\0123 1 1 48 \012CALL[ ]	/* CallFunction */";
};
width = 290;
}
);
leftKerningGroup = B;
note = I;
rightKerningGroup = H;
unicode = 0049;
},
{
glyphname = Iogonek;
layers = (
{
layerId = "F9783665-9C0C-4F5A-9005-646D18F9330F";
paths = (
{
closed = 1;
nodes = (
"217 -98 LINE",
"203 -116 OFFCURVE",
"187 -125 OFFCURVE",
"169 -125 CURVE SMOOTH",
"138.333 -125 OFFCURVE",
"122 -106.667 OFFCURVE",
"122 -76 CURVE SMOOTH",
"122 -48 OFFCURVE",
"138.333 -13.333 OFFCURVE",
"165 12 CURVE",
"184 19 LINE",
"184 730 LINE",
"91 695 LINE",
"91 -14 LINE",
"108 -8 LINE",
"76.667 -39.333 OFFCURVE",
"61 -72.333 OFFCURVE",
"61 -107 CURVE SMOOTH",
"61 -156.333 OFFCURVE",
"100 -182 OFFCURVE",
"140 -182 CURVE SMOOTH",
"177.333 -182 OFFCURVE",
"211.333 -154.333 OFFCURVE",
"234 -113 CURVE"
);
}
);
userData = {
assembly = "NPUSHB[ ]	/* 30 values pushed */\01221 12 11 10 9 8 6 1 72 0 1 0 0 1 87 0 1 1 0 91 0 0 1 0 79 46 34 2 7 22 \012CALL[ ]	/* CallFunction */";
};
width = 285;
}
);
leftKerningGroup = B;
note = Iogonek;
rightKerningGroup = H;
unicode = 012E;
},
{
glyphname = J;
layers = (
{
layerId = "F9783665-9C0C-4F5A-9005-646D18F9330F";
paths = (
{
closed = 1;
nodes = (
"372 699 LINE",
"229 699 LINE SMOOTH",
"149.667 699 OFFCURVE",
"75 656.667 OFFCURVE",
"5 572 CURVE",
"23 556 LINE",
"59 596 OFFCURVE",
"92 613 OFFCURVE",
"144 613 CURVE SMOOTH",
"259 612 LINE",
"199 570.667 OFFCURVE",
"157 504.667 OFFCURVE",
"157 442 CURVE SMOOTH",
"157 25 LINE SMOOTH",
"157 -39 OFFCURVE",
"128.333 -93 OFFCURVE",
"55 -93 CURVE SMOOTH",
"-5 -93 OFFCURVE",
"-48.667 -57.667 OFFCURVE",
"-78 -15 CURVE",
"-162 -83 LINE",
"-114 -115 OFFCURVE",
"-54.333 -136 OFFCURVE",
"-1 -136 CURVE SMOOTH",
"55.667 -136 OFFCURVE",
"102.833 -124.667 OFFCURVE",
"140.5 -102 CURVE SMOOTH",
"215.833 -56.667 OFFCURVE",
"250 21.667 OFFCURVE",
"250 111 CURVE SMOOTH",
"250 500 LINE SMOOTH",
"250 545.333 OFFCURVE",
"265.667 579.667 OFFCURVE",
"307 629 CURVE"
);
}
);
userData = {
assembly = "NPUSHB[ ]	/* 40 values pushed */\01227 26 12 11 4 1 2 1 74 0 3 0 2 1 3 2 99 0 1 0 0 1 87 0 1 1 0 91 0 0 1 0 79 36 38 37 39 4 7 24 \012CALL[ ]	/* CallFunction */";
};
width = 410;
}
);
leftKerningGroup = J;
note = J;
rightKerningGroup = IJ;
unicode = 004A;
},
{
glyphname = K;
layers = (
{
layerId = "F9783665-9C0C-4F5A-9005-646D18F9330F";
paths = (
{
closed = 1;
nodes = (
"604 132 LINE",
"577.333 88 OFFCURVE",
"537.333 56 OFFCURVE",
"504 56 CURVE",
"470.667 54.667 OFFCURVE",
"453.667 68 OFFCURVE",
"427 116 CURVE SMOOTH",
"285 354 LINE",
"587 707 LINE",
"526 712 LINE",
"183 306 LINE",
"183 730 LINE",
"90 694 LINE",
"90 -14 LINE",
"183 20 LINE",
"183 233 LINE",
"224 282 LINE",
"314 130 LINE SMOOTH",
"354.861 59.952 OFFCURVE",
"417.012 -8 OFFCURVE",
"467 -8 CURVE SMOOTH",
"524.333 -8 OFFCURVE",
"582.333 40 OFFCURVE",
"621 120 CURVE"
);
}
);
userData = {
assembly = "NPUSHB[ ]	/* 38 values pushed */\01210 1 0 1 1 74 24 17 16 14 13 12 9 8 8 1 72 11 1 0 71 0 1 1 0 91 0 0 0 46 0 76 22 20 34 2 7 21 \012CALL[ ]	/* CallFunction */";
};
width = 624;
}
);
leftKerningGroup = B;
note = K;
rightKerningGroup = K;
unicode = 004B;
},
{
glyphname = L;
layers = (
{
layerId = "F9783665-9C0C-4F5A-9005-646D18F9330F";
paths = (
{
closed = 1;
nodes = (
"333.333 730 OFFCURVE",
"279.5 715.5 OFFCURVE",
"232.5 686.5 CURVE SMOOTH",
"138.5 628.5 OFFCURVE",
"84 523.667 OFFCURVE",
"84 401 CURVE SMOOTH",
"84 119 LINE SMOOTH",
"84 73 OFFCURVE",
"67.333 37 OFFCURVE",
"34 11 CURVE",
"57 -8 LINE",
"90.333 17.333 OFFCURVE",
"138.333 31 OFFCURVE",
"177 31 CURVE SMOOTH",
"237 31 OFFCURVE",
"278.667 24 OFFCURVE",
"360 8 CURVE SMOOTH",
"400.667 -1.333 OFFCURVE",
"436.667 -7.667 OFFCURVE",
"468 -11 CURVE",
"542 144 LINE",
"524 156 LINE",
"496 118.667 OFFCURVE",
"454.333 92 OFFCURVE",
"409 92 CURVE SMOOTH",
"370.333 92 OFFCURVE",
"332 97.667 OFFCURVE",
"324 99 CURVE SMOOTH",
"294.667 103.667 OFFCURVE",
"266.667 106 OFFCURVE",
"240 106 CURVE SMOOTH",
"201.333 106 OFFCURVE",
"175 94 OFFCURVE",
"143 70 CURVE",
"138 73 LINE",
"164.667 105 OFFCURVE",
"177 131.667 OFFCURVE",
"177 173 CURVE SMOOTH",
"177 483 LINE SMOOTH",
"177 587 OFFCURVE",
"229.667 674 OFFCURVE",
"339 674 CURVE SMOOTH",
"384.333 674 OFFCURVE",
"414 649.667 OFFCURVE",
"414 607 CURVE SMOOTH",
"414 549.667 OFFCURVE",
"360 491.667 OFFCURVE",
"288 469 CURVE",
"297 450 LINE",
"333 454.667 OFFCURVE",
"367.833 466.333 OFFCURVE",
"401.5 485 CURVE SMOOTH",
"468.833 522.333 OFFCURVE",
"515 579.667 OFFCURVE",
"515 633 CURVE SMOOTH",
"515 693 OFFCURVE",
"466 730 OFFCURVE",
"394 730 CURVE SMOOTH"
);
}
);
userData = {
assembly = "NPUSHB[ ]	/* 59 values pushed */\01233 32 7 6 4 1 0 20 1 3 2 2 74 43 42 34 3 3 71 0 2 1 3 1 2 3 112 0 1 0 3 1 3 95 0 0 0 4 91 5 1 4 4 42 0 76 0 0 0 50 0 49 40 35 41 44 6 7 24 \012CALL[ ]	/* CallFunction */";
};
width = 561;
}
);
leftKerningGroup = B;
note = L;
rightKerningGroup = L;
unicode = 004C;
},
{
glyphname = Lslash;
layers = (
{
layerId = "F9783665-9C0C-4F5A-9005-646D18F9330F";
paths = (
{
closed = 1;
nodes = (
"542 144 LINE",
"524 156 LINE",
"496 118.667 OFFCURVE",
"454.333 92 OFFCURVE",
"409 92 CURVE SMOOTH",
"370.333 92 OFFCURVE",
"332 97.667 OFFCURVE",
"324 99 CURVE SMOOTH",
"294.667 103.667 OFFCURVE",
"266.667 106 OFFCURVE",
"240 106 CURVE SMOOTH",
"201.333 106 OFFCURVE",
"175 94 OFFCURVE",
"143 70 CURVE",
"138 73 LINE",
"164.667 105 OFFCURVE",
"177 131.667 OFFCURVE",
"177 173 CURVE SMOOTH",
"177 283 LINE",
"272 320 LINE",
"272 374 LINE",
"177 338 LINE",
"177 483 LINE SMOOTH",
"177 587 OFFCURVE",
"229.667 674 OFFCURVE",
"339 674 CURVE SMOOTH",
"384.333 674 OFFCURVE",
"414 649.667 OFFCURVE",
"414 607 CURVE SMOOTH",
"414 549.667 OFFCURVE",
"360 491.667 OFFCURVE",
"288 469 CURVE",
"297 450 LINE",
"333 454.667 OFFCURVE",
"367.833 466.333 OFFCURVE",
"401.5 485 CURVE SMOOTH",
"468.833 522.333 OFFCURVE",
"515 579.667 OFFCURVE",
"515 633 CURVE SMOOTH",
"515 693 OFFCURVE",
"466 730 OFFCURVE",
"394 730 CURVE SMOOTH",
"333.333 730 OFFCURVE",
"279.5 715.5 OFFCURVE",
"232.5 686.5 CURVE SMOOTH",
"138.5 628.5 OFFCURVE",
"84 523.667 OFFCURVE",
"84 401 CURVE SMOOTH",
"84 302 LINE",
"9 274 LINE",
"9 218 LINE",
"84 247 LINE",
"84 119 LINE SMOOTH",
"84 73 OFFCURVE",
"67.333 37 OFFCURVE",
"34 11 CURVE",
"57 -8 LINE",
"90.333 17.333 OFFCURVE",
"138.333 31 OFFCURVE",
"177 31 CURVE SMOOTH",
"237 31 OFFCURVE",
"278.667 24 OFFCURVE",
"360 8 CURVE SMOOTH",
"400.667 -1.333 OFFCURVE",
"436.667 -7.667 OFFCURVE",
"468 -11 CURVE"
);
}
);
userData = {
assembly = "NPUSHB[ ]	/* 60 values pushed */\01258 42 41 40 39 29 28 16 15 14 13 11 3 2 46 1 0 4 2 74 10 9 1 3 0 71 0 4 3 0 3 4 0 112 0 3 0 0 3 0 95 0 2 2 1 91 0 1 1 42 2 76 35 45 44 45 37 5 7 25 \012CALL[ ]	/* CallFunction */";
};
width = 561;
}
);
leftKerningGroup = B;
note = Lslash;
rightKerningGroup = L;
unicode = 0141;
},
{
glyphname = M;
layers = (
{
layerId = "F9783665-9C0C-4F5A-9005-646D18F9330F";
paths = (
{
closed = 1;
nodes = (
"187 730 LINE",
"94 694 LINE",
"94 -14 LINE",
"187 19 LINE",
"187 288 LINE SMOOTH",
"187 356.667 OFFCURVE",
"196.667 419 OFFCURVE",
"216 475 CURVE SMOOTH",
"254.667 587 OFFCURVE",
"316.667 655 OFFCURVE",
"358 655 CURVE SMOOTH",
"376.667 655 OFFCURVE",
"388 637.667 OFFCURVE",
"388 607 CURVE SMOOTH",
"388 -14 LINE",
"480 19 LINE",
"480 288 LINE SMOOTH",
"480 356.667 OFFCURVE",
"489.667 419 OFFCURVE",
"509 475 CURVE SMOOTH",
"541.585 569.385 OFFCURVE",
"602.176 655 OFFCURVE",
"650 655 CURVE SMOOTH",
"670 655 OFFCURVE",
"683 637.667 OFFCURVE",
"683 607 CURVE SMOOTH",
"683 118 LINE SMOOTH",
"683 38 OFFCURVE",
"724 -5 OFFCURVE",
"784 -5 CURVE SMOOTH",
"836 -5 OFFCURVE",
"875.333 26.667 OFFCURVE",
"894 68 CURVE",
"880 81 LINE",
"865.333 61 OFFCURVE",
"841.333 45 OFFCURVE",
"820 45 CURVE SMOOTH",
"792 45 OFFCURVE",
"775 69.667 OFFCURVE",
"775 107 CURVE SMOOTH",
"775 633 LINE SMOOTH",
"775 691.667 OFFCURVE",
"749.667 728 OFFCURVE",
"699 728 CURVE SMOOTH",
"673.667 728 OFFCURVE",
"646.833 718.167 OFFCURVE",
"618.5 698.5 CURVE SMOOTH",
"561.833 659.167 OFFCURVE",
"509 580.667 OFFCURVE",
"481 470 CURVE",
"481 633 LINE SMOOTH",
"481 690.333 OFFCURVE",
"455.667 728 OFFCURVE",
"405 728 CURVE SMOOTH",
"380.333 728 OFFCURVE",
"353.667 718.167 OFFCURVE",
"325 698.5 CURVE SMOOTH",
"267.667 659.167 OFFCURVE",
"215 579.667 OFFCURVE",
"187 469 CURVE"
);
}
);
userData = {
assembly = "NPUSHB[ ]	/* 59 values pushed */\01251 1 4 0 24 23 9 1 4 2 4 49 39 2 3 2 3 74 0 1 0 72 50 40 2 3 71 5 1 4 4 0 91 1 1 0 0 42 75 0 2 2 3 91 0 3 3 46 3 76 40 37 37 37 38 36 6 7 26 \012CALL[ ]	/* CallFunction */";
};
width = 886;
}
);
leftKerningGroup = M;
note = M;
rightKerningGroup = M;
unicode = 004D;
},
{
glyphname = N;
layers = (
{
layerId = "F9783665-9C0C-4F5A-9005-646D18F9330F";
paths = (
{
closed = 1;
nodes = (
"184 731 LINE",
"92 696 LINE",
"92 -13 LINE",
"184 24 LINE",
"184 357 LINE SMOOTH",
"184 393.667 OFFCURVE",
"190 437.333 OFFCURVE",
"202 488 CURVE SMOOTH",
"226 589.333 OFFCURVE",
"277 677 OFFCURVE",
"353 677 CURVE SMOOTH",
"413 677 OFFCURVE",
"423 621.667 OFFCURVE",
"423 547 CURVE SMOOTH",
"423 118 LINE SMOOTH",
"423 38 OFFCURVE",
"463.667 -5 OFFCURVE",
"525 -5 CURVE SMOOTH",
"575.667 -5 OFFCURVE",
"616.667 28 OFFCURVE",
"634 68 CURVE",
"620 81 LINE",
"608 61 OFFCURVE",
"582.667 45 OFFCURVE",
"560 45 CURVE SMOOTH",
"532 45 OFFCURVE",
"516 69.667 OFFCURVE",
"516 107 CURVE SMOOTH",
"516 587 LINE SMOOTH",
"516 668.333 OFFCURVE",
"474 730 OFFCURVE",
"394 730 CURVE SMOOTH",
"280.667 730 OFFCURVE",
"213.333 649 OFFCURVE",
"184 537 CURVE"
);
}
);
userData = {
assembly = "NPUSHB[ ]	/* 52 values pushed */\01232 1 3 0 15 14 1 3 1 3 30 1 2 1 3 74 0 1 0 72 31 1 2 71 0 3 3 0 91 0 0 0 42 75 0 1 1 2 91 0 2 2 46 2 76 37 37 37 35 4 7 24 \012CALL[ ]	/* CallFunction */";
};
width = 628;
}
);
leftKerningGroup = B;
note = N;
rightKerningGroup = H;
unicode = 004E;
},
{
glyphname = Eng;
layers = (
{
layerId = "F9783665-9C0C-4F5A-9005-646D18F9330F";
paths = (
{
closed = 1;
nodes = (
"193 731 LINE",
"100 696 LINE",
"100 -13 LINE",
"193 24 LINE",
"193 358 LINE SMOOTH",
"193 394.667 OFFCURVE",
"198.5 438.167 OFFCURVE",
"209.5 488.5 CURVE SMOOTH",
"231.5 589.167 OFFCURVE",
"279.667 677 OFFCURVE",
"353 677 CURVE SMOOTH",
"409 677 OFFCURVE",
"419 621.667 OFFCURVE",
"419 547 CURVE SMOOTH",
"419 -30 LINE SMOOTH",
"419 -92.667 OFFCURVE",
"396.667 -155 OFFCURVE",
"334 -155 CURVE SMOOTH",
"290 -155 OFFCURVE",
"239 -117 OFFCURVE",
"215 -77 CURVE",
"136 -148 LINE",
"181.333 -181.333 OFFCURVE",
"236.667 -201 OFFCURVE",
"286 -201 CURVE SMOOTH",
"333.333 -201 OFFCURVE",
"374 -189.5 OFFCURVE",
"408 -166.5 CURVE SMOOTH",
"476 -120.5 OFFCURVE",
"511 -41 OFFCURVE",
"511 47 CURVE SMOOTH",
"511 587 LINE SMOOTH",
"511 668.333 OFFCURVE",
"470 730 OFFCURVE",
"394 730 CURVE SMOOTH",
"286 730 OFFCURVE",
"221 648.333 OFFCURVE",
"193 539 CURVE"
);
}
);
userData = {
assembly = "NPUSHB[ ]	/* 43 values pushed */\01232 1 3 0 31 30 15 14 0 5 2 3 2 74 33 1 0 72 0 2 0 1 2 1 95 0 3 3 0 91 0 0 0 42 3 76 37 37 38 34 4 7 24 \012CALL[ ]	/* CallFunction */";
};
width = 569;
}
);
note = Eng;
unicode = 014A;
},
{
glyphname = O;
layers = (
{
layerId = "F9783665-9C0C-4F5A-9005-646D18F9330F";
paths = (
{
closed = 1;
nodes = (
"297.333 723 OFFCURVE",
"237.667 705.167 OFFCURVE",
"189 669.5 CURVE SMOOTH",
"91.667 598.167 OFFCURVE",
"45 477.667 OFFCURVE",
"45 351 CURVE SMOOTH",
"45 289.667 OFFCURVE",
"58.167 230.667 OFFCURVE",
"84.5 174 CURVE SMOOTH",
"137.167 60.667 OFFCURVE",
"240 -17 OFFCURVE",
"368 -17 CURVE SMOOTH",
"437.333 -17 OFFCURVE",
"496 0.667 OFFCURVE",
"544 36 CURVE SMOOTH",
"640 106.667 OFFCURVE",
"687 227 OFFCURVE",
"687 351 CURVE SMOOTH",
"687 413.667 OFFCURVE",
"673.833 473.667 OFFCURVE",
"647.5 531 CURVE SMOOTH",
"594.833 645.667 OFFCURVE",
"494.667 723 OFFCURVE",
"368 723 CURVE SMOOTH"
);
},
{
closed = 1;
nodes = (
"384 668 OFFCURVE",
"435.5 648.167 OFFCURVE",
"476.5 608.5 CURVE SMOOTH",
"558.5 529.167 OFFCURVE",
"594 401.333 OFFCURVE",
"594 288 CURVE SMOOTH",
"594 250 OFFCURVE",
"587.667 212.333 OFFCURVE",
"575 175 CURVE SMOOTH",
"549.667 100.333 OFFCURVE",
"494.333 43 OFFCURVE",
"409 43 CURVE SMOOTH",
"347 43 OFFCURVE",
"295.5 62.833 OFFCURVE",
"254.5 102.5 CURVE SMOOTH",
"172.5 181.833 OFFCURVE",
"136 308 OFFCURVE",
"136 424 CURVE SMOOTH",
"136 461.333 OFFCURVE",
"142.333 498.833 OFFCURVE",
"155 536.5 CURVE SMOOTH",
"180.333 611.833 OFFCURVE",
"236.667 668 OFFCURVE",
"322 668 CURVE SMOOTH"
);
}
);
userData = {
assembly = "NPUSHB[ ]	/* 41 values pushed */\0125 1 3 3 1 91 4 1 1 1 42 75 0 2 2 0 91 0 0 0 43 0 76 16 16 0 0 16 31 16 30 24 22 0 15 0 14 38 6 7 21 \012CALL[ ]	/* CallFunction */";
};
width = 728;
}
);
leftKerningGroup = C;
note = O;
rightKerningGroup = D;
unicode = 004F;
},
{
glyphname = Oslash;
layers = (
{
layerId = "F9783665-9C0C-4F5A-9005-646D18F9330F";
paths = (
{
closed = 1;
nodes = (
"612 697 LINE",
"573 723 LINE",
"538 669 LINE",
"488 705 OFFCURVE",
"431.333 723 OFFCURVE",
"368 723 CURVE SMOOTH",
"297.333 723 OFFCURVE",
"237.667 705.167 OFFCURVE",
"189 669.5 CURVE SMOOTH",
"91.667 598.167 OFFCURVE",
"45 477.667 OFFCURVE",
"45 351 CURVE SMOOTH",
"45 247 OFFCURVE",
"83.667 143.333 OFFCURVE",
"153 74 CURVE",
"115 15 LINE",
"160 -15 LINE",
"194 39 LINE",
"245.333 1.667 OFFCURVE",
"303.333 -17 OFFCURVE",
"368 -17 CURVE SMOOTH",
"437.333 -17 OFFCURVE",
"496 0.667 OFFCURVE",
"544 36 CURVE SMOOTH",
"640 106.667 OFFCURVE",
"687 227 OFFCURVE",
"687 351 CURVE SMOOTH",
"687 459 OFFCURVE",
"646 567.667 OFFCURVE",
"574 637 CURVE"
);
},
{
closed = 1;
nodes = (
"136 461.333 OFFCURVE",
"142.333 498.833 OFFCURVE",
"155 536.5 CURVE SMOOTH",
"180.333 611.833 OFFCURVE",
"236.667 668 OFFCURVE",
"322 668 CURVE SMOOTH",
"388.667 668 OFFCURVE",
"444.667 643.667 OFFCURVE",
"490 595 CURVE",
"208 158 LINE",
"160 231.333 OFFCURVE",
"136 333.333 OFFCURVE",
"136 424 CURVE SMOOTH"
);
},
{
closed = 1;
nodes = (
"343 43 OFFCURVE",
"287.333 66.667 OFFCURVE",
"242 114 CURVE",
"521 554 LINE",
"570.333 480.667 OFFCURVE",
"594 378.667 OFFCURVE",
"594 288 CURVE SMOOTH",
"594 250 OFFCURVE",
"587.667 212.333 OFFCURVE",
"575 175 CURVE SMOOTH",
"549.667 100.333 OFFCURVE",
"494.333 43 OFFCURVE",
"409 43 CURVE SMOOTH"
);
}
);
userData = {
assembly = "NPUSHB[ ]	/* 60 values pushed */\01222 20 2 2 1 41 40 27 26 23 11 6 3 2 10 9 8 3 0 3 3 74 21 1 1 72 0 2 2 1 91 0 1 1 42 75 4 1 3 3 0 91 0 0 0 43 0 76 34 34 34 43 34 42 41 42 37 5 7 23 \012CALL[ ]	/* CallFunction */";
};
width = 728;
}
);
leftKerningGroup = C;
note = Oslash;
rightKerningGroup = D;
unicode = 00D8;
},
{
glyphname = Oslashacute;
layers = (
{
layerId = "F9783665-9C0C-4F5A-9005-646D18F9330F";
paths = (
{
closed = 1;
nodes = (
"296 778 LINE",
"464 865 LINE",
"403 938 LINE",
"281 798 LINE"
);
},
{
closed = 1;
nodes = (
"611 697 LINE",
"572 723 LINE",
"537 669 LINE",
"487 705 OFFCURVE",
"430.667 723 OFFCURVE",
"368 723 CURVE SMOOTH",
"297.333 723 OFFCURVE",
"237.667 705.167 OFFCURVE",
"189 669.5 CURVE SMOOTH",
"91.667 598.167 OFFCURVE",
"45 477.667 OFFCURVE",
"45 351 CURVE SMOOTH",
"45 248.333 OFFCURVE",
"83.667 144.333 OFFCURVE",
"153 75 CURVE",
"114 15 LINE",
"159 -15 LINE",
"193 39 LINE",
"245 1.667 OFFCURVE",
"303.333 -17 OFFCURVE",
"368 -17 CURVE SMOOTH",
"437.333 -17 OFFCURVE",
"496 0.667 OFFCURVE",
"544 36 CURVE SMOOTH",
"640 106.667 OFFCURVE",
"687 227 OFFCURVE",
"687 351 CURVE SMOOTH",
"687 459 OFFCURVE",
"646 566 OFFCURVE",
"574 638 CURVE"
);
},
{
closed = 1;
nodes = (
"136 461.333 OFFCURVE",
"142.333 498.833 OFFCURVE",
"155 536.5 CURVE SMOOTH",
"180.333 611.833 OFFCURVE",
"236.667 668 OFFCURVE",
"322 668 CURVE SMOOTH",
"388 668 OFFCURVE",
"443.667 643.667 OFFCURVE",
"489 595 CURVE",
"207 159 LINE",
"159 232.333 OFFCURVE",
"136 333.333 OFFCURVE",
"136 424 CURVE SMOOTH"
);
},
{
closed = 1;
nodes = (
"343 43 OFFCURVE",
"287 67 OFFCURVE",
"241 115 CURVE",
"521 555 LINE",
"570.333 480.333 OFFCURVE",
"594 378.667 OFFCURVE",
"594 288 CURVE SMOOTH",
"594 250 OFFCURVE",
"587.667 212.333 OFFCURVE",
"575 175 CURVE SMOOTH",
"549.667 100.333 OFFCURVE",
"494.333 43 OFFCURVE",
"409 43 CURVE SMOOTH"
);
}
);
userData = {
assembly = "NPUSHB[ ]	/* 63 values pushed */\01226 24 2 2 1 45 44 31 30 27 15 6 3 2 14 13 12 3 0 3 3 74 25 3 2 1 4 1 72 0 2 2 1 91 0 1 1 42 75 4 1 3 3 0 91 0 0 0 43 0 76 38 38 38 47 38 46 41 42 41 5 7 23 \012CALL[ ]	/* CallFunction */";
};
width = 728;
}
);
leftKerningGroup = C;
note = Oslashacute;
rightKerningGroup = D;
unicode = 01FE;
},
{
glyphname = OE;
layers = (
{
layerId = "F9783665-9C0C-4F5A-9005-646D18F9330F";
paths = (
{
closed = 1;
nodes = (
"297.333 723 OFFCURVE",
"237.667 705.167 OFFCURVE",
"189 669.5 CURVE SMOOTH",
"91.667 598.167 OFFCURVE",
"45 477.667 OFFCURVE",
"45 351 CURVE SMOOTH",
"45 289.667 OFFCURVE",
"58.167 230.667 OFFCURVE",
"84.5 174 CURVE SMOOTH",
"137.167 60.667 OFFCURVE",
"240 -17 OFFCURVE",
"368 -17 CURVE SMOOTH",
"432.667 -17 OFFCURVE",
"489.333 -0.667 OFFCURVE",
"538 32 CURVE",
"571.333 4 OFFCURVE",
"618.333 -11 OFFCURVE",
"669 -11 CURVE SMOOTH",
"795.667 -11 OFFCURVE",
"913 70.667 OFFCURVE",
"977 180 CURVE",
"954 200 LINE",
"941.333 178 OFFCURVE",
"922.833 156.667 OFFCURVE",
"898.5 136 CURVE SMOOTH",
"849.833 94.667 OFFCURVE",
"783 66 OFFCURVE",
"715 66 CURVE SMOOTH",
"632.333 66 OFFCURVE",
"583 123 OFFCURVE",
"583 203 CURVE SMOOTH",
"583 309.667 OFFCURVE",
"693.333 387.333 OFFCURVE",
"808 422 CURVE",
"800 450 LINE",
"788 443.333 OFFCURVE",
"770.333 443 OFFCURVE",
"753 443 CURVE SMOOTH",
"684.52 443 OFFCURVE",
"615 494.55 OFFCURVE",
"615 560 CURVE SMOOTH",
"615 625.251 OFFCURVE",
"681.93 671 OFFCURVE",
"750 671 CURVE SMOOTH",
"798 671 OFFCURVE",
"834.667 644.667 OFFCURVE",
"872 606 CURVE",
"932 656 LINE",
"897.333 696.667 OFFCURVE",
"855 717 OFFCURVE",
"805 717 CURVE SMOOTH",
"726.333 717 OFFCURVE",
"633.333 682.333 OFFCURVE",
"588 621 CURVE",
"534.667 685 OFFCURVE",
"457.333 723 OFFCURVE",
"368 723 CURVE SMOOTH"
);
},
{
closed = 1;
nodes = (
"440.667 668 OFFCURVE",
"521 589.667 OFFCURVE",
"561 479 CURVE SMOOTH",
"575.667 436.333 OFFCURVE",
"612.667 405.333 OFFCURVE",
"662 392 CURVE",
"558 345.333 OFFCURVE",
"475 264 OFFCURVE",
"475 168 CURVE SMOOTH",
"475 132 OFFCURVE",
"484 99.333 OFFCURVE",
"502 70 CURVE",
"475.333 52 OFFCURVE",
"444.333 43 OFFCURVE",
"409 43 CURVE SMOOTH",
"347 43 OFFCURVE",
"295.5 62.833 OFFCURVE",
"254.5 102.5 CURVE SMOOTH",
"172.5 181.833 OFFCURVE",
"136 308 OFFCURVE",
"136 424 CURVE SMOOTH",
"136 461.333 OFFCURVE",
"142.333 498.833 OFFCURVE",
"155 536.5 CURVE SMOOTH",
"180.333 611.833 OFFCURVE",
"236.667 668 OFFCURVE",
"322 668 CURVE SMOOTH"
);
}
);
userData = {
assembly = "NPUSHB[ ]	/* 20 values pushed */\01222 8 7 2 4 2 1 65 60 34 33 4 3 2 40 1 4 7 3 74 \012MPPEM[ ]	/* MeasurePixelPerEm */\012PUSHB[ ]	/* 1 value pushed */\01240 \012LT[ ]	/* LessThan */\012IF[ ]	/* If */\012NPUSHB[ ]	/* 45 values pushed */\0120 2 1 3 1 2 3 112 10 8 2 1 1 0 91 9 6 2 0 0 42 75 0 3 3 4 92 5 1 4 4 43 75 0 7 7 4 91 5 1 4 4 43 4 76 \012ELSE[ ]	/* Else */\012NPUSHB[ ]	/* 54 values pushed */\0120 2 1 3 1 2 3 112 10 8 2 1 1 6 91 9 1 6 6 42 75 10 8 2 1 1 0 91 0 0 0 42 75 0 3 3 4 92 0 4 4 43 75 0 7 7 5 91 0 5 5 43 5 76 \012EIF[ ]	/* EndIf */\012NPUSHB[ ]	/* 23 values pushed */\01251 51 0 0 51 71 51 70 59 57 0 50 0 49 35 38 40 38 36 36 11 7 26 \012CALL[ ]	/* CallFunction */";
};
width = 984;
}
);
leftKerningGroup = C;
note = OE;
rightKerningGroup = AE;
unicode = 0152;
},
{
glyphname = P;
layers = (
{
layerId = "F9783665-9C0C-4F5A-9005-646D18F9330F";
paths = (
{
closed = 1;
nodes = (
"266.667 715 OFFCURVE",
"126.333 649.667 OFFCURVE",
"29 559 CURVE",
"48 538 LINE",
"124 607.333 OFFCURVE",
"235 655 OFFCURVE",
"327 655 CURVE SMOOTH",
"445.667 655 OFFCURVE",
"507 590 OFFCURVE",
"507 490 CURVE SMOOTH",
"507 444 OFFCURVE",
"493.5 402.167 OFFCURVE",
"466.5 364.5 CURVE SMOOTH",
"412.5 289.167 OFFCURVE",
"320.333 240.333 OFFCURVE",
"231 231 CURVE",
"226 204 LINE",
"227.333 202.667 OFFCURVE",
"231 202 OFFCURVE",
"237 202 CURVE SMOOTH",
"294.333 202 OFFCURVE",
"351.5 216 OFFCURVE",
"408.5 244 CURVE SMOOTH",
"522.5 300 OFFCURVE",
"604 399.667 OFFCURVE",
"604 509 CURVE SMOOTH",
"604 646.333 OFFCURVE",
"514.667 715 OFFCURVE",
"388 715 CURVE SMOOTH"
);
},
{
closed = 1;
nodes = (
"185 22 LINE",
"185 570 LINE",
"93 534 LINE",
"93 -13 LINE"
);
}
);
userData = {
assembly = "NPUSHB[ ]	/* 14 values pushed */\01227 26 20 19 4 0 1 1 74 25 24 2 0 71 \012MPPEM[ ]	/* MeasurePixelPerEm */\012PUSHB[ ]	/* 1 value pushed */\01245 \012LT[ ]	/* LessThan */\012IF[ ]	/* If */\012NPUSHB[ ]	/* 17 values pushed */\0120 0 1 0 115 0 1 1 2 91 3 1 2 2 42 1 76 \012ELSE[ ]	/* Else */\012NPUSHB[ ]	/* 23 values pushed */\0120 0 1 0 115 3 1 2 1 1 2 87 3 1 2 2 1 91 0 1 2 1 79 \012EIF[ ]	/* EndIf */\012NPUSHB[ ]	/* 11 values pushed */\0120 0 0 23 0 22 40 37 4 7 22 \012CALL[ ]	/* CallFunction */";
};
width = 620;
}
);
leftKerningGroup = B;
note = P;
rightKerningGroup = P;
unicode = 0050;
},
{
glyphname = Thorn;
layers = (
{
layerId = "F9783665-9C0C-4F5A-9005-646D18F9330F";
paths = (
{
closed = 1;
nodes = (
"322.333 625 OFFCURVE",
"254 608 OFFCURVE",
"184 574 CURVE",
"184 730 LINE",
"91 694 LINE",
"91 519 LINE",
"69 503 OFFCURVE",
"48.333 486.333 OFFCURVE",
"29 469 CURVE",
"48 449 LINE",
"56.667 457 OFFCURVE",
"71 468.333 OFFCURVE",
"91 483 CURVE",
"91 -39 LINE",
"184 -3 LINE",
"184 534 LINE",
"236 555.333 OFFCURVE",
"284 566 OFFCURVE",
"328 566 CURVE SMOOTH",
"446.667 566 OFFCURVE",
"508 501 OFFCURVE",
"508 401 CURVE SMOOTH",
"508 354.333 OFFCURVE",
"494.5 312.167 OFFCURVE",
"467.5 274.5 CURVE SMOOTH",
"413.5 199.167 OFFCURVE",
"321.667 151.667 OFFCURVE",
"231 141 CURVE",
"226 115 LINE",
"228 113.667 OFFCURVE",
"232 113 OFFCURVE",
"238 113 CURVE SMOOTH",
"295.333 113 OFFCURVE",
"352.5 126.833 OFFCURVE",
"409.5 154.5 CURVE SMOOTH",
"523.5 209.833 OFFCURVE",
"605 310.667 OFFCURVE",
"605 420 CURVE SMOOTH",
"605 556 OFFCURVE",
"515.667 625 OFFCURVE",
"389 625 CURVE SMOOTH"
);
}
);
userData = {
assembly = "NPUSHB[ ]	/* 58 values pushed */\01229 1 1 2 26 24 23 21 18 5 0 1 2 74 28 27 2 2 72 20 19 2 0 71 0 0 1 0 115 3 1 2 1 1 2 87 3 1 2 2 1 91 0 1 2 1 79 0 0 0 31 0 30 40 37 4 7 22 \012CALL[ ]	/* CallFunction */";
};
width = 619;
}
);
leftKerningGroup = B;
note = Thorn;
rightKerningGroup = Thorn;
unicode = 00DE;
},
{
glyphname = Q;
layers = (
{
layerId = "F9783665-9C0C-4F5A-9005-646D18F9330F";
paths = (
{
closed = 1;
nodes = (
"572.667 -40 OFFCURVE",
"548.333 -23 OFFCURVE",
"515 17 CURVE",
"627 77 OFFCURVE",
"687 211 OFFCURVE",
"687 351 CURVE SMOOTH",
"687 413.667 OFFCURVE",
"673.833 473.667 OFFCURVE",
"647.5 531 CURVE SMOOTH",
"594.833 645.667 OFFCURVE",
"494.667 723 OFFCURVE",
"368 723 CURVE SMOOTH",
"297.333 723 OFFCURVE",
"237.667 705.167 OFFCURVE",
"189 669.5 CURVE SMOOTH",
"91.667 598.167 OFFCURVE",
"45 477.667 OFFCURVE",
"45 351 CURVE SMOOTH",
"45 289.667 OFFCURVE",
"58.167 230.667 OFFCURVE",
"84.5 174 CURVE SMOOTH",
"137.167 60.667 OFFCURVE",
"240 -17 OFFCURVE",
"368 -17 CURVE SMOOTH",
"390.667 -17 OFFCURVE",
"410 -15.667 OFFCURVE",
"426 -13 CURVE",
"475.333 -77 OFFCURVE",
"514.667 -101 OFFCURVE",
"568 -101 CURVE SMOOTH",
"607.333 -101 OFFCURVE",
"641.333 -82 OFFCURVE",
"670 -44 CURVE",
"650 -24 LINE",
"635.333 -34.667 OFFCURVE",
"618 -40 OFFCURVE",
"598 -40 CURVE SMOOTH"
);
},
{
closed = 1;
nodes = (
"136 461.333 OFFCURVE",
"142.333 498.833 OFFCURVE",
"155 536.5 CURVE SMOOTH",
"180.333 611.833 OFFCURVE",
"236.667 668 OFFCURVE",
"322 668 CURVE SMOOTH",
"384 668 OFFCURVE",
"435.5 648.167 OFFCURVE",
"476.5 608.5 CURVE SMOOTH",
"558.5 529.167 OFFCURVE",
"594 401.333 OFFCURVE",
"594 288 CURVE SMOOTH",
"594 194.667 OFFCURVE",
"557.667 96.333 OFFCURVE",
"483 59 CURVE",
"460 92 LINE SMOOTH",
"401.333 180 OFFCURVE",
"357 213 OFFCURVE",
"297 213 CURVE SMOOTH",
"261.667 213 OFFCURVE",
"230.333 197 OFFCURVE",
"203 165 CURVE",
"159 238.333 OFFCURVE",
"136 336 OFFCURVE",
"136 424 CURVE SMOOTH"
);
},
{
closed = 1;
nodes = (
"234 148 OFFCURVE",
"249.333 152 OFFCURVE",
"266 152 CURVE SMOOTH",
"283.333 152 OFFCURVE",
"301 143.833 OFFCURVE",
"319 127.5 CURVE SMOOTH",
"337 111.167 OFFCURVE",
"360 83 OFFCURVE",
"388 43 CURVE",
"320 49.667 OFFCURVE",
"264 82 OFFCURVE",
"220 140 CURVE"
);
}
);
userData = {
assembly = "NPUSHB[ ]	/* 71 values pushed */\01230 1 6 4 54 49 36 24 4 1 6 1 1 3 1 2 1 0 3 4 74 0 4 0 6 1 4 6 99 7 1 3 0 0 3 0 95 0 5 5 2 91 0 2 2 42 75 0 1 1 43 1 76 0 0 53 51 44 42 33 31 0 27 0 26 38 35 35 8 7 23 \012CALL[ ]	/* CallFunction */";
};
width = 728;
}
);
leftKerningGroup = C;
note = Q;
rightKerningGroup = D;
unicode = 0051;
},
{
glyphname = R;
layers = (
{
layerId = "F9783665-9C0C-4F5A-9005-646D18F9330F";
paths = (
{
closed = 1;
nodes = (
"266.667 715 OFFCURVE",
"126.333 649.667 OFFCURVE",
"29 559 CURVE",
"48 538 LINE",
"124 607.333 OFFCURVE",
"235 655 OFFCURVE",
"327 655 CURVE SMOOTH",
"445.667 655 OFFCURVE",
"507 590 OFFCURVE",
"507 490 CURVE SMOOTH",
"507 444 OFFCURVE",
"494.333 402 OFFCURVE",
"469 364 CURVE SMOOTH",
"418.333 288 OFFCURVE",
"330.333 240.333 OFFCURVE",
"241 231 CURVE",
"235 204 LINE",
"355 57 LINE SMOOTH",
"395 6.333 OFFCURVE",
"426.667 -16 OFFCURVE",
"464 -16 CURVE SMOOTH",
"538.917 -16 OFFCURVE",
"588.97 63.463 OFFCURVE",
"623 106 CURVE",
"608 119 LINE",
"573.333 84.333 OFFCURVE",
"540 57 OFFCURVE",
"508 57 CURVE SMOOTH",
"488.667 57 OFFCURVE",
"469.333 66 OFFCURVE",
"450 84 CURVE",
"341 217 LINE",
"387.667 229.667 OFFCURVE",
"431 250.5 OFFCURVE",
"471 279.5 CURVE SMOOTH",
"551 337.5 OFFCURVE",
"604 419.667 OFFCURVE",
"604 509 CURVE SMOOTH",
"604 646.333 OFFCURVE",
"514.667 715 OFFCURVE",
"388 715 CURVE SMOOTH"
);
},
{
closed = 1;
nodes = (
"182 22 LINE",
"182 570 LINE",
"90 535 LINE",
"90 -15 LINE"
);
}
);
userData = {
assembly = "NPUSHB[ ]	/* 18 values pushed */\01240 39 33 32 21 13 12 6 8 0 2 38 37 2 1 0 2 74 \012MPPEM[ ]	/* MeasurePixelPerEm */\012PUSHB[ ]	/* 1 value pushed */\01245 \012LT[ ]	/* LessThan */\012IF[ ]	/* If */\012NPUSHB[ ]	/* 22 values pushed */\0120 2 2 3 91 4 1 3 3 42 75 0 0 0 1 91 0 1 1 43 1 76 \012ELSE[ ]	/* Else */\012NPUSHB[ ]	/* 20 values pushed */\0124 1 3 0 2 0 3 2 99 0 0 0 1 91 0 1 1 43 1 76 \012EIF[ ]	/* EndIf */\012NPUSHB[ ]	/* 12 values pushed */\0120 0 0 36 0 35 42 38 40 5 7 23 \012CALL[ ]	/* CallFunction */";
};
width = 648;
}
);
leftKerningGroup = B;
note = R;
rightKerningGroup = R;
unicode = 0052;
},
{
glyphname = S;
layers = (
{
layerId = "F9783665-9C0C-4F5A-9005-646D18F9330F";
paths = (
{
closed = 1;
nodes = (
"254 728 OFFCURVE",
"210.333 718.167 OFFCURVE",
"171 698.5 CURVE SMOOTH",
"92.333 659.167 OFFCURVE",
"45 585.333 OFFCURVE",
"45 500 CURVE SMOOTH",
"45 459.333 OFFCURVE",
"55 424.833 OFFCURVE",
"75 396.5 CURVE SMOOTH",
"115 339.833 OFFCURVE",
"165.667 312.667 OFFCURVE",
"259 270 CURVE SMOOTH",
"322.607 241.088 OFFCURVE",
"421 174.755 OFFCURVE",
"421 120 CURVE SMOOTH",
"421 69.333 OFFCURVE",
"374.333 35 OFFCURVE",
"317 35 CURVE SMOOTH",
"255.667 35 OFFCURVE",
"184.333 75.333 OFFCURVE",
"139 182 CURVE",
"61 95 LINE",
"109 23 OFFCURVE",
"195.667 -12 OFFCURVE",
"285 -12 CURVE SMOOTH",
"406.333 -12 OFFCURVE",
"490.333 53 OFFCURVE",
"489 169 CURVE",
"489 200.333 OFFCURVE",
"481 226.667 OFFCURVE",
"465 248 CURVE SMOOTH",
"433 290.667 OFFCURVE",
"392 311 OFFCURVE",
"312 347 CURVE SMOOTH",
"270 365.667 OFFCURVE",
"236.667 382.333 OFFCURVE",
"212 397 CURVE SMOOTH",
"162.667 426.333 OFFCURVE",
"123 473 OFFCURVE",
"123 545 CURVE SMOOTH",
"123 622.333 OFFCURVE",
"173.333 677 OFFCURVE",
"260 677 CURVE SMOOTH",
"350.667 677 OFFCURVE",
"418.667 608.333 OFFCURVE",
"452 515 CURVE",
"530 611 LINE",
"475.333 685.667 OFFCURVE",
"391.333 728 OFFCURVE",
"302 728 CURVE SMOOTH"
);
}
);
userData = {
assembly = "NPUSHB[ ]	/* 43 values pushed */\01224 23 3 2 4 2 0 1 74 0 0 0 3 91 4 1 3 3 42 75 0 2 2 1 91 0 1 1 43 1 76 0 0 0 42 0 41 37 44 37 5 7 23 \012CALL[ ]	/* CallFunction */";
};
width = 553;
}
);
leftKerningGroup = S;
note = S;
rightKerningGroup = S;
unicode = 0053;
},
{
glyphname = Scedilla;
layers = (
{
layerId = "F9783665-9C0C-4F5A-9005-646D18F9330F";
paths = (
{
closed = 1;
nodes = (
"123 622.333 OFFCURVE",
"173.333 677 OFFCURVE",
"260 677 CURVE SMOOTH",
"350.667 677 OFFCURVE",
"418.667 608.333 OFFCURVE",
"452 515 CURVE",
"530 611 LINE",
"475.333 685.667 OFFCURVE",
"391.333 728 OFFCURVE",
"302 728 CURVE SMOOTH",
"254 728 OFFCURVE",
"210.333 718.167 OFFCURVE",
"171 698.5 CURVE SMOOTH",
"92.333 659.167 OFFCURVE",
"45 585.333 OFFCURVE",
"45 500 CURVE SMOOTH",
"45 459.333 OFFCURVE",
"55 424.833 OFFCURVE",
"75 396.5 CURVE SMOOTH",
"115 339.833 OFFCURVE",
"165.667 312.667 OFFCURVE",
"259 270 CURVE SMOOTH",
"322.607 241.088 OFFCURVE",
"421 174.755 OFFCURVE",
"421 120 CURVE SMOOTH",
"421 69.333 OFFCURVE",
"374.333 35 OFFCURVE",
"317 35 CURVE SMOOTH",
"255.667 35 OFFCURVE",
"184.333 75.333 OFFCURVE",
"139 182 CURVE",
"61 95 LINE",
"103.667 32.333 OFFCURVE",
"174.667 -3 OFFCURVE",
"252 -11 CURVE",
"220 -66 LINE",
"237 -80 LINE",
"247 -73.333 OFFCURVE",
"257.333 -70 OFFCURVE",
"268 -70 CURVE SMOOTH",
"292 -70 OFFCURVE",
"311 -89.333 OFFCURVE",
"311 -116 CURVE SMOOTH",
"311 -141.333 OFFCURVE",
"294.667 -160 OFFCURVE",
"272 -160 CURVE SMOOTH",
"256.667 -160 OFFCURVE",
"244 -153 OFFCURVE",
"234 -139 CURVE",
"215 -150 LINE",
"231 -180.667 OFFCURVE",
"262 -198 OFFCURVE",
"294 -198 CURVE SMOOTH",
"339.333 -198 OFFCURVE",
"381 -165.333 OFFCURVE",
"381 -116 CURVE SMOOTH",
"381 -66.667 OFFCURVE",
"347.667 -36 OFFCURVE",
"305 -36 CURVE SMOOTH",
"289 -36 OFFCURVE",
"272.333 -40.333 OFFCURVE",
"255 -49 CURVE",
"277 -12 LINE",
"285 -12 LINE SMOOTH",
"406.333 -12 OFFCURVE",
"490.333 53 OFFCURVE",
"489 169 CURVE",
"489 200.333 OFFCURVE",
"481 226.667 OFFCURVE",
"465 248 CURVE SMOOTH",
"433 290.667 OFFCURVE",
"392 311 OFFCURVE",
"312 347 CURVE SMOOTH",
"270 365.667 OFFCURVE",
"236.667 382.333 OFFCURVE",
"212 397 CURVE SMOOTH",
"162.667 426.333 OFFCURVE",
"123 473 OFFCURVE",
"123 545 CURVE SMOOTH"
);
}
);
userData = {
assembly = "NPUSHB[ ]	/* 24 values pushed */\01262 61 40 39 4 5 7 36 1 0 5 35 12 2 4 1 34 24 23 3 3 4 4 74 \012MPPEM[ ]	/* MeasurePixelPerEm */\012PUSHB[ ]	/* 1 value pushed */\01218 \012LT[ ]	/* LessThan */\012IF[ ]	/* If */\012NPUSHB[ ]	/* 41 values pushed */\0120 1 0 4 5 1 104 0 4 3 0 4 102 0 3 0 2 3 2 95 0 7 7 6 91 0 6 6 42 75 0 5 5 0 91 0 0 0 43 0 76 \012ELSE[ ]	/* Else */\012MPPEM[ ]	/* MeasurePixelPerEm */\012PUSHB[ ]	/* 1 value pushed */\01222 \012LT[ ]	/* LessThan */\012IF[ ]	/* If */\012NPUSHB[ ]	/* 42 values pushed */\0120 1 0 4 0 1 4 112 0 4 3 0 4 102 0 3 0 2 3 2 95 0 7 7 6 91 0 6 6 42 75 0 5 5 0 91 0 0 0 43 0 76 \012ELSE[ ]	/* Else */\012NPUSHB[ ]	/* 43 values pushed */\0120 1 0 4 0 1 4 112 0 4 3 0 4 3 110 0 3 0 2 3 2 95 0 7 7 6 91 0 6 6 42 75 0 5 5 0 91 0 0 0 43 0 76 \012EIF[ ]	/* EndIf */\012EIF[ ]	/* EndIf */\012NPUSHB[ ]	/* 11 values pushed */\01237 45 41 36 36 36 35 25 8 7 28 \012CALL[ ]	/* CallFunction */";
};
width = 553;
}
);
leftKerningGroup = S;
note = Scedilla;
rightKerningGroup = S;
unicode = 015E;
},
{
glyphname = T;
layers = (
{
layerId = "F9783665-9C0C-4F5A-9005-646D18F9330F";
paths = (
{
closed = 1;
nodes = (
"522 739 LINE",
"484.667 705.667 OFFCURVE",
"394 699 OFFCURVE",
"298 699 CURVE SMOOTH",
"215 699 LINE SMOOTH",
"137.667 699 OFFCURVE",
"62.667 653.333 OFFCURVE",
"-4 572 CURVE",
"15 557 LINE",
"49.667 595.667 OFFCURVE",
"82.333 613 OFFCURVE",
"133 613 CURVE SMOOTH",
"271 612 LINE",
"221.667 572 OFFCURVE",
"186 515 OFFCURVE",
"186 455 CURVE SMOOTH",
"186 97 LINE SMOOTH",
"186 61 OFFCURVE",
"176 21.667 OFFCURVE",
"156 -1 CURVE",
"177 -21 LINE",
"247.667 33.667 OFFCURVE",
"278 83 OFFCURVE",
"278 187 CURVE SMOOTH",
"278 513 LINE SMOOTH",
"278 553 OFFCURVE",
"289.333 578.667 OFFCURVE",
"316 612 CURVE",
"398.667 612 OFFCURVE",
"481 660 OFFCURVE",
"533 728 CURVE"
);
}
);
userData = {
assembly = "NPUSHB[ ]	/* 34 values pushed */\01230 1 2 72 23 22 11 10 4 0 71 0 2 0 0 2 87 0 2 2 0 91 1 1 0 2 0 79 53 47 18 3 7 23 \012CALL[ ]	/* CallFunction */";
};
width = 500;
}
);
leftKerningGroup = T;
note = T;
rightKerningGroup = T;
unicode = 0054;
},
{
glyphname = Tbar;
layers = (
{
layerId = "F9783665-9C0C-4F5A-9005-646D18F9330F";
paths = (
{
closed = 1;
nodes = (
"398.667 612 OFFCURVE",
"481 660 OFFCURVE",
"533 728 CURVE",
"522 739 LINE",
"484.667 705.667 OFFCURVE",
"394 699 OFFCURVE",
"298 699 CURVE SMOOTH",
"215 699 LINE SMOOTH",
"137.667 699 OFFCURVE",
"62.667 653.333 OFFCURVE",
"-4 572 CURVE",
"15 557 LINE",
"49.667 595.667 OFFCURVE",
"82.333 613 OFFCURVE",
"133 613 CURVE SMOOTH",
"271 612 LINE",
"221.667 572 OFFCURVE",
"186 515 OFFCURVE",
"186 455 CURVE SMOOTH",
"186 384 LINE",
"115 384 LINE",
"92 333 LINE",
"186 333 LINE",
"186 97 LINE SMOOTH",
"186 61 OFFCURVE",
"176 21.667 OFFCURVE",
"156 -1 CURVE",
"177 -21 LINE",
"247.667 33.667 OFFCURVE",
"278 83 OFFCURVE",
"278 187 CURVE SMOOTH",
"278 333 LINE",
"344 333 LINE",
"370 384 LINE",
"278 384 LINE",
"278 513 LINE SMOOTH",
"278 553 OFFCURVE",
"289.333 578.667 OFFCURVE",
"316 612 CURVE"
);
}
);
userData = {
assembly = "NPUSHB[ ]	/* 55 values pushed */\01227 26 2 0 4 1 74 35 34 2 5 72 11 10 2 1 71 0 5 6 1 4 0 5 4 99 3 1 0 1 1 0 85 3 1 0 0 1 89 2 1 1 0 1 77 21 53 36 17 25 17 19 7 7 27 \012CALL[ ]	/* CallFunction */";
};
width = 500;
}
);
leftKerningGroup = T;
note = Tbar;
rightKerningGroup = T;
unicode = 0166;
},
{
glyphname = U;
layers = (
{
layerId = "F9783665-9C0C-4F5A-9005-646D18F9330F";
paths = (
{
closed = 1;
nodes = (
"506 713 LINE",
"413 679 LINE",
"413 368 LINE SMOOTH",
"413 331.333 OFFCURVE",
"407.167 287.5 OFFCURVE",
"395.5 236.5 CURVE SMOOTH",
"372.167 134.5 OFFCURVE",
"323 45 OFFCURVE",
"247 45 CURVE SMOOTH",
"178.971 45 OFFCURVE",
"176 107.34 OFFCURVE",
"176 174 CURVE SMOOTH",
"176 713 LINE",
"83 680 LINE",
"83 134 LINE SMOOTH",
"83 51.333 OFFCURVE",
"125 -9 OFFCURVE",
"205 -9 CURVE SMOOTH",
"314.333 -9 OFFCURVE",
"383.667 77.667 OFFCURVE",
"413 187 CURVE",
"413 117 LINE SMOOTH",
"413 38.333 OFFCURVE",
"454.333 -5 OFFCURVE",
"513 -5 CURVE SMOOTH",
"565 -5 OFFCURVE",
"607 28 OFFCURVE",
"623 68 CURVE",
"610 81 LINE",
"596.667 61 OFFCURVE",
"571.333 45 OFFCURVE",
"550 45 CURVE SMOOTH",
"522 45 OFFCURVE",
"506 69.667 OFFCURVE",
"506 107 CURVE SMOOTH"
);
}
);
userData = {
assembly = "NPUSHB[ ]	/* 30 values pushed */\01233 32 22 21 14 7 6 7 0 72 3 1 0 0 1 91 2 1 1 1 46 1 76 40 37 37 34 4 7 24 \012CALL[ ]	/* CallFunction */";
};
width = 632;
}
);
leftKerningGroup = U;
note = U;
rightKerningGroup = U;
unicode = 0055;
},
{
glyphname = Uogonek;
layers = (
{
layerId = "F9783665-9C0C-4F5A-9005-646D18F9330F";
paths = (
{
closed = 1;
nodes = (
"519.333 -139 OFFCURVE",
"504 -120.333 OFFCURVE",
"504 -91 CURVE SMOOTH",
"504 -60.333 OFFCURVE",
"520.667 -25.667 OFFCURVE",
"550 1 CURVE",
"584.667 11.667 OFFCURVE",
"611 38.667 OFFCURVE",
"623 68 CURVE",
"610 81 LINE",
"596.667 61 OFFCURVE",
"571.333 45 OFFCURVE",
"550 45 CURVE SMOOTH",
"522 45 OFFCURVE",
"506 69.667 OFFCURVE",
"506 107 CURVE SMOOTH",
"506 713 LINE",
"413 679 LINE",
"413 368 LINE SMOOTH",
"413 331.333 OFFCURVE",
"407.167 287.5 OFFCURVE",
"395.5 236.5 CURVE SMOOTH",
"372.167 134.5 OFFCURVE",
"323 45 OFFCURVE",
"247 45 CURVE SMOOTH",
"178.971 45 OFFCURVE",
"176 107.34 OFFCURVE",
"176 174 CURVE SMOOTH",
"176 713 LINE",
"83 680 LINE",
"83 134 LINE SMOOTH",
"83 51.333 OFFCURVE",
"125 -9 OFFCURVE",
"205 -9 CURVE SMOOTH",
"314.333 -9 OFFCURVE",
"383.667 77.667 OFFCURVE",
"413 187 CURVE",
"413 117 LINE SMOOTH",
"413 39.667 OFFCURVE",
"452.667 -2.333 OFFCURVE",
"510 -5 CURVE",
"465.333 -41 OFFCURVE",
"443 -80 OFFCURVE",
"443 -122 CURVE SMOOTH",
"443 -171.333 OFFCURVE",
"482 -197 OFFCURVE",
"522 -197 CURVE SMOOTH",
"559.333 -197 OFFCURVE",
"592 -169.333 OFFCURVE",
"616 -128 CURVE",
"599 -113 LINE",
"585.667 -130.333 OFFCURVE",
"569.333 -139 OFFCURVE",
"550 -139 CURVE SMOOTH"
);
}
);
userData = {
assembly = "MPPEM[ ]	/* MeasurePixelPerEm */\012PUSHB[ ]	/* 1 value pushed */\01245 \012LT[ ]	/* LessThan */\012IF[ ]	/* If */\012NPUSHB[ ]	/* 17 values pushed */\0122 1 2 5 1 1 74 41 40 33 32 22 21 14 7 3 72 \012ELSE[ ]	/* Else */\012NPUSHB[ ]	/* 17 values pushed */\0122 1 2 5 2 1 74 41 40 33 32 22 21 14 7 3 72 \012EIF[ ]	/* EndIf */\012MPPEM[ ]	/* MeasurePixelPerEm */\012PUSHB[ ]	/* 1 value pushed */\01245 \012LT[ ]	/* LessThan */\012IF[ ]	/* If */\012NPUSHB[ ]	/* 21 values pushed */\0126 1 5 0 0 5 0 96 4 1 3 3 1 91 2 1 1 1 46 1 76 \012ELSE[ ]	/* Else */\012NPUSHB[ ]	/* 25 values pushed */\0126 1 5 0 0 5 0 96 0 1 1 46 75 4 1 3 3 2 91 0 2 2 46 2 76 \012EIF[ ]	/* EndIf */\012NPUSHB[ ]	/* 14 values pushed */\0120 0 0 50 0 49 40 40 37 20 36 7 7 25 \012CALL[ ]	/* CallFunction */";
};
width = 632;
}
);
leftKerningGroup = U;
note = Uogonek;
rightKerningGroup = U;
unicode = 0172;
},
{
glyphname = V;
layers = (
{
layerId = "F9783665-9C0C-4F5A-9005-646D18F9330F";
paths = (
{
closed = 1;
nodes = (
"394 689 LINE",
"454 643.667 OFFCURVE",
"484 591 OFFCURVE",
"484 531 CURVE SMOOTH",
"484 493.667 OFFCURVE",
"471 462.667 OFFCURVE",
"443 392 CURVE",
"323 141 LINE",
"92 712 LINE",
"1 665 LINE",
"294 -32 LINE",
"517 451 LINE SMOOTH",
"547.667 516.333 OFFCURVE",
"563 572.333 OFFCURVE",
"563 619 CURVE SMOOTH",
"563 677.667 OFFCURVE",
"530.667 741 OFFCURVE",
"476 777 CURVE"
);
}
);
userData = {
assembly = "PUSHB[ ]	/* 4 values pushed */\01215 5 1 48 \012CALL[ ]	/* CallFunction */";
};
width = 578;
}
);
leftKerningGroup = V;
note = V;
rightKerningGroup = V;
unicode = 0056;
},
{
glyphname = W;
layers = (
{
layerId = "F9783665-9C0C-4F5A-9005-646D18F9330F";
paths = (
{
closed = 1;
nodes = (
"602 689 LINE",
"658.667 643 OFFCURVE",
"687 590 OFFCURVE",
"687 530 CURVE SMOOTH",
"687 494 OFFCURVE",
"672.667 448 OFFCURVE",
"650 392 CURVE SMOOTH",
"548 161 LINE",
"369 667 LINE",
"272 631 LINE",
"363 387 LINE",
"285 180 LINE",
"94 712 LINE",
"-1 677 LINE",
"258 -24 LINE",
"386 323 LINE",
"515 -24 LINE",
"723 453 LINE SMOOTH",
"747 507.667 OFFCURVE",
"764 568.333 OFFCURVE",
"764 619 CURVE SMOOTH",
"764 677.667 OFFCURVE",
"734.667 739.667 OFFCURVE",
"684 777 CURVE"
);
}
);
userData = {
assembly = "PUSHB[ ]	/* 4 values pushed */\01222 6 1 48 \012CALL[ ]	/* CallFunction */";
};
width = 789;
}
);
leftKerningGroup = W;
note = W;
rightKerningGroup = W;
unicode = 0057;
},
{
glyphname = X;
layers = (
{
layerId = "F9783665-9C0C-4F5A-9005-646D18F9330F";
paths = (
{
closed = 1;
nodes = (
"474 -21 LINE",
"564 13 LINE",
"316 389 LINE",
"373.333 521 OFFCURVE",
"425.667 594 OFFCURVE",
"507 594 CURVE",
"517 593 LINE",
"546 714 LINE",
"506 714 OFFCURVE",
"470.833 701.167 OFFCURVE",
"440.5 675.5 CURVE SMOOTH",
"379.833 624.167 OFFCURVE",
"340.333 547 OFFCURVE",
"291 427 CURVE",
"105 710 LINE",
"15 675 LINE",
"248 321 LINE",
"185.333 177 OFFCURVE",
"133 98 OFFCURVE",
"49 98 CURVE SMOOTH",
"47.667 98 OFFCURVE",
"42.667 98.667 OFFCURVE",
"40 100 CURVE",
"11 -21 LINE",
"52.333 -21 OFFCURVE",
"88.5 -7.167 OFFCURVE",
"119.5 20.5 CURVE SMOOTH",
"181.5 75.833 OFFCURVE",
"220 154.667 OFFCURVE",
"272 284 CURVE"
);
}
);
userData = {
assembly = "NPUSHB[ ]	/* 18 values pushed */\01214 13 2 3 2 24 15 12 1 4 1 3 25 1 0 1 3 74 \012MPPEM[ ]	/* MeasurePixelPerEm */\012PUSHB[ ]	/* 1 value pushed */\01242 \012LT[ ]	/* LessThan */\012IF[ ]	/* If */\012NPUSHB[ ]	/* 21 values pushed */\0120 3 3 2 91 0 2 2 42 75 0 1 1 0 91 0 0 0 43 0 76 \012ELSE[ ]	/* Else */\012NPUSHB[ ]	/* 19 values pushed */\0120 2 0 3 1 2 3 99 0 1 1 0 91 0 0 0 43 0 76 \012EIF[ ]	/* EndIf */\012PUSHB[ ]	/* 7 values pushed */\01218 24 35 20 4 7 24 \012CALL[ ]	/* CallFunction */";
};
width = 573;
}
);
leftKerningGroup = X;
note = X;
rightKerningGroup = X;
unicode = 0058;
},
{
glyphname = Y;
layers = (
{
layerId = "F9783665-9C0C-4F5A-9005-646D18F9330F";
paths = (
{
closed = 1;
nodes = (
"443 180 LINE",
"443 -63 LINE SMOOTH",
"443 -116.804 OFFCURVE",
"411.243 -178 OFFCURVE",
"344 -178 CURVE SMOOTH",
"298.667 -178 OFFCURVE",
"255 -138.667 OFFCURVE",
"235 -100 CURVE",
"154 -168 LINE",
"196 -204.667 OFFCURVE",
"246.333 -223 OFFCURVE",
"305 -223 CURVE SMOOTH",
"351 -223 OFFCURVE",
"391.5 -211.667 OFFCURVE",
"426.5 -189 CURVE SMOOTH",
"496.5 -143.667 OFFCURVE",
"535 -63.333 OFFCURVE",
"535 26 CURVE SMOOTH",
"535 713 LINE",
"443 679 LINE",
"443 373 LINE SMOOTH",
"443 335.667 OFFCURVE",
"437.333 292 OFFCURVE",
"426 242 CURVE SMOOTH",
"403.333 142 OFFCURVE",
"354 54 OFFCURVE",
"278 54 CURVE SMOOTH",
"219.333 54 OFFCURVE",
"208 110.667 OFFCURVE",
"208 184 CURVE SMOOTH",
"208 582 LINE SMOOTH",
"208 646 OFFCURVE",
"166.333 704 OFFCURVE",
"97 704 CURVE SMOOTH",
"58.333 704 OFFCURVE",
"13.333 669.667 OFFCURVE",
"-4 631 CURVE",
"10 619 LINE",
"22 636.333 OFFCURVE",
"49 652 OFFCURVE",
"69 652 CURVE SMOOTH",
"101 652 OFFCURVE",
"115 626.667 OFFCURVE",
"115 592 CURVE SMOOTH",
"115 145 LINE SMOOTH",
"115 62.333 OFFCURVE",
"157.333 0 OFFCURVE",
"236 0 CURVE SMOOTH",
"342.667 0 OFFCURVE",
"408 74.667 OFFCURVE",
"440 180 CURVE"
);
}
);
userData = {
assembly = "NPUSHB[ ]	/* 21 values pushed */\01228 1 1 2 45 13 12 3 3 1 37 36 2 5 0 3 74 29 1 2 72 \012MPPEM[ ]	/* MeasurePixelPerEm */\012PUSHB[ ]	/* 1 value pushed */\01222 \012LT[ ]	/* LessThan */\012IF[ ]	/* If */\012NPUSHB[ ]	/* 28 values pushed */\0120 5 0 4 5 4 95 0 1 1 2 91 0 2 2 42 75 0 3 3 0 91 0 0 0 46 0 76 \012ELSE[ ]	/* Else */\012NPUSHB[ ]	/* 26 values pushed */\0120 2 0 1 3 2 1 99 0 5 0 4 5 4 95 0 3 3 0 91 0 0 0 46 0 76 \012EIF[ ]	/* EndIf */\012NPUSHB[ ]	/* 9 values pushed */\01236 41 37 37 37 33 6 7 26 \012CALL[ ]	/* CallFunction */";
};
width = 628;
}
);
leftKerningGroup = Y;
note = Y;
rightKerningGroup = Y;
unicode = 0059;
},
{
glyphname = Z;
layers = (
{
layerId = "F9783665-9C0C-4F5A-9005-646D18F9330F";
paths = (
{
closed = 1;
nodes = (
"551 707 LINE",
"532 726 LINE",
"505.333 703.333 OFFCURVE",
"473 699 OFFCURVE",
"409 699 CURVE SMOOTH",
"116 699 LINE",
"26 547 LINE",
"47 531 LINE",
"64.333 553 OFFCURVE",
"81.5 569 OFFCURVE",
"98.5 579 CURVE SMOOTH",
"132.5 599 OFFCURVE",
"175 603 OFFCURVE",
"275 603 CURVE SMOOTH",
"416 603 LINE",
"20 14 LINE",
"44 -8 LINE",
"81.333 16 OFFCURVE",
"140 31 OFFCURVE",
"184 31 CURVE SMOOTH",
"244 31 OFFCURVE",
"285 24 OFFCURVE",
"369 8 CURVE SMOOTH",
"382.333 5.333 OFFCURVE",
"439.333 -7 OFFCURVE",
"482 -11 CURVE",
"555 144 LINE",
"539 156 LINE",
"508.333 118.667 OFFCURVE",
"466 92 OFFCURVE",
"422 92 CURVE SMOOTH",
"394.667 92 OFFCURVE",
"365.667 94.333 OFFCURVE",
"335 99 CURVE SMOOTH",
"331 99.667 OFFCURVE",
"319.833 101 OFFCURVE",
"301.5 103 CURVE SMOOTH",
"283.167 105 OFFCURVE",
"262.667 106 OFFCURVE",
"240 106 CURVE SMOOTH",
"198 106 OFFCURVE",
"160 94 OFFCURVE",
"126 70 CURVE",
"123 73 LINE"
);
}
);
userData = {
assembly = "NPUSHB[ ]	/* 62 values pushed */\01231 30 13 12 4 0 3 1 1 2 1 2 74 36 1 4 72 23 14 2 2 71 0 1 0 2 0 1 2 112 0 4 0 3 0 4 3 99 0 0 1 2 0 87 0 0 0 2 91 0 2 0 2 79 37 36 41 35 35 5 7 25 \012CALL[ ]	/* CallFunction */";
};
width = 578;
}
);
leftKerningGroup = Z;
note = Z;
rightKerningGroup = Z;
unicode = 005A;
},
{
glyphname = a;
layers = (
{
layerId = "F9783665-9C0C-4F5A-9005-646D18F9330F";
paths = (
{
closed = 1;
nodes = (
"264.333 500 OFFCURVE",
"219.833 486.333 OFFCURVE",
"179.5 459 CURVE SMOOTH",
"98.833 404.333 OFFCURVE",
"49 307 OFFCURVE",
"49 203 CURVE SMOOTH",
"49 72.333 OFFCURVE",
"107.667 -12 OFFCURVE",
"221 -12 CURVE SMOOTH",
"283.667 -12 OFFCURVE",
"344.667 41.333 OFFCURVE",
"378 112 CURVE",
"380 112 LINE",
"380 41.333 OFFCURVE",
"406.667 -5 OFFCURVE",
"464 -5 CURVE SMOOTH",
"504 -5 OFFCURVE",
"550 30.667 OFFCURVE",
"566 76 CURVE",
"551 92 LINE",
"535 65.333 OFFCURVE",
"517.333 52 OFFCURVE",
"498 52 CURVE SMOOTH",
"479.333 52 OFFCURVE",
"470 71.667 OFFCURVE",
"470 89 CURVE SMOOTH",
"470 352 LINE",
"382 315 LINE",
"382 270 LINE SMOOTH",
"382 166 OFFCURVE",
"347.333 60 OFFCURVE",
"238 60 CURVE SMOOTH",
"160.667 60 OFFCURVE",
"126 132.667 OFFCURVE",
"126 238 CURVE SMOOTH",
"126 274.667 OFFCURVE",
"132.667 308 OFFCURVE",
"146 338 CURVE SMOOTH",
"172.667 398 OFFCURVE",
"225 436 OFFCURVE",
"293 436 CURVE SMOOTH",
"335.667 436 OFFCURVE",
"375.667 406.667 OFFCURVE",
"397 376 CURVE",
"469 415 LINE",
"442.333 472.333 OFFCURVE",
"378.333 500 OFFCURVE",
"313 500 CURVE SMOOTH"
);
}
);
userData = {
assembly = "NPUSHB[ ]	/* 12 values pushed */\01231 25 24 18 17 3 2 7 1 0 1 74 \012MPPEM[ ]	/* MeasurePixelPerEm */\012PUSHB[ ]	/* 1 value pushed */\01230 \012LT[ ]	/* LessThan */\012IF[ ]	/* If */\012NPUSHB[ ]	/* 24 values pushed */\0120 0 0 5 91 6 1 5 5 45 75 2 1 1 1 3 91 4 1 3 3 46 3 76 \012ELSE[ ]	/* Else */\012MPPEM[ ]	/* MeasurePixelPerEm */\012PUSHB[ ]	/* 1 value pushed */\01234 \012LT[ ]	/* LessThan */\012IF[ ]	/* If */\012NPUSHB[ ]	/* 34 values pushed */\0120 0 0 5 91 6 1 5 5 45 75 0 1 1 3 91 4 1 3 3 46 75 0 2 2 3 91 4 1 3 3 46 3 76 \012ELSE[ ]	/* Else */\012MPPEM[ ]	/* MeasurePixelPerEm */\012PUSHB[ ]	/* 1 value pushed */\01242 \012LT[ ]	/* LessThan */\012IF[ ]	/* If */\012NPUSHB[ ]	/* 32 values pushed */\0120 0 0 5 91 6 1 5 5 45 75 0 2 2 3 91 0 3 3 46 75 0 1 1 4 91 0 4 4 43 4 76 \012ELSE[ ]	/* Else */\012NPUSHB[ ]	/* 30 values pushed */\0126 1 5 0 0 1 5 0 99 0 2 2 3 91 0 3 3 46 75 0 1 1 4 91 0 4 4 43 4 76 \012EIF[ ]	/* EndIf */\012EIF[ ]	/* EndIf */\012EIF[ ]	/* EndIf */\012NPUSHB[ ]	/* 14 values pushed */\0120 0 0 42 0 41 37 36 39 37 37 7 7 25 \012CALL[ ]	/* CallFunction */";
};
width = 575;
}
);
leftKerningGroup = a;
note = a;
rightKerningGroup = a;
unicode = 0061;
},
{
glyphname = aogonek;
layers = (
{
layerId = "F9783665-9C0C-4F5A-9005-646D18F9330F";
paths = (
{
closed = 1;
nodes = (
"465.333 -137 OFFCURVE",
"450 -118.333 OFFCURVE",
"450 -89 CURVE SMOOTH",
"450 -59.667 OFFCURVE",
"467.333 -24.333 OFFCURVE",
"494 1 CURVE",
"526 13 OFFCURVE",
"554 42.667 OFFCURVE",
"566 76 CURVE",
"551 92 LINE",
"535 65.333 OFFCURVE",
"517.333 52 OFFCURVE",
"498 52 CURVE SMOOTH",
"479.333 52 OFFCURVE",
"470 71.667 OFFCURVE",
"470 89 CURVE SMOOTH",
"470 352 LINE",
"382 315 LINE",
"382 270 LINE SMOOTH",
"382 166 OFFCURVE",
"347.333 60 OFFCURVE",
"238 60 CURVE SMOOTH",
"160.667 60 OFFCURVE",
"126 132.667 OFFCURVE",
"126 238 CURVE SMOOTH",
"126 274.667 OFFCURVE",
"132.667 308 OFFCURVE",
"146 338 CURVE SMOOTH",
"172.667 398 OFFCURVE",
"225 436 OFFCURVE",
"293 436 CURVE SMOOTH",
"335.667 436 OFFCURVE",
"375.667 406.667 OFFCURVE",
"397 376 CURVE",
"469 415 LINE",
"442.333 472.333 OFFCURVE",
"378.333 500 OFFCURVE",
"313 500 CURVE SMOOTH",
"264.333 500 OFFCURVE",
"219.833 486.333 OFFCURVE",
"179.5 459 CURVE SMOOTH",
"98.833 404.333 OFFCURVE",
"49 307 OFFCURVE",
"49 203 CURVE SMOOTH",
"49 72.333 OFFCURVE",
"107.667 -12 OFFCURVE",
"221 -12 CURVE SMOOTH",
"283.667 -12 OFFCURVE",
"344.667 41.333 OFFCURVE",
"378 112 CURVE",
"380 112 LINE",
"380 46.667 OFFCURVE",
"403.333 1.333 OFFCURVE",
"454 -4 CURVE",
"410.667 -40.667 OFFCURVE",
"389 -79.333 OFFCURVE",
"389 -120 CURVE SMOOTH",
"389 -169.333 OFFCURVE",
"428 -195 OFFCURVE",
"468 -195 CURVE SMOOTH",
"505.333 -195 OFFCURVE",
"538 -167.333 OFFCURVE",
"562 -126 CURVE",
"545 -111 LINE",
"531.667 -128.333 OFFCURVE",
"515.333 -137 OFFCURVE",
"496 -137 CURVE SMOOTH"
);
}
);
userData = {
assembly = "MPPEM[ ]	/* MeasurePixelPerEm */\012PUSHB[ ]	/* 1 value pushed */\01230 \012LT[ ]	/* LessThan */\012IF[ ]	/* If */\012NPUSHB[ ]	/* 21 values pushed */\01250 49 43 42 28 27 13 7 4 3 10 1 1 4 2 1 2 6 1 3 74 \012ELSE[ ]	/* Else */\012NPUSHB[ ]	/* 21 values pushed */\01250 49 43 42 28 27 13 7 4 3 10 1 1 5 2 1 2 6 1 3 74 \012EIF[ ]	/* EndIf */\012MPPEM[ ]	/* MeasurePixelPerEm */\012PUSHB[ ]	/* 1 value pushed */\01230 \012LT[ ]	/* LessThan */\012IF[ ]	/* If */\012NPUSHB[ ]	/* 30 values pushed */\0127 1 6 0 0 6 0 96 0 3 3 2 91 0 2 2 45 75 5 1 4 4 1 91 0 1 1 43 1 76 \012ELSE[ ]	/* Else */\012MPPEM[ ]	/* MeasurePixelPerEm */\012PUSHB[ ]	/* 1 value pushed */\01242 \012LT[ ]	/* LessThan */\012IF[ ]	/* If */\012NPUSHB[ ]	/* 37 values pushed */\0120 5 4 1 4 5 1 112 7 1 6 0 0 6 0 96 0 3 3 2 91 0 2 2 45 75 0 4 4 1 91 0 1 1 43 1 76 \012ELSE[ ]	/* Else */\012NPUSHB[ ]	/* 35 values pushed */\0120 5 4 1 4 5 1 112 0 2 0 3 4 2 3 99 7 1 6 0 0 6 0 96 0 4 4 1 91 0 1 1 43 1 76 \012EIF[ ]	/* EndIf */\012EIF[ ]	/* EndIf */\012NPUSHB[ ]	/* 15 values pushed */\0120 0 0 59 0 58 39 37 37 37 42 36 8 7 26 \012CALL[ ]	/* CallFunction */";
};
width = 575;
}
);
leftKerningGroup = a;
note = aogonek;
rightKerningGroup = a;
unicode = 0105;
},
{
glyphname = ae;
layers = (
{
layerId = "F9783665-9C0C-4F5A-9005-646D18F9330F";
paths = (
{
closed = 1;
nodes = (
"807 140 LINE",
"749.667 92 OFFCURVE",
"693 53 OFFCURVE",
"637 53 CURVE SMOOTH",
"593 53 OFFCURVE",
"549.667 76 OFFCURVE",
"507 122 CURVE",
"538.333 134.667 OFFCURVE",
"576 156.667 OFFCURVE",
"620 188 CURVE SMOOTH",
"708 250.667 OFFCURVE",
"783 332.667 OFFCURVE",
"783 394 CURVE SMOOTH",
"783 470 OFFCURVE",
"730.667 509 OFFCURVE",
"660 509 CURVE SMOOTH",
"590.667 509 OFFCURVE",
"523.333 478.667 OFFCURVE",
"470 428 CURVE",
"424.667 468 OFFCURVE",
"358.333 500 OFFCURVE",
"305 500 CURVE SMOOTH",
"257 500 OFFCURVE",
"213 485.167 OFFCURVE",
"173 455.5 CURVE SMOOTH",
"93 396.167 OFFCURVE",
"44 292 OFFCURVE",
"44 188 CURVE SMOOTH",
"44 151.333 OFFCURVE",
"50.5 117.833 OFFCURVE",
"63.5 87.5 CURVE SMOOTH",
"89.5 26.833 OFFCURVE",
"143.333 -12 OFFCURVE",
"218 -12 CURVE SMOOTH",
"288.667 -12 OFFCURVE",
"351.667 32.333 OFFCURVE",
"385 127 CURVE",
"415.667 44.333 OFFCURVE",
"490.333 -12 OFFCURVE",
"581 -12 CURVE SMOOTH",
"670.333 -12 OFFCURVE",
"760.667 41.333 OFFCURVE",
"822 120 CURVE"
);
},
{
closed = 1;
nodes = (
"456 283.667 OFFCURVE",
"462.667 312.833 OFFCURVE",
"476 342.5 CURVE SMOOTH",
"502.667 401.833 OFFCURVE",
"550.667 446 OFFCURVE",
"608 446 CURVE SMOOTH",
"658.667 446 OFFCURVE",
"685 422.667 OFFCURVE",
"685 372 CURVE SMOOTH",
"685 347.333 OFFCURVE",
"674.333 320 OFFCURVE",
"653 290 CURVE SMOOTH",
"610.333 230 OFFCURVE",
"541.667 174.333 OFFCURVE",
"487 149 CURVE",
"466.333 182.333 OFFCURVE",
"456 217.667 OFFCURVE",
"456 255 CURVE SMOOTH"
);
},
{
closed = 1;
nodes = (
"217.333 60 OFFCURVE",
"193.667 69.833 OFFCURVE",
"175 89.5 CURVE SMOOTH",
"137.667 128.833 OFFCURVE",
"123 190 OFFCURVE",
"123 238 CURVE SMOOTH",
"123 274.667 OFFCURVE",
"129.667 308 OFFCURVE",
"143 338 CURVE SMOOTH",
"169.667 398 OFFCURVE",
"221.333 436 OFFCURVE",
"288 436 CURVE SMOOTH",
"329.333 436 OFFCURVE",
"373 403 OFFCURVE",
"373 343 CURVE SMOOTH",
"373 154.333 OFFCURVE",
"330.667 60 OFFCURVE",
"246 60 CURVE SMOOTH"
);
}
);
userData = {
assembly = "MPPEM[ ]	/* MeasurePixelPerEm */\012PUSHB[ ]	/* 1 value pushed */\01224 \012LT[ ]	/* LessThan */\012IF[ ]	/* If */\012NPUSHB[ ]	/* 10 values pushed */\01237 35 30 20 6 5 4 5 1 74 \012ELSE[ ]	/* Else */\012MPPEM[ ]	/* MeasurePixelPerEm */\012PUSHB[ ]	/* 1 value pushed */\01234 \012LT[ ]	/* LessThan */\012IF[ ]	/* If */\012NPUSHB[ ]	/* 10 values pushed */\01237 35 30 20 6 5 4 6 1 74 \012ELSE[ ]	/* Else */\012NPUSHB[ ]	/* 10 values pushed */\01237 35 30 20 6 5 7 6 1 74 \012EIF[ ]	/* EndIf */\012EIF[ ]	/* EndIf */\012MPPEM[ ]	/* MeasurePixelPerEm */\012PUSHB[ ]	/* 1 value pushed */\01224 \012LT[ ]	/* LessThan */\012IF[ ]	/* If */\012NPUSHB[ ]	/* 26 values pushed */\0126 1 5 5 2 91 3 1 2 2 45 75 8 7 2 4 4 0 91 1 1 0 0 43 0 76 \012ELSE[ ]	/* Else */\012MPPEM[ ]	/* MeasurePixelPerEm */\012PUSHB[ ]	/* 1 value pushed */\01226 \012LT[ ]	/* LessThan */\012IF[ ]	/* If */\012NPUSHB[ ]	/* 36 values pushed */\0120 5 5 2 91 3 1 2 2 45 75 0 6 6 2 91 3 1 2 2 45 75 8 7 2 4 4 0 91 1 1 0 0 43 0 76 \012ELSE[ ]	/* Else */\012MPPEM[ ]	/* MeasurePixelPerEm */\012PUSHB[ ]	/* 1 value pushed */\01234 \012LT[ ]	/* LessThan */\012IF[ ]	/* If */\012NPUSHB[ ]	/* 34 values pushed */\0120 5 5 3 91 0 3 3 45 75 0 6 6 2 91 0 2 2 45 75 8 7 2 4 4 0 91 1 1 0 0 43 0 76 \012ELSE[ ]	/* Else */\012MPPEM[ ]	/* MeasurePixelPerEm */\012PUSHB[ ]	/* 1 value pushed */\01242 \012LT[ ]	/* LessThan */\012IF[ ]	/* If */\012NPUSHB[ ]	/* 44 values pushed */\0120 5 5 3 91 0 3 3 45 75 0 6 6 2 91 0 2 2 45 75 8 1 7 7 0 91 1 1 0 0 43 75 0 4 4 0 91 1 1 0 0 43 0 76 \012ELSE[ ]	/* Else */\012NPUSHB[ ]	/* 42 values pushed */\0120 2 0 6 7 2 6 99 0 5 5 3 91 0 3 3 45 75 8 1 7 7 0 91 1 1 0 0 43 75 0 4 4 0 91 1 1 0 0 43 0 76 \012EIF[ ]	/* EndIf */\012EIF[ ]	/* EndIf */\012EIF[ ]	/* EndIf */\012EIF[ ]	/* EndIf */\012NPUSHB[ ]	/* 16 values pushed */\01249 49 49 61 49 60 39 42 39 36 38 36 34 9 7 27 \012CALL[ ]	/* CallFunction */";
};
width = 847;
}
);
leftKerningGroup = a;
note = ae;
rightKerningGroup = ae;
unicode = 00E6;
},
{
glyphname = b;
layers = (
{
layerId = "F9783665-9C0C-4F5A-9005-646D18F9330F";
paths = (
{
closed = 1;
nodes = (
"498 291.333 OFFCURVE",
"490.333 321.5 OFFCURVE",
"475 354.5 CURVE SMOOTH",
"444.333 420.5 OFFCURVE",
"389.333 478.333 OFFCURVE",
"332 497 CURVE",
"243 423 LINE",
"273 423 OFFCURVE",
"301.833 411.667 OFFCURVE",
"329.5 389 CURVE SMOOTH",
"384.833 343.667 OFFCURVE",
"423 265.667 OFFCURVE",
"423 199 CURVE SMOOTH",
"423 139.812 OFFCURVE",
"346.677 43 OFFCURVE",
"281 43 CURVE SMOOTH",
"210.333 43 OFFCURVE",
"170 99 OFFCURVE",
"170 163 CURVE SMOOTH",
"170 924 LINE",
"79 886 LINE",
"79 185 LINE SMOOTH",
"79 70.333 OFFCURVE",
"144.667 -12 OFFCURVE",
"254 -12 CURVE SMOOTH",
"288 -12 OFFCURVE",
"324.167 2.167 OFFCURVE",
"362.5 30.5 CURVE SMOOTH",
"439.167 87.167 OFFCURVE",
"498 182.667 OFFCURVE",
"498 264 CURVE SMOOTH"
);
}
);
userData = {
assembly = "NPUSHB[ ]	/* 28 values pushed */\01221 8 7 3 2 72 0 2 1 2 114 0 1 1 0 91 0 0 0 43 0 76 22 39 34 3 7 23 \012CALL[ ]	/* CallFunction */";
};
width = 544;
}
);
leftKerningGroup = b;
note = b;
rightKerningGroup = b;
unicode = 0062;
},
{
glyphname = c;
layers = (
{
layerId = "F9783665-9C0C-4F5A-9005-646D18F9330F";
paths = (
{
closed = 1;
nodes = (
"264 506 OFFCURVE",
"211.667 493.333 OFFCURVE",
"169 468 CURVE SMOOTH",
"83.667 417.333 OFFCURVE",
"41 327 OFFCURVE",
"41 223 CURVE SMOOTH",
"41 176.333 OFFCURVE",
"50.333 135.167 OFFCURVE",
"69 99.5 CURVE SMOOTH",
"106.333 28.167 OFFCURVE",
"174.333 -12 OFFCURVE",
"257 -12 CURVE SMOOTH",
"362.333 -12 OFFCURVE",
"428.667 40 OFFCURVE",
"494 140 CURVE",
"477 156 LINE",
"423.667 94.667 OFFCURVE",
"367 51 OFFCURVE",
"287 51 CURVE SMOOTH",
"253.667 51 OFFCURVE",
"223.667 59.833 OFFCURVE",
"197 77.5 CURVE SMOOTH",
"143.667 112.833 OFFCURVE",
"111 181.667 OFFCURVE",
"111 275 CURVE SMOOTH",
"111 301.667 OFFCURVE",
"117.667 328 OFFCURVE",
"131 354 CURVE SMOOTH",
"157.667 406 OFFCURVE",
"209 443 OFFCURVE",
"273 443 CURVE SMOOTH",
"317 443 OFFCURVE",
"361.667 414.667 OFFCURVE",
"375 368 CURVE",
"457 410 LINE",
"430.333 476.667 OFFCURVE",
"380.667 506 OFFCURVE",
"326 506 CURVE SMOOTH"
);
}
);
userData = {
assembly = "NPUSHB[ ]	/* 43 values pushed */\01218 17 3 2 4 1 0 1 74 0 0 0 3 91 4 1 3 3 45 75 0 1 1 2 91 0 2 2 43 2 76 0 0 0 29 0 28 37 38 37 5 7 23 \012CALL[ ]	/* CallFunction */";
};
width = 520;
}
);
leftKerningGroup = c;
note = c;
rightKerningGroup = c;
unicode = 0063;
},
{
glyphname = ccedilla;
layers = (
{
layerId = "F9783665-9C0C-4F5A-9005-646D18F9330F";
paths = (
{
closed = 1;
nodes = (
"362.333 -12 OFFCURVE",
"428.667 40 OFFCURVE",
"494 140 CURVE",
"477 156 LINE",
"423.667 94.667 OFFCURVE",
"367 51 OFFCURVE",
"287 51 CURVE SMOOTH",
"253.667 51 OFFCURVE",
"223.667 59.833 OFFCURVE",
"197 77.5 CURVE SMOOTH",
"143.667 112.833 OFFCURVE",
"111 181.667 OFFCURVE",
"111 275 CURVE SMOOTH",
"111 301.667 OFFCURVE",
"117.667 328 OFFCURVE",
"131 354 CURVE SMOOTH",
"157.667 406 OFFCURVE",
"209 443 OFFCURVE",
"273 443 CURVE SMOOTH",
"317 443 OFFCURVE",
"361.667 414.667 OFFCURVE",
"375 368 CURVE",
"457 410 LINE",
"430.333 476.667 OFFCURVE",
"380.667 506 OFFCURVE",
"326 506 CURVE SMOOTH",
"264 506 OFFCURVE",
"211.667 493.333 OFFCURVE",
"169 468 CURVE SMOOTH",
"83.667 417.333 OFFCURVE",
"41 327 OFFCURVE",
"41 223 CURVE SMOOTH",
"41 99 OFFCURVE",
"109 10.667 OFFCURVE",
"213 -8 CURVE",
"179 -66 LINE",
"196 -80 LINE",
"206 -73.333 OFFCURVE",
"216.333 -70 OFFCURVE",
"227 -70 CURVE SMOOTH",
"251 -70 OFFCURVE",
"270 -89.333 OFFCURVE",
"270 -116 CURVE SMOOTH",
"270 -141.333 OFFCURVE",
"253.667 -160 OFFCURVE",
"231 -160 CURVE SMOOTH",
"215.667 -160 OFFCURVE",
"203 -153 OFFCURVE",
"193 -139 CURVE",
"174 -150 LINE",
"190 -180.667 OFFCURVE",
"221 -198 OFFCURVE",
"253 -198 CURVE SMOOTH",
"298.333 -198 OFFCURVE",
"340 -165.333 OFFCURVE",
"340 -116 CURVE SMOOTH",
"340 -66.667 OFFCURVE",
"306.667 -36 OFFCURVE",
"264 -36 CURVE SMOOTH",
"248 -36 OFFCURVE",
"231.333 -40.333 OFFCURVE",
"214 -49 CURVE",
"236 -11 LINE",
"240.667 -11.667 OFFCURVE",
"247.667 -12 OFFCURVE",
"257 -12 CURVE SMOOTH"
);
}
);
userData = {
assembly = "NPUSHB[ ]	/* 77 values pushed */\01252 51 37 36 4 6 5 26 1 7 6 25 2 2 3 0 24 14 13 3 2 3 4 74 0 0 0 3 2 0 3 99 0 2 0 1 2 1 95 0 5 5 4 91 0 4 4 45 75 0 6 6 7 91 8 1 7 7 43 7 76 0 0 0 55 0 54 38 37 41 36 36 36 35 9 7 27 \012CALL[ ]	/* CallFunction */";
};
width = 520;
}
);
leftKerningGroup = c;
note = ccedilla;
rightKerningGroup = c;
unicode = 00E7;
},
{
glyphname = d;
layers = (
{
layerId = "F9783665-9C0C-4F5A-9005-646D18F9330F";
paths = (
{
closed = 1;
nodes = (
"476 924 LINE",
"382 886 LINE",
"382 482 LINE",
"358.667 498 OFFCURVE",
"331.333 506 OFFCURVE",
"300 506 CURVE SMOOTH",
"250 506 OFFCURVE",
"205.833 490.667 OFFCURVE",
"167.5 460 CURVE SMOOTH",
"90.833 398.667 OFFCURVE",
"48 296 OFFCURVE",
"48 200 CURVE SMOOTH",
"48 78.667 OFFCURVE",
"112 -12 OFFCURVE",
"228 -12 CURVE SMOOTH",
"286.667 -12 OFFCURVE",
"336.333 29 OFFCURVE",
"377 111 CURVE",
"381 111 LINE",
"379.667 25.667 OFFCURVE",
"406.667 -5 OFFCURVE",
"468 -5 CURVE SMOOTH",
"505.333 -5 OFFCURVE",
"549.667 30.667 OFFCURVE",
"571 76 CURVE",
"552 92 LINE",
"542.667 72 OFFCURVE",
"521.667 52 OFFCURVE",
"503 52 CURVE SMOOTH",
"484.333 52 OFFCURVE",
"476 70.333 OFFCURVE",
"476 89 CURVE SMOOTH"
);
},
{
closed = 1;
nodes = (
"328.667 447 OFFCURVE",
"359.333 431 OFFCURVE",
"382 407 CURVE",
"382 270 LINE SMOOTH",
"382 164.667 OFFCURVE",
"352.333 60 OFFCURVE",
"251 60 CURVE SMOOTH",
"223 60 OFFCURVE",
"200 69.833 OFFCURVE",
"182 89.5 CURVE SMOOTH",
"146 128.833 OFFCURVE",
"131 189.667 OFFCURVE",
"131 235 CURVE SMOOTH",
"131 263.667 OFFCURVE",
"136.667 294.5 OFFCURVE",
"148 327.5 CURVE SMOOTH",
"170.667 393.5 OFFCURVE",
"219.333 447 OFFCURVE",
"294 447 CURVE SMOOTH"
);
}
);
userData = {
assembly = "MPPEM[ ]	/* MeasurePixelPerEm */\012PUSHB[ ]	/* 1 value pushed */\01230 \012LT[ ]	/* LessThan */\012IF[ ]	/* If */\012NPUSHB[ ]	/* 18 values pushed */\01225 1 5 3 39 13 7 6 4 0 5 2 74 27 26 2 3 72 \012ELSE[ ]	/* Else */\012NPUSHB[ ]	/* 18 values pushed */\01225 1 5 3 39 13 7 6 4 4 5 2 74 27 26 2 3 72 \012EIF[ ]	/* EndIf */\012MPPEM[ ]	/* MeasurePixelPerEm */\012PUSHB[ ]	/* 1 value pushed */\01230 \012LT[ ]	/* LessThan */\012IF[ ]	/* If */\012NPUSHB[ ]	/* 24 values pushed */\0126 1 5 5 3 91 0 3 3 45 75 4 1 0 0 1 91 2 1 1 1 46 1 76 \012ELSE[ ]	/* Else */\012MPPEM[ ]	/* MeasurePixelPerEm */\012PUSHB[ ]	/* 1 value pushed */\01234 \012LT[ ]	/* LessThan */\012IF[ ]	/* If */\012NPUSHB[ ]	/* 34 values pushed */\0126 1 5 5 3 91 0 3 3 45 75 0 4 4 1 91 2 1 1 1 46 75 0 0 0 1 91 2 1 1 1 46 1 76 \012ELSE[ ]	/* Else */\012NPUSHB[ ]	/* 32 values pushed */\0126 1 5 5 3 91 0 3 3 45 75 0 0 0 1 91 0 1 1 46 75 0 4 4 2 91 0 2 2 43 2 76 \012EIF[ ]	/* EndIf */\012EIF[ ]	/* EndIf */\012NPUSHB[ ]	/* 14 values pushed */\01228 28 28 42 28 41 42 37 36 37 34 7 7 25 \012CALL[ ]	/* CallFunction */";
};
width = 585;
}
);
leftKerningGroup = c;
note = d;
rightKerningGroup = d;
unicode = 0064;
},
{
glyphname = eth;
layers = (
{
layerId = "F9783665-9C0C-4F5A-9005-646D18F9330F";
paths = (
{
closed = 1;
nodes = (
"476 739 LINE",
"476 805 LINE",
"319 750 LINE",
"261 801.333 OFFCURVE",
"192 841.333 OFFCURVE",
"112 870 CURVE",
"93 851 LINE",
"153 817 OFFCURVE",
"207 775.667 OFFCURVE",
"255 727 CURVE",
"136 686 LINE",
"136 622 LINE",
"298 678 LINE",
"386 566 OFFCURVE",
"428 432.667 OFFCURVE",
"428 294 CURVE SMOOTH",
"428 250.667 OFFCURVE",
"420.5 209.833 OFFCURVE",
"405.5 171.5 CURVE SMOOTH",
"375.5 94.833 OFFCURVE",
"318.333 44 OFFCURVE",
"245 44 CURVE SMOOTH",
"146.333 44 OFFCURVE",
"92 109 OFFCURVE",
"92 193 CURVE SMOOTH",
"92 225.667 OFFCURVE",
"103 261.167 OFFCURVE",
"125 299.5 CURVE SMOOTH",
"169 376.167 OFFCURVE",
"257.333 437.333 OFFCURVE",
"376 436 CURVE",
"358.667 453.333 OFFCURVE",
"334 473.667 OFFCURVE",
"302 497 CURVE SMOOTH",
"270 521 LINE",
"228.667 517.667 OFFCURVE",
"190 504 OFFCURVE",
"154 480 CURVE SMOOTH",
"82 432 OFFCURVE",
"37 352.333 OFFCURVE",
"37 271 CURVE SMOOTH",
"37 208.333 OFFCURVE",
"47.833 155.5 OFFCURVE",
"69.5 112.5 CURVE SMOOTH",
"112.833 26.5 OFFCURVE",
"187.667 -14 OFFCURVE",
"269 -14 CURVE SMOOTH",
"313.667 -14 OFFCURVE",
"355.333 -0.333 OFFCURVE",
"394 27 CURVE SMOOTH",
"471.333 81.667 OFFCURVE",
"520 177 OFFCURVE",
"520 277 CURVE SMOOTH",
"520 439.667 OFFCURVE",
"469.333 588.667 OFFCURVE",
"368 702 CURVE"
);
}
);
userData = {
assembly = "NPUSHB[ ]	/* 36 values pushed */\01242 41 40 39 37 36 34 33 32 31 14 11 1 72 0 1 2 1 114 0 2 2 0 91 0 0 0 43 0 76 37 26 37 3 7 23 \012CALL[ ]	/* CallFunction */";
};
width = 586;
}
);
leftKerningGroup = eth;
note = eth;
rightKerningGroup = eth;
unicode = 00F0;
},
{
glyphname = dcroat;
layers = (
{
layerId = "F9783665-9C0C-4F5A-9005-646D18F9330F";
paths = (
{
closed = 1;
nodes = (
"552 92 LINE",
"542.667 72 OFFCURVE",
"521.667 52 OFFCURVE",
"503 52 CURVE SMOOTH",
"484.333 52 OFFCURVE",
"476 70.333 OFFCURVE",
"476 89 CURVE SMOOTH",
"476 591 LINE",
"537 591 LINE",
"563 656 LINE",
"476 656 LINE",
"476 924 LINE",
"382 886 LINE",
"382 656 LINE",
"282 656 LINE",
"256 591 LINE",
"382 591 LINE",
"382 482 LINE",
"358.667 498 OFFCURVE",
"331.333 506 OFFCURVE",
"300 506 CURVE SMOOTH",
"250 506 OFFCURVE",
"205.833 490.667 OFFCURVE",
"167.5 460 CURVE SMOOTH",
"90.833 398.667 OFFCURVE",
"48 296 OFFCURVE",
"48 200 CURVE SMOOTH",
"48 78.667 OFFCURVE",
"112 -12 OFFCURVE",
"228 -12 CURVE SMOOTH",
"286.667 -12 OFFCURVE",
"336.333 29 OFFCURVE",
"377 111 CURVE",
"381 111 LINE",
"379.667 25.667 OFFCURVE",
"406.667 -5 OFFCURVE",
"468 -5 CURVE SMOOTH",
"505.333 -5 OFFCURVE",
"549.667 30.667 OFFCURVE",
"571 76 CURVE"
);
},
{
closed = 1;
nodes = (
"382 270 LINE SMOOTH",
"382 164.667 OFFCURVE",
"352.333 60 OFFCURVE",
"251 60 CURVE SMOOTH",
"223 60 OFFCURVE",
"200 69.833 OFFCURVE",
"182 89.5 CURVE SMOOTH",
"146 128.833 OFFCURVE",
"131 189.667 OFFCURVE",
"131 235 CURVE SMOOTH",
"131 263.667 OFFCURVE",
"136.667 294.5 OFFCURVE",
"148 327.5 CURVE SMOOTH",
"170.667 393.5 OFFCURVE",
"219.333 447 OFFCURVE",
"294 447 CURVE SMOOTH",
"328.667 447 OFFCURVE",
"359.333 431 OFFCURVE",
"382 407 CURVE"
);
}
);
userData = {
assembly = "MPPEM[ ]	/* MeasurePixelPerEm */\012PUSHB[ ]	/* 1 value pushed */\01230 \012LT[ ]	/* LessThan */\012IF[ ]	/* If */\012NPUSHB[ ]	/* 17 values pushed */\01218 1 8 2 36 35 6 3 7 8 2 74 24 23 2 4 72 \012ELSE[ ]	/* Else */\012NPUSHB[ ]	/* 17 values pushed */\01218 1 8 2 36 35 6 3 9 8 2 74 24 23 2 4 72 \012EIF[ ]	/* EndIf */\012MPPEM[ ]	/* MeasurePixelPerEm */\012PUSHB[ ]	/* 1 value pushed */\01230 \012LT[ ]	/* LessThan */\012IF[ ]	/* If */\012NPUSHB[ ]	/* 33 values pushed */\0125 1 4 6 1 3 2 4 3 97 0 8 8 2 91 0 2 2 45 75 9 1 7 7 0 91 1 1 0 0 46 0 76 \012ELSE[ ]	/* Else */\012MPPEM[ ]	/* MeasurePixelPerEm */\012PUSHB[ ]	/* 1 value pushed */\01234 \012LT[ ]	/* LessThan */\012IF[ ]	/* If */\012NPUSHB[ ]	/* 43 values pushed */\0125 1 4 6 1 3 2 4 3 97 0 8 8 2 91 0 2 2 45 75 0 9 9 0 91 1 1 0 0 46 75 0 7 7 0 91 1 1 0 0 46 0 76 \012ELSE[ ]	/* Else */\012NPUSHB[ ]	/* 41 values pushed */\0125 1 4 6 1 3 2 4 3 97 0 8 8 2 91 0 2 2 45 75 0 7 7 0 91 0 0 0 46 75 0 9 9 1 91 0 1 1 43 1 76 \012EIF[ ]	/* EndIf */\012EIF[ ]	/* EndIf */\012NPUSHB[ ]	/* 14 values pushed */\01248 46 37 35 17 19 17 18 37 36 34 10 7 29 \012CALL[ ]	/* CallFunction */";
};
width = 585;
}
);
leftKerningGroup = c;
note = dcroat;
rightKerningGroup = d;
unicode = 0111;
},
{
glyphname = e;
layers = (
{
layerId = "F9783665-9C0C-4F5A-9005-646D18F9330F";
paths = (
{
closed = 1;
nodes = (
"281.333 509 OFFCURVE",
"235 494.5 OFFCURVE",
"191 465.5 CURVE SMOOTH",
"103 407.5 OFFCURVE",
"45 306.667 OFFCURVE",
"45 208 CURVE SMOOTH",
"45 168.667 OFFCURVE",
"54 132.167 OFFCURVE",
"72 98.5 CURVE SMOOTH",
"108 31.167 OFFCURVE",
"174.667 -12 OFFCURVE",
"256 -12 CURVE SMOOTH",
"362.667 -12 OFFCURVE",
"429.667 34 OFFCURVE",
"495 118 CURVE",
"483 139 LINE",
"441.667 87 OFFCURVE",
"373 51 OFFCURVE",
"309 51 CURVE SMOOTH",
"251.667 51 OFFCURVE",
"210.333 68.667 OFFCURVE",
"177 122 CURVE",
"208.333 134.667 OFFCURVE",
"246.167 156.667 OFFCURVE",
"290.5 188 CURVE SMOOTH",
"379.167 250.667 OFFCURVE",
"456 332.667 OFFCURVE",
"456 394 CURVE SMOOTH",
"456 470 OFFCURVE",
"402 509 OFFCURVE",
"330 509 CURVE SMOOTH"
);
},
{
closed = 1;
nodes = (
"334.667 446 OFFCURVE",
"363 421.333 OFFCURVE",
"363 372 CURVE SMOOTH",
"363 347.333 OFFCURVE",
"351.667 320 OFFCURVE",
"329 290 CURVE SMOOTH",
"283.667 230 OFFCURVE",
"211 174.333 OFFCURVE",
"155 149 CURVE",
"135.667 178.333 OFFCURVE",
"126 213.667 OFFCURVE",
"126 255 CURVE SMOOTH",
"126 286.333 OFFCURVE",
"132.5 316.667 OFFCURVE",
"145.5 346 CURVE SMOOTH",
"171.5 404.667 OFFCURVE",
"219.333 446 OFFCURVE",
"278 446 CURVE SMOOTH"
);
}
);
userData = {
assembly = "NPUSHB[ ]	/* 49 values pushed */\01230 13 12 6 4 0 3 1 74 5 1 3 3 2 91 4 1 2 2 45 75 0 0 0 1 91 0 1 1 43 1 76 25 25 0 0 25 36 25 35 0 24 0 23 37 40 6 7 22 \012CALL[ ]	/* CallFunction */";
};
width = 522;
}
);
leftKerningGroup = c;
note = e;
rightKerningGroup = ae;
unicode = 0065;
},
{
glyphname = eogonek;
layers = (
{
layerId = "F9783665-9C0C-4F5A-9005-646D18F9330F";
paths = (
{
closed = 1;
nodes = (
"483 139 LINE",
"441.667 87 OFFCURVE",
"373 51 OFFCURVE",
"309 51 CURVE SMOOTH",
"251.667 51 OFFCURVE",
"210.333 68.667 OFFCURVE",
"177 122 CURVE",
"208.333 134.667 OFFCURVE",
"246.167 156.667 OFFCURVE",
"290.5 188 CURVE SMOOTH",
"379.167 250.667 OFFCURVE",
"456 332.667 OFFCURVE",
"456 394 CURVE SMOOTH",
"456 470 OFFCURVE",
"402 509 OFFCURVE",
"330 509 CURVE SMOOTH",
"281.333 509 OFFCURVE",
"235 494.5 OFFCURVE",
"191 465.5 CURVE SMOOTH",
"103 407.5 OFFCURVE",
"45 306.667 OFFCURVE",
"45 208 CURVE SMOOTH",
"45 168.667 OFFCURVE",
"54 132.167 OFFCURVE",
"72 98.5 CURVE SMOOTH",
"108 31.167 OFFCURVE",
"174.667 -12 OFFCURVE",
"256 -12 CURVE SMOOTH",
"279.333 -12 OFFCURVE",
"302.333 -9.333 OFFCURVE",
"325 -4 CURVE",
"281.667 -40.667 OFFCURVE",
"260 -79.333 OFFCURVE",
"260 -120 CURVE SMOOTH",
"260 -169.333 OFFCURVE",
"299 -195 OFFCURVE",
"339 -195 CURVE SMOOTH",
"376.333 -195 OFFCURVE",
"409 -167.333 OFFCURVE",
"433 -126 CURVE",
"416 -111 LINE",
"402.667 -128.333 OFFCURVE",
"386.333 -137 OFFCURVE",
"367 -137 CURVE SMOOTH",
"336.333 -137 OFFCURVE",
"321 -118.333 OFFCURVE",
"321 -89 CURVE SMOOTH",
"321 -58.333 OFFCURVE",
"338.667 -22.667 OFFCURVE",
"368 4 CURVE",
"364 8 LINE",
"414.667 29.333 OFFCURVE",
"455 66 OFFCURVE",
"495 118 CURVE"
);
},
{
closed = 1;
nodes = (
"126 286.333 OFFCURVE",
"132.5 316.667 OFFCURVE",
"145.5 346 CURVE SMOOTH",
"171.5 404.667 OFFCURVE",
"219.333 446 OFFCURVE",
"278 446 CURVE SMOOTH",
"334.667 446 OFFCURVE",
"363 421.333 OFFCURVE",
"363 372 CURVE SMOOTH",
"363 347.333 OFFCURVE",
"351.667 320 OFFCURVE",
"329 290 CURVE SMOOTH",
"283.667 230 OFFCURVE",
"211 174.333 OFFCURVE",
"155 149 CURVE",
"135.667 178.333 OFFCURVE",
"126 213.667 OFFCURVE",
"126 255 CURVE SMOOTH"
);
}
);
userData = {
assembly = "NPUSHB[ ]	/* 55 values pushed */\01246 44 43 37 4 4 5 20 1 2 4 12 11 2 0 2 3 74 0 0 0 1 0 1 95 0 5 5 3 91 0 3 3 45 75 0 4 4 2 91 0 2 2 43 2 76 42 40 38 37 36 40 6 7 26 \012CALL[ ]	/* CallFunction */";
};
width = 522;
}
);
leftKerningGroup = c;
note = eogonek;
rightKerningGroup = ae;
unicode = 0119;
},
{
glyphname = f;
layers = (
{
layerId = "F9783665-9C0C-4F5A-9005-646D18F9330F";
paths = (
{
closed = 1;
nodes = (
"271 932 OFFCURVE",
"225.667 917.833 OFFCURVE",
"191 889.5 CURVE SMOOTH",
"121.667 832.833 OFFCURVE",
"93 739 OFFCURVE",
"93 635 CURVE SMOOTH",
"93 500 LINE",
"54 500 LINE",
"28 436 LINE",
"93 436 LINE",
"93 -178 LINE",
"185 -134 LINE",
"185 436 LINE",
"365 436 LINE",
"396 500 LINE",
"185 500 LINE",
"185 777 LINE SMOOTH",
"185 839.667 OFFCURVE",
"212.333 895 OFFCURVE",
"283 895 CURVE SMOOTH",
"335 895 OFFCURVE",
"372.667 860 OFFCURVE",
"394 816 CURVE",
"461 853 LINE",
"426.333 898.333 OFFCURVE",
"365.667 932 OFFCURVE",
"327 932 CURVE SMOOTH"
);
}
);
userData = {
assembly = "NPUSHB[ ]	/* 12 values pushed */\0123 2 2 1 0 1 74 15 14 2 2 71 \012MPPEM[ ]	/* MeasurePixelPerEm */\012PUSHB[ ]	/* 1 value pushed */\01242 \012LT[ ]	/* LessThan */\012IF[ ]	/* If */\012NPUSHB[ ]	/* 24 values pushed */\0120 0 0 5 91 6 1 5 5 52 75 3 1 2 2 1 89 4 1 1 1 45 2 76 \012ELSE[ ]	/* Else */\012NPUSHB[ ]	/* 21 values pushed */\0124 1 1 3 1 2 1 2 93 0 0 0 5 91 6 1 5 5 52 0 76 \012EIF[ ]	/* EndIf */\012NPUSHB[ ]	/* 14 values pushed */\0120 0 0 24 0 23 17 19 17 19 37 7 7 25 \012CALL[ ]	/* CallFunction */";
};
width = 368;
}
);
leftKerningGroup = f;
note = f;
rightKerningGroup = f;
unicode = 0066;
},
{
glyphname = g;
layers = (
{
layerId = "F9783665-9C0C-4F5A-9005-646D18F9330F";
paths = (
{
closed = 1;
nodes = (
"262 513 OFFCURVE",
"217.833 497.833 OFFCURVE",
"177.5 467.5 CURVE SMOOTH",
"96.833 406.833 OFFCURVE",
"48 301.333 OFFCURVE",
"48 188 CURVE SMOOTH",
"48 72 OFFCURVE",
"111.333 -12 OFFCURVE",
"226 -12 CURVE SMOOTH",
"290 -12 OFFCURVE",
"330.667 34.667 OFFCURVE",
"380 112 CURVE",
"387 112 LINE",
"382.333 96.667 OFFCURVE",
"380 76.667 OFFCURVE",
"380 52 CURVE",
"383 -30 LINE",
"383 -142 OFFCURVE",
"363 -225 OFFCURVE",
"263 -225 CURVE SMOOTH",
"229.667 -225 OFFCURVE",
"207.333 -209 OFFCURVE",
"198 -185 CURVE",
"113 -257 LINE",
"134.333 -282.333 OFFCURVE",
"163.333 -295 OFFCURVE",
"200 -295 CURVE SMOOTH",
"251.333 -295 OFFCURVE",
"297.5 -277.333 OFFCURVE",
"338.5 -242 CURVE SMOOTH",
"420.5 -171.333 OFFCURVE",
"470 -54 OFFCURVE",
"470 46 CURVE SMOOTH",
"470 352 LINE",
"380 315 LINE",
"380 270 LINE SMOOTH",
"380 167.333 OFFCURVE",
"348.667 60 OFFCURVE",
"250 60 CURVE SMOOTH",
"163.333 60 OFFCURVE",
"126 144.667 OFFCURVE",
"126 238 CURVE SMOOTH",
"126 268 OFFCURVE",
"132.833 299.667 OFFCURVE",
"146.5 333 CURVE SMOOTH",
"173.833 399.667 OFFCURVE",
"225.333 451 OFFCURVE",
"292 451 CURVE SMOOTH",
"337.333 451 OFFCURVE",
"377 422.667 OFFCURVE",
"397 376 CURVE",
"469 415 LINE",
"438.333 475 OFFCURVE",
"374 513 OFFCURVE",
"310 513 CURVE SMOOTH"
);
}
);
userData = {
assembly = "NPUSHB[ ]	/* 18 values pushed */\01235 18 17 3 2 5 1 0 26 1 3 4 25 1 2 3 3 74 \012MPPEM[ ]	/* MeasurePixelPerEm */\012PUSHB[ ]	/* 1 value pushed */\01234 \012LT[ ]	/* LessThan */\012IF[ ]	/* If */\012NPUSHB[ ]	/* 32 values pushed */\0120 0 0 5 91 6 1 5 5 45 75 0 1 1 4 91 0 4 4 43 75 0 3 3 2 91 0 2 2 47 2 76 \012ELSE[ ]	/* Else */\012NPUSHB[ ]	/* 29 values pushed */\0120 3 0 2 3 2 95 0 0 0 5 91 6 1 5 5 45 75 0 1 1 4 91 0 4 4 43 4 76 \012EIF[ ]	/* EndIf */\012NPUSHB[ ]	/* 14 values pushed */\0120 0 0 46 0 45 40 36 40 37 37 7 7 25 \012CALL[ ]	/* CallFunction */";
};
width = 545;
}
);
leftKerningGroup = g;
note = g;
rightKerningGroup = g;
unicode = 0067;
},
{
glyphname = h;
layers = (
{
layerId = "F9783665-9C0C-4F5A-9005-646D18F9330F";
paths = (
{
closed = 1;
nodes = (
"177 213 LINE",
"177 924 LINE",
"85 886 LINE",
"85 -14 LINE",
"174 12 LINE",
"174 34.667 OFFCURVE",
"180.667 77.833 OFFCURVE",
"194 141.5 CURVE SMOOTH",
"220.667 268.833 OFFCURVE",
"271 396 OFFCURVE",
"339 396 CURVE SMOOTH",
"356.333 396 OFFCURVE",
"363 378.333 OFFCURVE",
"363 361 CURVE SMOOTH",
"363 96 LINE SMOOTH",
"363 28.667 OFFCURVE",
"389 -5 OFFCURVE",
"441 -5 CURVE SMOOTH",
"482.333 -5 OFFCURVE",
"528.333 30 OFFCURVE",
"547 74 CURVE",
"535 89 LINE",
"517 63 OFFCURVE",
"499.333 50 OFFCURVE",
"482 50 CURVE SMOOTH",
"460.667 50 OFFCURVE",
"451 68 OFFCURVE",
"451 84 CURVE SMOOTH",
"451 362 LINE SMOOTH",
"451 434.751 OFFCURVE",
"450.235 509 OFFCURVE",
"386 509 CURVE SMOOTH",
"347.333 509 OFFCURVE",
"313.667 491.667 OFFCURVE",
"285 457 CURVE SMOOTH",
"227.667 387.667 OFFCURVE",
"194.333 286.333 OFFCURVE",
"181 213 CURVE"
);
}
);
userData = {
assembly = "NPUSHB[ ]	/* 49 values pushed */\01216 15 0 3 1 3 29 1 2 1 2 74 32 31 2 0 72 30 1 2 71 0 3 3 0 91 0 0 0 45 75 0 1 1 2 91 0 2 2 46 2 76 36 36 38 36 4 7 24 \012CALL[ ]	/* CallFunction */";
};
width = 565;
}
);
leftKerningGroup = b;
note = h;
rightKerningGroup = a;
unicode = 0068;
},
{
glyphname = hbar;
layers = (
{
layerId = "F9783665-9C0C-4F5A-9005-646D18F9330F";
paths = (
{
closed = 1;
nodes = (
"535 89 LINE",
"517 63 OFFCURVE",
"499.333 50 OFFCURVE",
"482 50 CURVE SMOOTH",
"460.667 50 OFFCURVE",
"451 68 OFFCURVE",
"451 84 CURVE SMOOTH",
"451 362 LINE SMOOTH",
"451 434.751 OFFCURVE",
"450.235 509 OFFCURVE",
"386 509 CURVE SMOOTH",
"347.333 509 OFFCURVE",
"313.667 491.667 OFFCURVE",
"285 457 CURVE SMOOTH",
"227.667 387.667 OFFCURVE",
"194.333 286.333 OFFCURVE",
"181 213 CURVE",
"177 213 LINE",
"177 591 LINE",
"280 591 LINE",
"305 656 LINE",
"177 656 LINE",
"177 924 LINE",
"85 886 LINE",
"85 656 LINE",
"21 656 LINE",
"-6 591 LINE",
"85 591 LINE",
"85 -14 LINE",
"174 12 LINE",
"174 34.667 OFFCURVE",
"180.667 77.833 OFFCURVE",
"194 141.5 CURVE SMOOTH",
"220.667 268.833 OFFCURVE",
"271 396 OFFCURVE",
"339 396 CURVE SMOOTH",
"356.333 396 OFFCURVE",
"363 378.333 OFFCURVE",
"363 361 CURVE SMOOTH",
"363 96 LINE SMOOTH",
"363 28.667 OFFCURVE",
"389 -5 OFFCURVE",
"441 -5 CURVE SMOOTH",
"482.333 -5 OFFCURVE",
"528.333 30 OFFCURVE",
"547 74 CURVE"
);
}
);
userData = {
assembly = "NPUSHB[ ]	/* 62 values pushed */\01240 25 2 7 1 13 1 0 7 2 74 20 19 2 3 72 14 1 0 71 4 1 3 5 1 2 6 3 2 97 0 1 1 6 91 0 6 6 45 75 0 7 7 0 91 0 0 0 46 0 76 38 37 17 19 17 21 36 34 8 7 28 \012CALL[ ]	/* CallFunction */";
};
width = 565;
}
);
leftKerningGroup = b;
note = hbar;
rightKerningGroup = a;
unicode = 0127;
},
{
glyphname = i;
layers = (
{
layerId = "F9783665-9C0C-4F5A-9005-646D18F9330F";
paths = (
{
closed = 1;
nodes = (
"149 601 LINE",
"183 834 LINE",
"75 797 LINE",
"116 589 LINE"
);
},
{
closed = 1;
nodes = (
"182 496 LINE",
"89 460 LINE",
"89 96 LINE SMOOTH",
"89 22.667 OFFCURVE",
"116 -5 OFFCURVE",
"164 -5 CURVE SMOOTH",
"200 -5 OFFCURVE",
"248.333 16.667 OFFCURVE",
"279 74 CURVE",
"263 89 LINE",
"244.333 63.667 OFFCURVE",
"225.667 50 OFFCURVE",
"211 50 CURVE SMOOTH",
"192.333 50 OFFCURVE",
"182 64 OFFCURVE",
"182 84 CURVE SMOOTH"
);
}
);
userData = {
assembly = "NPUSHB[ ]	/* 26 values pushed */\01219 18 11 10 3 2 1 7 0 72 0 0 1 0 114 0 1 1 46 1 76 37 38 2 7 22 \012CALL[ ]	/* CallFunction */";
};
width = 296;
}
);
leftKerningGroup = i;
note = i;
rightKerningGroup = i;
unicode = 0069;
},
{
glyphname = idotless;
layers = (
{
layerId = "F9783665-9C0C-4F5A-9005-646D18F9330F";
paths = (
{
closed = 1;
nodes = (
"182 496 LINE",
"90 460 LINE",
"90 96 LINE SMOOTH",
"90 21.333 OFFCURVE",
"114.667 -5 OFFCURVE",
"164 -5 CURVE SMOOTH",
"200 -5 OFFCURVE",
"249.333 16.667 OFFCURVE",
"280 74 CURVE",
"264 89 LINE",
"244.667 63 OFFCURVE",
"227.333 50 OFFCURVE",
"212 50 CURVE SMOOTH",
"193.333 50 OFFCURVE",
"182 64 OFFCURVE",
"182 84 CURVE SMOOTH"
);
}
);
userData = {
assembly = "NPUSHB[ ]	/* 23 values pushed */\01214 13 6 5 4 0 72 0 0 1 0 114 0 1 1 46 1 76 36 34 2 7 22 \012CALL[ ]	/* CallFunction */";
};
width = 297;
}
);
leftKerningGroup = i;
note = dotlessi;
rightKerningGroup = i;
unicode = 0131;
},
{
glyphname = iogonek;
layers = (
{
layerId = "F9783665-9C0C-4F5A-9005-646D18F9330F";
paths = (
{
closed = 1;
nodes = (
"116 589 LINE",
"149 601 LINE",
"183 834 LINE",
"75 797 LINE"
);
},
{
closed = 1;
nodes = (
"200 -5 OFFCURVE",
"248.333 16.667 OFFCURVE",
"279 74 CURVE",
"263 89 LINE",
"244.333 63.667 OFFCURVE",
"225.667 50 OFFCURVE",
"211 50 CURVE SMOOTH",
"192.333 50 OFFCURVE",
"182 64 OFFCURVE",
"182 84 CURVE SMOOTH",
"182 496 LINE",
"89 460 LINE",
"89 96 LINE SMOOTH",
"89 46.667 OFFCURVE",
"102 15.333 OFFCURVE",
"128 2 CURVE",
"77.333 -36.667 OFFCURVE",
"52 -78 OFFCURVE",
"52 -122 CURVE SMOOTH",
"52 -171.333 OFFCURVE",
"91 -197 OFFCURVE",
"131 -197 CURVE SMOOTH",
"168.333 -197 OFFCURVE",
"201 -169.333 OFFCURVE",
"225 -128 CURVE",
"208 -113 LINE",
"194.667 -130.333 OFFCURVE",
"178.333 -139 OFFCURVE",
"159 -139 CURVE SMOOTH",
"128.333 -139 OFFCURVE",
"113 -120.333 OFFCURVE",
"113 -91 CURVE SMOOTH",
"113 -63 OFFCURVE",
"128.667 -29.333 OFFCURVE",
"154 -4 CURVE",
"156 -4.667 OFFCURVE",
"159.333 -5 OFFCURVE",
"164 -5 CURVE SMOOTH"
);
}
);
userData = {
assembly = "NPUSHB[ ]	/* 45 values pushed */\01222 1 3 2 14 13 2 0 3 2 74 34 33 26 25 2 1 6 2 72 0 2 3 2 114 0 0 0 1 0 1 95 0 3 3 46 3 76 21 43 36 42 4 7 24 \012CALL[ ]	/* CallFunction */";
};
width = 296;
}
);
leftKerningGroup = i;
note = iogonek;
rightKerningGroup = i;
unicode = 012F;
},
{
glyphname = j;
layers = (
{
layerId = "F9783665-9C0C-4F5A-9005-646D18F9330F";
paths = (
{
closed = 1;
nodes = (
"123 589 LINE",
"84 797 LINE",
"195 834 LINE",
"158 601 LINE"
);
},
{
closed = 1;
nodes = (
"99 459 LINE",
"188 496 LINE",
"188 54 LINE SMOOTH",
"188 -6.667 OFFCURVE",
"174.167 -63.667 OFFCURVE",
"146.5 -117 CURVE SMOOTH",
"91.167 -223.667 OFFCURVE",
"-5 -294 OFFCURVE",
"-101 -294 CURVE SMOOTH",
"-131 -294 OFFCURVE",
"-159.333 -285 OFFCURVE",
"-186 -267 CURVE",
"-114 -178 LINE",
"-88 -201.333 OFFCURVE",
"-55.333 -213 OFFCURVE",
"-16 -213 CURVE SMOOTH",
"18 -213 OFFCURVE",
"45.667 -199.167 OFFCURVE",
"67 -171.5 CURVE SMOOTH",
"88.333 -143.833 OFFCURVE",
"99 -90.667 OFFCURVE",
"99 -12 CURVE SMOOTH"
);
}
);
userData = {
assembly = "NPUSHB[ ]	/* 14 values pushed */\01211 1 1 0 1 74 18 10 4 3 2 5 0 72 \012MPPEM[ ]	/* MeasurePixelPerEm */\012PUSHB[ ]	/* 1 value pushed */\01232 \012LT[ ]	/* LessThan */\012IF[ ]	/* If */\012NPUSHB[ ]	/* 11 values pushed */\0120 0 0 1 91 0 1 1 47 1 76 \012ELSE[ ]	/* Else */\012NPUSHB[ ]	/* 16 values pushed */\0120 0 1 1 0 87 0 0 0 1 91 0 1 0 1 79 \012EIF[ ]	/* EndIf */\012PUSHB[ ]	/* 5 values pushed */\01235 39 2 7 22 \012CALL[ ]	/* CallFunction */";
};
width = 275;
}
);
leftKerningGroup = j;
note = j;
rightKerningGroup = ij;
unicode = 006A;
},
{
glyphname = jdotless;
layers = (
{
layerId = "F9783665-9C0C-4F5A-9005-646D18F9330F";
paths = (
{
closed = 1;
nodes = (
"99 459 LINE",
"188 496 LINE",
"188 54 LINE SMOOTH",
"188 -6.667 OFFCURVE",
"174.167 -63.667 OFFCURVE",
"146.5 -117 CURVE SMOOTH",
"91.167 -223.667 OFFCURVE",
"-6.667 -294 OFFCURVE",
"-104 -294 CURVE SMOOTH",
"-132 -294 OFFCURVE",
"-159.333 -285 OFFCURVE",
"-186 -267 CURVE",
"-114 -178 LINE",
"-84.667 -204.667 OFFCURVE",
"-53.333 -213 OFFCURVE",
"-16 -213 CURVE SMOOTH",
"18 -213 OFFCURVE",
"45.667 -199.167 OFFCURVE",
"67 -171.5 CURVE SMOOTH",
"88.333 -143.833 OFFCURVE",
"99 -90.667 OFFCURVE",
"99 -12 CURVE SMOOTH"
);
}
);
userData = {
assembly = "NPUSHB[ ]	/* 12 values pushed */\0128 1 1 0 1 74 15 7 0 3 0 72 \012MPPEM[ ]	/* MeasurePixelPerEm */\012PUSHB[ ]	/* 1 value pushed */\01232 \012LT[ ]	/* LessThan */\012IF[ ]	/* If */\012NPUSHB[ ]	/* 11 values pushed */\0120 0 0 1 91 0 1 1 47 1 76 \012ELSE[ ]	/* Else */\012NPUSHB[ ]	/* 16 values pushed */\0120 0 1 1 0 87 0 0 0 1 91 0 1 0 1 79 \012EIF[ ]	/* EndIf */\012PUSHB[ ]	/* 5 values pushed */\01236 35 2 7 22 \012CALL[ ]	/* CallFunction */";
};
width = 274;
}
);
leftKerningGroup = j;
note = uni0237;
rightKerningGroup = ij;
unicode = 0237;
},
{
glyphname = k;
layers = (
{
layerId = "F9783665-9C0C-4F5A-9005-646D18F9330F";
paths = (
{
closed = 1;
nodes = (
"176 194 LINE",
"176 924 LINE",
"86 886 LINE",
"86 -14 LINE",
"178 12 LINE",
"179.333 58.667 OFFCURVE",
"186.667 129.333 OFFCURVE",
"196 160 CURVE",
"205 167 LINE",
"215.667 158.333 OFFCURVE",
"231.667 139.333 OFFCURVE",
"253 110 CURVE SMOOTH",
"306.333 35.333 OFFCURVE",
"347.667 -10 OFFCURVE",
"405 -10 CURVE SMOOTH",
"454.333 -10 OFFCURVE",
"511.667 19.667 OFFCURVE",
"541 65 CURVE",
"525 82 LINE",
"505.667 59.333 OFFCURVE",
"484 48 OFFCURVE",
"460 48 CURVE SMOOTH",
"405.188 48 OFFCURVE",
"327.714 172.6 OFFCURVE",
"301 210 CURVE",
"390.333 263.333 OFFCURVE",
"472 341.667 OFFCURVE",
"472 423 CURVE SMOOTH",
"472 471 OFFCURVE",
"444.667 509 OFFCURVE",
"402 509 CURVE SMOOTH",
"296.667 509 OFFCURVE",
"221.667 346 OFFCURVE",
"183 194 CURVE"
);
},
{
closed = 1;
nodes = (
"361.333 401 OFFCURVE",
"375 378.333 OFFCURVE",
"375 361 CURVE SMOOTH",
"375 294.333 OFFCURVE",
"289.333 222.333 OFFCURVE",
"200 185 CURVE",
"201.333 186.333 OFFCURVE",
"207.333 199.333 OFFCURVE",
"218 224 CURVE SMOOTH",
"239.333 274.667 OFFCURVE",
"260 316.833 OFFCURVE",
"280 350.5 CURVE SMOOTH",
"300 384.167 OFFCURVE",
"320 401 OFFCURVE",
"340 401 CURVE SMOOTH"
);
}
);
userData = {
assembly = "NPUSHB[ ]	/* 23 values pushed */\01225 17 16 10 0 5 1 3 29 1 2 1 2 74 32 31 2 0 72 30 1 2 71 \012MPPEM[ ]	/* MeasurePixelPerEm */\012PUSHB[ ]	/* 1 value pushed */\0129 \012LT[ ]	/* LessThan */\012IF[ ]	/* If */\012NPUSHB[ ]	/* 22 values pushed */\0124 1 3 3 0 91 0 0 0 45 75 0 1 1 2 91 0 2 2 46 2 76 \012ELSE[ ]	/* Else */\012MPPEM[ ]	/* MeasurePixelPerEm */\012PUSHB[ ]	/* 1 value pushed */\01212 \012LT[ ]	/* LessThan */\012IF[ ]	/* If */\012NPUSHB[ ]	/* 22 values pushed */\0124 1 3 3 0 91 0 0 0 45 75 0 1 1 2 91 0 2 2 43 2 76 \012ELSE[ ]	/* Else */\012NPUSHB[ ]	/* 22 values pushed */\0124 1 3 3 0 91 0 0 0 45 75 0 1 1 2 91 0 2 2 46 2 76 \012EIF[ ]	/* EndIf */\012EIF[ ]	/* EndIf */\012NPUSHB[ ]	/* 12 values pushed */\01233 33 33 43 33 42 36 40 35 5 7 23 \012CALL[ ]	/* CallFunction */";
};
width = 554;
}
);
leftKerningGroup = b;
note = k;
rightKerningGroup = k;
unicode = 006B;
},
{
glyphname = kgreenlandic;
layers = (
{
layerId = "F9783665-9C0C-4F5A-9005-646D18F9330F";
paths = (
{
closed = 1;
nodes = (
"177 528 LINE",
"86 490 LINE",
"86 -14 LINE",
"178 12 LINE",
"178.667 18 OFFCURVE",
"180.333 40.667 OFFCURVE",
"183 80 CURVE SMOOTH",
"185.667 119.333 OFFCURVE",
"190.667 148.333 OFFCURVE",
"198 167 CURVE",
"207 167 LINE",
"217 160.333 OFFCURVE",
"235.333 141.333 OFFCURVE",
"262 110 CURVE SMOOTH",
"326 35.333 OFFCURVE",
"370.667 -10 OFFCURVE",
"408 -10 CURVE SMOOTH",
"450.667 -10 OFFCURVE",
"504 19.667 OFFCURVE",
"528 65 CURVE",
"507 82 LINE",
"491 59.333 OFFCURVE",
"470.667 48 OFFCURVE",
"446 48 CURVE SMOOTH",
"412.667 48 OFFCURVE",
"375.667 87 OFFCURVE",
"325 147 CURVE SMOOTH",
"306.333 169.667 OFFCURVE",
"288 190.667 OFFCURVE",
"280 192 CURVE",
"381.333 245.333 OFFCURVE",
"477 332.333 OFFCURVE",
"477 423 CURVE SMOOTH",
"477 469.667 OFFCURVE",
"447.333 509 OFFCURVE",
"406 509 CURVE SMOOTH",
"368.667 509 OFFCURVE",
"335 491.167 OFFCURVE",
"305 455.5 CURVE SMOOTH",
"245 384.167 OFFCURVE",
"206.333 279.333 OFFCURVE",
"185 194 CURVE",
"177 194 LINE"
);
},
{
closed = 1;
nodes = (
"363.333 401 OFFCURVE",
"377 384.333 OFFCURVE",
"377 375 CURVE SMOOTH",
"377 343.57 OFFCURVE",
"242.398 215.599 OFFCURVE",
"216 209 CURVE",
"216.667 209.667 OFFCURVE",
"221 219 OFFCURVE",
"229 237 CURVE",
"272.333 346.333 OFFCURVE",
"310 401 OFFCURVE",
"342 401 CURVE SMOOTH"
);
}
);
userData = {
assembly = "NPUSHB[ ]	/* 25 values pushed */\01235 1 4 0 43 12 1 3 3 4 21 20 2 1 3 3 74 0 1 0 72 34 1 2 71 \012MPPEM[ ]	/* MeasurePixelPerEm */\012PUSHB[ ]	/* 1 value pushed */\0129 \012LT[ ]	/* LessThan */\012IF[ ]	/* If */\012NPUSHB[ ]	/* 30 values pushed */\0120 3 4 1 4 3 1 112 5 1 4 4 0 91 0 0 0 45 75 0 1 1 2 91 0 2 2 46 2 76 \012ELSE[ ]	/* Else */\012MPPEM[ ]	/* MeasurePixelPerEm */\012PUSHB[ ]	/* 1 value pushed */\01212 \012LT[ ]	/* LessThan */\012IF[ ]	/* If */\012NPUSHB[ ]	/* 30 values pushed */\0120 3 4 1 4 3 1 112 5 1 4 4 0 91 0 0 0 45 75 0 1 1 2 91 0 2 2 43 2 76 \012ELSE[ ]	/* Else */\012NPUSHB[ ]	/* 30 values pushed */\0120 3 4 1 4 3 1 112 5 1 4 4 0 91 0 0 0 45 75 0 1 1 2 91 0 2 2 46 2 76 \012EIF[ ]	/* EndIf */\012EIF[ ]	/* EndIf */\012NPUSHB[ ]	/* 13 values pushed */\01236 36 36 46 36 45 20 36 42 37 6 7 24 \012CALL[ ]	/* CallFunction */";
};
width = 554;
}
);
leftKerningGroup = b;
note = kgreenlandic;
rightKerningGroup = k;
unicode = 0138;
},
{
glyphname = l;
layers = (
{
layerId = "F9783665-9C0C-4F5A-9005-646D18F9330F";
paths = (
{
closed = 1;
nodes = (
"182 924 LINE",
"92 886 LINE",
"92 96 LINE SMOOTH",
"92 28.667 OFFCURVE",
"120 -5 OFFCURVE",
"176 -5 CURVE SMOOTH",
"216 -5 OFFCURVE",
"260.333 30 OFFCURVE",
"283 74 CURVE",
"266 89 LINE",
"255.333 70.333 OFFCURVE",
"231.667 50 OFFCURVE",
"213 50 CURVE SMOOTH",
"190.333 50 OFFCURVE",
"182 68 OFFCURVE",
"182 84 CURVE SMOOTH"
);
}
);
userData = {
assembly = "NPUSHB[ ]	/* 23 values pushed */\01214 13 7 6 4 0 72 0 0 0 1 91 0 1 1 46 1 76 37 34 2 7 22 \012CALL[ ]	/* CallFunction */";
};
width = 299;
}
);
leftKerningGroup = b;
note = l;
rightKerningGroup = d;
unicode = 006C;
},
{
glyphname = lslash;
layers = (
{
layerId = "F9783665-9C0C-4F5A-9005-646D18F9330F";
paths = (
{
closed = 1;
nodes = (
"182 428 LINE",
"299 479 LINE",
"299 549 LINE",
"182 498 LINE",
"182 924 LINE",
"92 886 LINE",
"92 459 LINE",
"1 419 LINE",
"1 350 LINE",
"92 389 LINE",
"92 96 LINE SMOOTH",
"92 28.667 OFFCURVE",
"120 -5 OFFCURVE",
"176 -5 CURVE SMOOTH",
"216 -5 OFFCURVE",
"260.333 30 OFFCURVE",
"283 74 CURVE",
"266 89 LINE",
"255.333 70.333 OFFCURVE",
"231.667 50 OFFCURVE",
"213 50 CURVE SMOOTH",
"190.333 50 OFFCURVE",
"182 68 OFFCURVE",
"182 84 CURVE SMOOTH"
);
}
);
userData = {
assembly = "NPUSHB[ ]	/* 31 values pushed */\01222 21 20 19 18 17 16 15 14 8 7 0 12 0 72 0 0 0 1 91 0 1 1 46 1 76 37 35 2 7 22 \012CALL[ ]	/* CallFunction */";
};
width = 299;
}
);
leftKerningGroup = lslash;
note = lslash;
rightKerningGroup = lslash;
unicode = 0142;
},
{
glyphname = m;
layers = (
{
layerId = "F9783665-9C0C-4F5A-9005-646D18F9330F";
paths = (
{
closed = 1;
nodes = (
"564 509 OFFCURVE",
"536.167 486.833 OFFCURVE",
"508.5 442.5 CURVE SMOOTH",
"480.833 398.167 OFFCURVE",
"458.667 339.667 OFFCURVE",
"442 267 CURVE",
"436 267 LINE",
"436 424 LINE SMOOTH",
"436 486.667 OFFCURVE",
"415.333 509 OFFCURVE",
"374 509 CURVE SMOOTH",
"346 509 OFFCURVE",
"317.833 486.833 OFFCURVE",
"289.5 442.5 CURVE SMOOTH",
"261.167 398.167 OFFCURVE",
"238.667 339.667 OFFCURVE",
"222 267 CURVE",
"219 267 LINE",
"219 434 LINE SMOOTH",
"219 479.333 OFFCURVE",
"201 509 OFFCURVE",
"137 509 CURVE SMOOTH",
"98.054 509 OFFCURVE",
"64.284 493.18 OFFCURVE",
"32 424 CURVE",
"48 408 LINE",
"65.333 436.667 OFFCURVE",
"82.333 451 OFFCURVE",
"99 451 CURVE SMOOTH",
"116.333 451 OFFCURVE",
"129 436.667 OFFCURVE",
"129 414 CURVE SMOOTH",
"129 -14 LINE",
"215 12 LINE",
"215 86.667 OFFCURVE",
"221.5 153.167 OFFCURVE",
"234.5 211.5 CURVE SMOOTH",
"255.224 304.491 OFFCURVE",
"294.916 396 OFFCURVE",
"327 396 CURVE SMOOTH",
"336.333 396 OFFCURVE",
"344 385.333 OFFCURVE",
"344 372 CURVE SMOOTH",
"344 -14 LINE",
"435 12 LINE",
"435 87.333 OFFCURVE",
"441 154.167 OFFCURVE",
"453 212.5 CURVE SMOOTH",
"472.375 306.685 OFFCURVE",
"510.021 396 OFFCURVE",
"545 396 CURVE SMOOTH",
"555.667 396 OFFCURVE",
"563 385.333 OFFCURVE",
"563 372 CURVE SMOOTH",
"563 96 LINE SMOOTH",
"563 28.667 OFFCURVE",
"590.667 -5 OFFCURVE",
"646 -5 CURVE SMOOTH",
"696.887 -5 OFFCURVE",
"719.591 8.838 OFFCURVE",
"750 74 CURVE",
"734 89 LINE",
"716.667 63.667 OFFCURVE",
"697 50 OFFCURVE",
"681 50 CURVE SMOOTH",
"665 50 OFFCURVE",
"655 64 OFFCURVE",
"655 84 CURVE SMOOTH",
"655 424 LINE SMOOTH",
"655 485.333 OFFCURVE",
"632 509 OFFCURVE",
"592 509 CURVE SMOOTH"
);
}
);
userData = {
assembly = "NPUSHB[ ]	/* 79 values pushed */\01241 40 2 3 5 57 49 10 9 4 0 3 33 24 2 2 0 3 74 34 25 2 1 71 0 5 6 3 6 5 3 112 0 1 2 1 115 4 1 3 3 6 91 9 8 7 3 6 6 45 75 0 0 0 2 91 0 2 2 46 2 76 0 0 0 61 0 60 38 37 39 39 36 32 21 37 10 7 28 \012CALL[ ]	/* CallFunction */";
};
width = 779;
}
);
leftKerningGroup = m;
note = m;
rightKerningGroup = a;
unicode = 006D;
},
{
glyphname = n;
layers = (
{
layerId = "F9783665-9C0C-4F5A-9005-646D18F9330F";
paths = (
{
closed = 1;
nodes = (
"393.667 509 OFFCURVE",
"359 489.5 OFFCURVE",
"329 450.5 CURVE SMOOTH",
"269 372.5 OFFCURVE",
"243 289.667 OFFCURVE",
"207 171 CURVE",
"203 171 LINE",
"203 434 LINE SMOOTH",
"203 480.667 OFFCURVE",
"176 509 OFFCURVE",
"120 509 CURVE SMOOTH",
"80 509 OFFCURVE",
"34.333 472 OFFCURVE",
"17 424 CURVE",
"32 408 LINE",
"50.667 436.667 OFFCURVE",
"68 451 OFFCURVE",
"84 451 CURVE SMOOTH",
"102.667 451 OFFCURVE",
"113 432.667 OFFCURVE",
"113 414 CURVE SMOOTH",
"113 -14 LINE",
"200 12 LINE",
"200 32.667 OFFCURVE",
"210.167 75.5 OFFCURVE",
"230.5 140.5 CURVE SMOOTH",
"271.167 270.5 OFFCURVE",
"333.333 396 OFFCURVE",
"388 396 CURVE SMOOTH",
"404 396 OFFCURVE",
"406 381 OFFCURVE",
"406 361 CURVE SMOOTH",
"406 96 LINE SMOOTH",
"406 28 OFFCURVE",
"436.667 -5 OFFCURVE",
"490 -5 CURVE SMOOTH",
"526 -5 OFFCURVE",
"572 31.333 OFFCURVE",
"592 74 CURVE",
"577 89 LINE",
"561 66.333 OFFCURVE",
"546.667 50 OFFCURVE",
"524 50 CURVE SMOOTH",
"506.667 50 OFFCURVE",
"497 69.333 OFFCURVE",
"497 84 CURVE SMOOTH",
"497 367 LINE",
"497 398 LINE SMOOTH",
"497 467.333 OFFCURVE",
"486.333 509 OFFCURVE",
"433 509 CURVE SMOOTH"
);
}
);
userData = {
assembly = "NPUSHB[ ]	/* 70 values pushed */\01233 32 2 2 3 40 11 10 3 0 2 25 1 1 0 3 74 26 1 1 71 0 3 3 4 91 6 5 2 4 4 45 75 0 2 2 4 91 6 5 2 4 4 45 75 0 0 0 1 91 0 1 1 46 1 76 0 0 0 45 0 44 36 39 37 37 38 7 7 25 \012CALL[ ]	/* CallFunction */";
};
width = 608;
}
);
leftKerningGroup = m;
note = n;
rightKerningGroup = a;
unicode = 006E;
},
{
glyphname = eng;
layers = (
{
layerId = "F9783665-9C0C-4F5A-9005-646D18F9330F";
paths = (
{
closed = 1;
nodes = (
"320 509 OFFCURVE",
"246.667 330.333 OFFCURVE",
"204 161 CURVE",
"203 161 LINE",
"203 434 LINE SMOOTH",
"203 480.667 OFFCURVE",
"176.333 509 OFFCURVE",
"119 509 CURVE SMOOTH",
"77.667 509 OFFCURVE",
"34.333 473.333 OFFCURVE",
"17 424 CURVE",
"32 408 LINE",
"50.667 436.667 OFFCURVE",
"68 451 OFFCURVE",
"84 451 CURVE SMOOTH",
"102.667 451 OFFCURVE",
"113 432.667 OFFCURVE",
"113 414 CURVE SMOOTH",
"113 -14 LINE",
"200 12 LINE",
"200 27.333 OFFCURVE",
"210.333 68 OFFCURVE",
"231 134 CURVE SMOOTH",
"272.333 266 OFFCURVE",
"333.667 396 OFFCURVE",
"387 396 CURVE SMOOTH",
"399.667 396 OFFCURVE",
"406 384.333 OFFCURVE",
"406 361 CURVE SMOOTH",
"406 79 LINE",
"406 37 LINE SMOOTH",
"406 -25.667 OFFCURVE",
"404 -73.667 OFFCURVE",
"400 -107 CURVE SMOOTH",
"392 -173.667 OFFCURVE",
"362.333 -213 OFFCURVE",
"293 -213 CURVE SMOOTH",
"255.667 -213 OFFCURVE",
"223.667 -201.333 OFFCURVE",
"197 -178 CURVE",
"128 -267 LINE",
"152 -285 OFFCURVE",
"179.667 -294 OFFCURVE",
"211 -294 CURVE SMOOTH",
"262.333 -294 OFFCURVE",
"309.833 -276.5 OFFCURVE",
"353.5 -241.5 CURVE SMOOTH",
"440.833 -171.5 OFFCURVE",
"496 -54 OFFCURVE",
"496 54 CURVE SMOOTH",
"496 362 LINE SMOOTH",
"496 435.253 OFFCURVE",
"493.537 509 OFFCURVE",
"428 509 CURVE SMOOTH"
);
}
);
userData = {
assembly = "NPUSHB[ ]	/* 18 values pushed */\01233 32 2 2 3 40 26 25 11 4 1 2 10 1 0 1 3 74 \012MPPEM[ ]	/* MeasurePixelPerEm */\012PUSHB[ ]	/* 1 value pushed */\01232 \012LT[ ]	/* LessThan */\012IF[ ]	/* If */\012NPUSHB[ ]	/* 35 values pushed */\0120 3 3 4 91 6 5 2 4 4 45 75 0 2 2 4 91 6 5 2 4 4 45 75 0 1 1 0 91 0 0 0 47 0 76 \012ELSE[ ]	/* Else */\012NPUSHB[ ]	/* 32 values pushed */\0120 1 0 0 1 0 95 0 3 3 4 91 6 5 2 4 4 45 75 0 2 2 4 91 6 5 2 4 4 45 2 76 \012EIF[ ]	/* EndIf */\012NPUSHB[ ]	/* 14 values pushed */\0120 0 0 44 0 43 36 39 38 35 39 7 7 25 \012CALL[ ]	/* CallFunction */";
};
width = 588;
}
);
leftKerningGroup = m;
note = eng;
rightKerningGroup = ij;
unicode = 014B;
},
{
glyphname = o;
layers = (
{
layerId = "F9783665-9C0C-4F5A-9005-646D18F9330F";
paths = (
{
closed = 1;
nodes = (
"278 509 LINE",
"139.333 467.667 OFFCURVE",
"45 354.333 OFFCURVE",
"45 209 CURVE SMOOTH",
"45 167.667 OFFCURVE",
"54.667 130 OFFCURVE",
"74 96 CURVE SMOOTH",
"112.667 28 OFFCURVE",
"184 -14 OFFCURVE",
"264 -14 CURVE SMOOTH",
"314 -14 OFFCURVE",
"357.333 -0.5 OFFCURVE",
"394 26.5 CURVE SMOOTH",
"467.333 80.5 OFFCURVE",
"506 172.667 OFFCURVE",
"506 266 CURVE SMOOTH",
"506 371.333 OFFCURVE",
"449 466.333 OFFCURVE",
"357 497 CURVE",
"318.333 469 OFFCURVE",
"278.667 438.667 OFFCURVE",
"252 412 CURVE",
"284 409.333 OFFCURVE",
"315.333 396.667 OFFCURVE",
"346 374 CURVE SMOOTH",
"407.333 328.667 OFFCURVE",
"449 257.667 OFFCURVE",
"449 195 CURVE SMOOTH",
"449 167.667 OFFCURVE",
"442.833 142.667 OFFCURVE",
"430.5 120 CURVE SMOOTH",
"405.833 74.667 OFFCURVE",
"359.333 46 OFFCURVE",
"302 46 CURVE SMOOTH",
"266.667 46 OFFCURVE",
"236.333 56 OFFCURVE",
"211 76 CURVE SMOOTH",
"160.333 116 OFFCURVE",
"135 182 OFFCURVE",
"135 242 CURVE SMOOTH",
"135 348.667 OFFCURVE",
"196 424 OFFCURVE",
"296 488 CURVE"
);
}
);
userData = {
assembly = "NPUSHB[ ]	/* 23 values pushed */\01232 18 15 3 0 72 0 0 0 1 91 0 1 1 43 1 76 26 24 38 2 7 21 \012CALL[ ]	/* CallFunction */";
};
width = 550;
}
);
leftKerningGroup = c;
note = o;
rightKerningGroup = b;
unicode = 006F;
},
{
glyphname = oslash;
layers = (
{
layerId = "F9783665-9C0C-4F5A-9005-646D18F9330F";
paths = (
{
closed = 1;
nodes = (
"318.333 469 OFFCURVE",
"278.667 438.667 OFFCURVE",
"252 412 CURVE",
"284 409.333 OFFCURVE",
"315.333 396.667 OFFCURVE",
"346 374 CURVE SMOOTH",
"407.333 328.667 OFFCURVE",
"449 257.667 OFFCURVE",
"449 195 CURVE SMOOTH",
"449 167.667 OFFCURVE",
"442.833 142.667 OFFCURVE",
"430.5 120 CURVE SMOOTH",
"405.833 74.667 OFFCURVE",
"359.333 46 OFFCURVE",
"302 46 CURVE SMOOTH",
"266.667 46 OFFCURVE",
"236.333 56 OFFCURVE",
"211 76 CURVE SMOOTH",
"160.333 116 OFFCURVE",
"135 182 OFFCURVE",
"135 242 CURVE SMOOTH",
"135 348.667 OFFCURVE",
"196 424 OFFCURVE",
"296 488 CURVE",
"278 509 LINE",
"139.333 467.667 OFFCURVE",
"45 354.333 OFFCURVE",
"45 209 CURVE SMOOTH",
"45 167.667 OFFCURVE",
"54.667 130 OFFCURVE",
"74 96 CURVE SMOOTH",
"112.667 28 OFFCURVE",
"184 -14 OFFCURVE",
"264 -14 CURVE SMOOTH",
"314 -14 OFFCURVE",
"357.333 -0.5 OFFCURVE",
"394 26.5 CURVE SMOOTH",
"467.333 80.5 OFFCURVE",
"506 172.667 OFFCURVE",
"506 266 CURVE SMOOTH",
"506 371.333 OFFCURVE",
"449 466.333 OFFCURVE",
"357 497 CURVE"
);
}
);
userData = {
assembly = "NPUSHB[ ]	/* 23 values pushed */\01232 29 14 13 4 1 72 0 1 1 0 91 0 0 0 43 0 76 45 37 2 7 22 \012CALL[ ]	/* CallFunction */";
};
width = 550;
}
);
leftKerningGroup = c;
note = oslash;
rightKerningGroup = b;
unicode = 00F8;
},
{
glyphname = oslashacute;
layers = (
{
layerId = "F9783665-9C0C-4F5A-9005-646D18F9330F";
paths = (
{
closed = 1;
nodes = (
"212 573 LINE",
"380 660 LINE",
"319 733 LINE",
"197 593 LINE"
);
},
{
closed = 1;
nodes = (
"318.333 469 OFFCURVE",
"278.667 438.667 OFFCURVE",
"252 412 CURVE",
"284 409.333 OFFCURVE",
"315.333 396.667 OFFCURVE",
"346 374 CURVE SMOOTH",
"407.333 328.667 OFFCURVE",
"449 257.667 OFFCURVE",
"449 195 CURVE SMOOTH",
"449 167.667 OFFCURVE",
"442.833 142.667 OFFCURVE",
"430.5 120 CURVE SMOOTH",
"405.833 74.667 OFFCURVE",
"359.333 46 OFFCURVE",
"302 46 CURVE SMOOTH",
"266.667 46 OFFCURVE",
"236.333 56 OFFCURVE",
"211 76 CURVE SMOOTH",
"160.333 116 OFFCURVE",
"135 182 OFFCURVE",
"135 242 CURVE SMOOTH",
"135 348.667 OFFCURVE",
"196 424 OFFCURVE",
"296 488 CURVE",
"278 509 LINE",
"139.333 467.667 OFFCURVE",
"45 354.333 OFFCURVE",
"45 209 CURVE SMOOTH",
"45 167.667 OFFCURVE",
"54.667 130 OFFCURVE",
"74 96 CURVE SMOOTH",
"112.667 28 OFFCURVE",
"184 -14 OFFCURVE",
"264 -14 CURVE SMOOTH",
"314 -14 OFFCURVE",
"357.333 -0.5 OFFCURVE",
"394 26.5 CURVE SMOOTH",
"467.333 80.5 OFFCURVE",
"506 172.667 OFFCURVE",
"506 266 CURVE SMOOTH",
"506 371.333 OFFCURVE",
"449 466.333 OFFCURVE",
"357 497 CURVE"
);
}
);
userData = {
assembly = "NPUSHB[ ]	/* 26 values pushed */\01236 33 18 17 3 2 1 7 1 72 0 1 1 0 91 0 0 0 43 0 76 45 41 2 7 22 \012CALL[ ]	/* CallFunction */";
};
width = 550;
}
);
leftKerningGroup = c;
note = oslashacute;
rightKerningGroup = b;
unicode = 01FF;
},
{
glyphname = oe;
layers = (
{
layerId = "F9783665-9C0C-4F5A-9005-646D18F9330F";
paths = (
{
closed = 1;
nodes = (
"889 139 LINE",
"846.333 87 OFFCURVE",
"779 51 OFFCURVE",
"715 51 CURVE SMOOTH",
"659 51 OFFCURVE",
"617.333 68.667 OFFCURVE",
"584 122 CURVE",
"614.667 134.667 OFFCURVE",
"652.333 156.667 OFFCURVE",
"697 188 CURVE SMOOTH",
"786.333 250.667 OFFCURVE",
"862 332.667 OFFCURVE",
"862 394 CURVE SMOOTH",
"862 470 OFFCURVE",
"809 509 OFFCURVE",
"737 509 CURVE SMOOTH",
"638.333 509 OFFCURVE",
"545.333 445 OFFCURVE",
"492 353 CURVE",
"469.333 421 OFFCURVE",
"421 474.333 OFFCURVE",
"357 497 CURVE",
"318.333 469 OFFCURVE",
"278.667 438.667 OFFCURVE",
"252 412 CURVE",
"284 409.333 OFFCURVE",
"315.333 396.667 OFFCURVE",
"346 374 CURVE SMOOTH",
"407.333 328.667 OFFCURVE",
"449 257.667 OFFCURVE",
"449 195 CURVE SMOOTH",
"449 167.667 OFFCURVE",
"442.833 142.667 OFFCURVE",
"430.5 120 CURVE SMOOTH",
"405.833 74.667 OFFCURVE",
"359.333 46 OFFCURVE",
"302 46 CURVE SMOOTH",
"266.667 46 OFFCURVE",
"236.333 56 OFFCURVE",
"211 76 CURVE SMOOTH",
"160.333 116 OFFCURVE",
"135 182 OFFCURVE",
"135 242 CURVE SMOOTH",
"135 348.667 OFFCURVE",
"196 424 OFFCURVE",
"296 488 CURVE",
"278 509 LINE",
"139.333 467.667 OFFCURVE",
"45 354.333 OFFCURVE",
"45 209 CURVE SMOOTH",
"45 167.667 OFFCURVE",
"54.667 130 OFFCURVE",
"74 96 CURVE SMOOTH",
"112.667 28 OFFCURVE",
"184 -14 OFFCURVE",
"264 -14 CURVE SMOOTH",
"357.333 -14 OFFCURVE",
"428.667 37.333 OFFCURVE",
"470 116 CURVE",
"502 38.667 OFFCURVE",
"572.667 -12 OFFCURVE",
"662 -12 CURVE SMOOTH",
"768.667 -12 OFFCURVE",
"835.333 34 OFFCURVE",
"902 118 CURVE"
);
},
{
closed = 1;
nodes = (
"533 286.333 OFFCURVE",
"539.333 316.667 OFFCURVE",
"552 346 CURVE SMOOTH",
"577.333 404.667 OFFCURVE",
"625.333 446 OFFCURVE",
"684 446 CURVE SMOOTH",
"738.667 446 OFFCURVE",
"770 422.667 OFFCURVE",
"770 372 CURVE SMOOTH",
"770 347.333 OFFCURVE",
"758.667 320.167 OFFCURVE",
"736 290.5 CURVE SMOOTH",
"690.667 231.167 OFFCURVE",
"618 174.333 OFFCURVE",
"562 149 CURVE",
"542.667 178.333 OFFCURVE",
"533 213.667 OFFCURVE",
"533 255 CURVE SMOOTH"
);
}
);
userData = {
assembly = "MPPEM[ ]	/* MeasurePixelPerEm */\012PUSHB[ ]	/* 1 value pushed */\01245 \012LT[ ]	/* LessThan */\012IF[ ]	/* If */\012NPUSHB[ ]	/* 20 values pushed */\01235 17 2 5 3 56 54 48 38 32 6 6 2 5 2 74 16 1 3 72 \012ELSE[ ]	/* Else */\012NPUSHB[ ]	/* 20 values pushed */\01235 17 2 5 3 56 54 48 38 32 6 6 4 5 2 74 16 1 3 72 \012EIF[ ]	/* EndIf */\012MPPEM[ ]	/* MeasurePixelPerEm */\012PUSHB[ ]	/* 1 value pushed */\01245 \012LT[ ]	/* LessThan */\012IF[ ]	/* If */\012NPUSHB[ ]	/* 23 values pushed */\0120 5 5 3 91 0 3 3 45 75 4 1 2 2 0 91 1 1 0 0 43 0 76 \012ELSE[ ]	/* Else */\012NPUSHB[ ]	/* 33 values pushed */\0120 5 5 3 91 0 3 3 45 75 0 4 4 0 91 1 1 0 0 43 75 0 2 2 0 91 1 1 0 0 43 0 76 \012EIF[ ]	/* EndIf */\012NPUSHB[ ]	/* 9 values pushed */\01242 40 47 45 36 34 6 7 26 \012CALL[ ]	/* CallFunction */";
};
width = 929;
}
);
leftKerningGroup = c;
note = oe;
rightKerningGroup = ae;
unicode = 0153;
},
{
glyphname = p;
layers = (
{
layerId = "F9783665-9C0C-4F5A-9005-646D18F9330F";
paths = (
{
closed = 1;
nodes = (
"291.333 505 OFFCURVE",
"238.667 459.667 OFFCURVE",
"208 393 CURVE",
"204 393 LINE",
"204 471.667 OFFCURVE",
"179 505 OFFCURVE",
"119 505 CURVE SMOOTH",
"79 505 OFFCURVE",
"33 469.333 OFFCURVE",
"17 424 CURVE",
"32 409 LINE",
"44 423.667 OFFCURVE",
"54 434.333 OFFCURVE",
"62 441 CURVE SMOOTH",
"70 447.667 OFFCURVE",
"77.333 451 OFFCURVE",
"84 451 CURVE SMOOTH",
"101.333 451 OFFCURVE",
"113 435 OFFCURVE",
"113 411 CURVE SMOOTH",
"113 -326 LINE",
"200 -289 LINE",
"200 214 LINE SMOOTH",
"200 351.333 OFFCURVE",
"238.667 429 OFFCURVE",
"308 429 CURVE SMOOTH",
"336.667 429 OFFCURVE",
"362.667 421.167 OFFCURVE",
"386 405.5 CURVE SMOOTH",
"432.667 374.167 OFFCURVE",
"461 315.667 OFFCURVE",
"461 249 CURVE SMOOTH",
"461 133 OFFCURVE",
"422 51 OFFCURVE",
"366 51 CURVE SMOOTH",
"334.667 51 OFFCURVE",
"310.667 56.333 OFFCURVE",
"294 67 CURVE",
"268 10 LINE",
"297.333 -4.667 OFFCURVE",
"314 -10 OFFCURVE",
"334 -10 CURVE SMOOTH",
"375.333 -10 OFFCURVE",
"411.333 1.667 OFFCURVE",
"442 25 CURVE SMOOTH",
"503.333 71.667 OFFCURVE",
"537 159.667 OFFCURVE",
"537 277 CURVE SMOOTH",
"537 318.333 OFFCURVE",
"528.333 356.5 OFFCURVE",
"511 391.5 CURVE SMOOTH",
"476.333 461.5 OFFCURVE",
"412.667 505 OFFCURVE",
"342 505 CURVE SMOOTH"
);
}
);
userData = {
assembly = "NPUSHB[ ]	/* 18 values pushed */\01239 33 32 11 4 1 2 10 1 0 1 2 74 25 24 2 0 71 \012MPPEM[ ]	/* MeasurePixelPerEm */\012PUSHB[ ]	/* 1 value pushed */\0129 \012LT[ ]	/* LessThan */\012IF[ ]	/* If */\012NPUSHB[ ]	/* 35 values pushed */\0120 3 3 4 91 6 5 2 4 4 45 75 0 2 2 4 91 6 5 2 4 4 45 75 0 1 1 0 91 0 0 0 46 0 76 \012ELSE[ ]	/* Else */\012MPPEM[ ]	/* MeasurePixelPerEm */\012PUSHB[ ]	/* 1 value pushed */\01212 \012LT[ ]	/* LessThan */\012IF[ ]	/* If */\012NPUSHB[ ]	/* 35 values pushed */\0120 3 3 4 91 6 5 2 4 4 45 75 0 2 2 4 91 6 5 2 4 4 45 75 0 1 1 0 91 0 0 0 43 0 76 \012ELSE[ ]	/* Else */\012NPUSHB[ ]	/* 35 values pushed */\0120 3 3 4 91 6 5 2 4 4 45 75 0 2 2 4 91 6 5 2 4 4 45 75 0 1 1 0 91 0 0 0 46 0 76 \012EIF[ ]	/* EndIf */\012EIF[ ]	/* EndIf */\012NPUSHB[ ]	/* 14 values pushed */\0120 0 0 43 0 42 37 39 37 36 38 7 7 25 \012CALL[ ]	/* CallFunction */";
};
width = 584;
}
);
leftKerningGroup = p;
note = p;
rightKerningGroup = b;
unicode = 0070;
},
{
glyphname = thorn;
layers = (
{
layerId = "F9783665-9C0C-4F5A-9005-646D18F9330F";
paths = (
{
closed = 1;
nodes = (
"255.667 505 OFFCURVE",
"197.667 454.333 OFFCURVE",
"179 393 CURVE",
"174 393 LINE",
"174 802 LINE SMOOTH",
"174 866 OFFCURVE",
"148.667 898 OFFCURVE",
"90 898 CURVE SMOOTH",
"54 898 OFFCURVE",
"5 860.667 OFFCURVE",
"-11 818 CURVE",
"4 798 LINE",
"16 822 OFFCURVE",
"33.333 841 OFFCURVE",
"56 841 CURVE SMOOTH",
"74.667 841 OFFCURVE",
"84 824.667 OFFCURVE",
"84 806 CURVE SMOOTH",
"84 -326 LINE",
"174 -289 LINE",
"174 214 LINE SMOOTH",
"174 323.333 OFFCURVE",
"191 429 OFFCURVE",
"283 429 CURVE SMOOTH",
"309 429 OFFCURVE",
"333.667 421.167 OFFCURVE",
"357 405.5 CURVE SMOOTH",
"403.667 374.167 OFFCURVE",
"435 315.667 OFFCURVE",
"435 249 CURVE SMOOTH",
"435 131.667 OFFCURVE",
"395.667 51 OFFCURVE",
"337 51 CURVE SMOOTH",
"305.667 51 OFFCURVE",
"280.667 56.667 OFFCURVE",
"262 68 CURVE",
"244 6 LINE",
"269.333 -3.333 OFFCURVE",
"291 -10 OFFCURVE",
"307 -10 CURVE SMOOTH",
"348.333 -10 OFFCURVE",
"384.333 1.5 OFFCURVE",
"415 24.5 CURVE SMOOTH",
"476.333 70.5 OFFCURVE",
"511 158.333 OFFCURVE",
"511 277 CURVE SMOOTH",
"511 318.333 OFFCURVE",
"502.167 356.5 OFFCURVE",
"484.5 391.5 CURVE SMOOTH",
"449.167 461.5 OFFCURVE",
"386.333 505 OFFCURVE",
"317 505 CURVE SMOOTH"
);
}
);
userData = {
assembly = "NPUSHB[ ]	/* 21 values pushed */\01233 32 2 5 3 40 11 2 1 2 10 1 0 1 3 74 25 24 2 0 71 \012MPPEM[ ]	/* MeasurePixelPerEm */\012PUSHB[ ]	/* 1 value pushed */\0129 \012LT[ ]	/* LessThan */\012IF[ ]	/* If */\012NPUSHB[ ]	/* 30 values pushed */\0120 4 0 3 5 4 3 99 0 2 2 5 91 6 1 5 5 45 75 0 1 1 0 91 0 0 0 46 0 76 \012ELSE[ ]	/* Else */\012MPPEM[ ]	/* MeasurePixelPerEm */\012PUSHB[ ]	/* 1 value pushed */\01212 \012LT[ ]	/* LessThan */\012IF[ ]	/* If */\012NPUSHB[ ]	/* 30 values pushed */\0120 4 0 3 5 4 3 99 0 2 2 5 91 6 1 5 5 45 75 0 1 1 0 91 0 0 0 43 0 76 \012ELSE[ ]	/* Else */\012NPUSHB[ ]	/* 30 values pushed */\0120 4 0 3 5 4 3 99 0 2 2 5 91 6 1 5 5 45 75 0 1 1 0 91 0 0 0 46 0 76 \012EIF[ ]	/* EndIf */\012EIF[ ]	/* EndIf */\012NPUSHB[ ]	/* 14 values pushed */\0120 0 0 44 0 43 37 39 37 36 38 7 7 25 \012CALL[ ]	/* CallFunction */";
};
width = 558;
}
);
leftKerningGroup = b;
note = thorn;
rightKerningGroup = b;
unicode = 00FE;
},
{
glyphname = q;
layers = (
{
layerId = "F9783665-9C0C-4F5A-9005-646D18F9330F";
paths = (
{
closed = 1;
nodes = (
"261.333 510 OFFCURVE",
"217 495.833 OFFCURVE",
"177 467.5 CURVE SMOOTH",
"97 410.833 OFFCURVE",
"48 308 OFFCURVE",
"48 188 CURVE SMOOTH",
"48 66.667 OFFCURVE",
"116.667 -12 OFFCURVE",
"226 -12 CURVE SMOOTH",
"298 -12 OFFCURVE",
"356.667 37.333 OFFCURVE",
"382 116 CURVE",
"384 116 LINE",
"382 110 OFFCURVE",
"380.833 100 OFFCURVE",
"380.5 86 CURVE SMOOTH",
"380.167 72 OFFCURVE",
"380 50.333 OFFCURVE",
"380 21 CURVE SMOOTH",
"380 -195 LINE SMOOTH",
"380 -263 OFFCURVE",
"406.333 -295 OFFCURVE",
"461 -295 CURVE SMOOTH",
"501 -295 OFFCURVE",
"548 -259.333 OFFCURVE",
"564 -214 CURVE",
"550 -199 LINE",
"540.667 -219 OFFCURVE",
"517 -235 OFFCURVE",
"497 -235 CURVE SMOOTH",
"479.667 -235 OFFCURVE",
"468 -222 OFFCURVE",
"468 -202 CURVE SMOOTH",
"468 352 LINE",
"380 315 LINE",
"380 269 LINE SMOOTH",
"380 228.333 OFFCURVE",
"374.5 192.167 OFFCURVE",
"363.5 160.5 CURVE SMOOTH",
"341.5 97.167 OFFCURVE",
"300.667 60 OFFCURVE",
"250 60 CURVE SMOOTH",
"190.127 60 OFFCURVE",
"126 164.152 OFFCURVE",
"126 238 CURVE SMOOTH",
"126 276 OFFCURVE",
"133.333 311.333 OFFCURVE",
"148 344 CURVE SMOOTH",
"177.333 409.333 OFFCURVE",
"230.333 451 OFFCURVE",
"289 451 CURVE SMOOTH",
"323.667 451 OFFCURVE",
"362.667 422.667 OFFCURVE",
"396 376 CURVE",
"469 415 LINE",
"439.667 472.333 OFFCURVE",
"376.667 510 OFFCURVE",
"310 510 CURVE SMOOTH"
);
}
);
userData = {
assembly = "NPUSHB[ ]	/* 15 values pushed */\01238 20 19 3 2 5 1 0 28 27 2 2 4 2 74 \012MPPEM[ ]	/* MeasurePixelPerEm */\012PUSHB[ ]	/* 1 value pushed */\01234 \012LT[ ]	/* LessThan */\012IF[ ]	/* If */\012NPUSHB[ ]	/* 32 values pushed */\0120 0 0 5 91 6 1 5 5 45 75 0 1 1 4 91 0 4 4 43 75 0 2 2 3 91 0 3 3 47 3 76 \012ELSE[ ]	/* Else */\012NPUSHB[ ]	/* 29 values pushed */\0120 2 0 3 2 3 95 0 0 0 5 91 6 1 5 5 45 75 0 1 1 4 91 0 4 4 43 4 76 \012EIF[ ]	/* EndIf */\012NPUSHB[ ]	/* 14 values pushed */\0120 0 0 49 0 48 41 37 40 38 37 7 7 25 \012CALL[ ]	/* CallFunction */";
};
width = 545;
}
);
leftKerningGroup = c;
note = q;
rightKerningGroup = q;
unicode = 0071;
},
{
glyphname = r;
layers = (
{
layerId = "F9783665-9C0C-4F5A-9005-646D18F9330F";
paths = (
{
closed = 1;
nodes = (
"273 381 LINE",
"245.667 366.333 OFFCURVE",
"215.667 359 OFFCURVE",
"183 359 CURVE SMOOTH",
"157.667 359 OFFCURVE",
"147.667 360.667 OFFCURVE",
"125 370 CURVE",
"60 227 LINE",
"23 244 LINE",
"90 384 LINE",
"69.333 401.333 OFFCURVE",
"56.667 416.667 OFFCURVE",
"52 430 CURVE",
"133 521 LINE",
"153 471.667 OFFCURVE",
"192.667 423 OFFCURVE",
"238 423 CURVE SMOOTH",
"276.667 423 OFFCURVE",
"319.333 437.667 OFFCURVE",
"366 467 CURVE",
"382 453 LINE",
"302 367.667 OFFCURVE",
"244 278.333 OFFCURVE",
"244 177 CURVE SMOOTH",
"244 114.333 OFFCURVE",
"276.333 64 OFFCURVE",
"339 64 CURVE SMOOTH",
"359 64 OFFCURVE",
"379.333 71 OFFCURVE",
"400 85 CURVE",
"411 70 LINE",
"375 23.333 OFFCURVE",
"321 -9 OFFCURVE",
"265 -9 CURVE SMOOTH",
"195.667 -9 OFFCURVE",
"166 46 OFFCURVE",
"166 118 CURVE SMOOTH",
"166 200.667 OFFCURVE",
"216 315.333 OFFCURVE",
"276 378 CURVE"
);
}
);
userData = {
assembly = "NPUSHB[ ]	/* 48 values pushed */\01234 29 26 3 3 2 28 27 9 8 4 1 3 2 74 24 23 18 17 4 2 72 0 2 0 3 1 2 3 99 0 1 1 0 91 0 0 0 46 0 76 42 39 36 36 4 7 24 \012CALL[ ]	/* CallFunction */";
};
width = 440;
}
);
leftKerningGroup = m;
note = r;
rightKerningGroup = r;
unicode = 0072;
},
{
glyphname = s;
layers = (
{
layerId = "F9783665-9C0C-4F5A-9005-646D18F9330F";
paths = (
{
closed = 1;
nodes = (
"151 541 OFFCURVE",
"124 498.333 OFFCURVE",
"124 441 CURVE SMOOTH",
"124 415.667 OFFCURVE",
"128.667 390 OFFCURVE",
"138 364 CURVE",
"58 253 LINE",
"90 232 LINE",
"160 335 LINE",
"170.667 321.667 OFFCURVE",
"200 295.667 OFFCURVE",
"208 289 CURVE",
"272 231.667 OFFCURVE",
"309 193.667 OFFCURVE",
"309 151 CURVE SMOOTH",
"309 97.667 OFFCURVE",
"262.333 54 OFFCURVE",
"205 54 CURVE SMOOTH",
"163.667 54 OFFCURVE",
"129 87.667 OFFCURVE",
"97 129 CURVE",
"30 40 LINE",
"54 6.667 OFFCURVE",
"113.333 -12 OFFCURVE",
"156 -12 CURVE SMOOTH",
"190.667 -12 OFFCURVE",
"221.833 -3.667 OFFCURVE",
"249.5 13 CURVE SMOOTH",
"304.833 46.333 OFFCURVE",
"338 106.667 OFFCURVE",
"338 176 CURVE SMOOTH",
"338 244.837 OFFCURVE",
"296.839 305.211 OFFCURVE",
"256 340 CURVE SMOOTH",
"234 358 OFFCURVE",
"219 373.667 OFFCURVE",
"211 387 CURVE",
"228.948 413.922 OFFCURVE",
"260 442.57 OFFCURVE",
"260 492 CURVE SMOOTH",
"260 525.333 OFFCURVE",
"240.333 541 OFFCURVE",
"195 541 CURVE SMOOTH"
);
},
{
closed = 1;
nodes = (
"209.667 502 OFFCURVE",
"217 494 OFFCURVE",
"217 482 CURVE SMOOTH",
"217 464.667 OFFCURVE",
"201.667 434.333 OFFCURVE",
"187 425 CURVE",
"184.333 431.667 OFFCURVE",
"175 450 OFFCURVE",
"175 474 CURVE SMOOTH",
"175 492.667 OFFCURVE",
"177.667 502 OFFCURVE",
"195 502 CURVE SMOOTH"
);
}
);
userData = {
assembly = "NPUSHB[ ]	/* 15 values pushed */\01235 34 33 32 20 6 6 1 3 19 1 0 1 2 74 \012MPPEM[ ]	/* MeasurePixelPerEm */\012PUSHB[ ]	/* 1 value pushed */\01224 \012LT[ ]	/* LessThan */\012IF[ ]	/* If */\012NPUSHB[ ]	/* 23 values pushed */\0125 1 3 3 2 91 4 1 2 2 53 75 0 1 1 0 91 0 0 0 43 0 76 \012ELSE[ ]	/* Else */\012NPUSHB[ ]	/* 21 values pushed */\0124 1 2 5 1 3 1 2 3 99 0 1 1 0 91 0 0 0 43 0 76 \012EIF[ ]	/* EndIf */\012NPUSHB[ ]	/* 17 values pushed */\01241 41 0 0 41 52 41 51 0 40 0 39 37 47 6 7 22 \012CALL[ ]	/* CallFunction */";
};
width = 384;
}
);
leftKerningGroup = s;
note = s;
rightKerningGroup = s;
unicode = 0073;
},
{
glyphname = scedilla;
layers = (
{
layerId = "F9783665-9C0C-4F5A-9005-646D18F9330F";
paths = (
{
closed = 1;
nodes = (
"338 244.837 OFFCURVE",
"296.839 305.211 OFFCURVE",
"256 340 CURVE SMOOTH",
"234 358 OFFCURVE",
"219 373.667 OFFCURVE",
"211 387 CURVE",
"228.948 413.922 OFFCURVE",
"260 442.57 OFFCURVE",
"260 492 CURVE SMOOTH",
"260 525.333 OFFCURVE",
"240.333 541 OFFCURVE",
"195 541 CURVE SMOOTH",
"151 541 OFFCURVE",
"124 498.333 OFFCURVE",
"124 441 CURVE SMOOTH",
"124 415.667 OFFCURVE",
"128.667 390 OFFCURVE",
"138 364 CURVE",
"58 253 LINE",
"90 232 LINE",
"160 335 LINE",
"170.667 321.667 OFFCURVE",
"200 295.667 OFFCURVE",
"208 289 CURVE",
"272 231.667 OFFCURVE",
"309 193.667 OFFCURVE",
"309 151 CURVE SMOOTH",
"309 97.667 OFFCURVE",
"262.333 54 OFFCURVE",
"205 54 CURVE SMOOTH",
"163.667 54 OFFCURVE",
"129 87.667 OFFCURVE",
"97 129 CURVE",
"30 40 LINE",
"52.667 9.333 OFFCURVE",
"106.667 -9.333 OFFCURVE",
"148 -12 CURVE",
"116 -66 LINE",
"133 -80 LINE",
"143 -73.333 OFFCURVE",
"153.333 -70 OFFCURVE",
"164 -70 CURVE SMOOTH",
"188 -70 OFFCURVE",
"207 -89.333 OFFCURVE",
"207 -116 CURVE SMOOTH",
"207 -141.333 OFFCURVE",
"190.667 -160 OFFCURVE",
"168 -160 CURVE SMOOTH",
"152.667 -160 OFFCURVE",
"140 -153 OFFCURVE",
"130 -139 CURVE",
"111 -150 LINE",
"127 -180.667 OFFCURVE",
"158 -198 OFFCURVE",
"190 -198 CURVE SMOOTH",
"235.333 -198 OFFCURVE",
"277 -165.333 OFFCURVE",
"277 -116 CURVE SMOOTH",
"277 -66.667 OFFCURVE",
"243.667 -36 OFFCURVE",
"201 -36 CURVE SMOOTH",
"185 -36 OFFCURVE",
"168.333 -40.333 OFFCURVE",
"151 -49 CURVE",
"173 -11 LINE",
"204.333 -8.333 OFFCURVE",
"232.667 1.667 OFFCURVE",
"258 19 CURVE SMOOTH",
"308.667 53.667 OFFCURVE",
"338 110.667 OFFCURVE",
"338 176 CURVE SMOOTH"
);
},
{
closed = 1;
nodes = (
"184.333 431.667 OFFCURVE",
"175 450 OFFCURVE",
"175 474 CURVE SMOOTH",
"175 492.667 OFFCURVE",
"177.667 502 OFFCURVE",
"195 502 CURVE SMOOTH",
"209.667 502 OFFCURVE",
"217 494 OFFCURVE",
"217 482 CURVE SMOOTH",
"217 464.667 OFFCURVE",
"201.667 434.333 OFFCURVE",
"187 425 CURVE"
);
}
);
userData = {
assembly = "NPUSHB[ ]	/* 26 values pushed */\01259 47 46 45 44 32 6 5 7 31 1 4 5 27 4 2 3 0 26 16 15 3 2 3 4 74 \012MPPEM[ ]	/* MeasurePixelPerEm */\012PUSHB[ ]	/* 1 value pushed */\01214 \012LT[ ]	/* LessThan */\012IF[ ]	/* If */\012NPUSHB[ ]	/* 38 values pushed */\0120 5 7 4 0 5 104 0 0 0 3 2 0 3 100 0 2 0 1 2 1 95 0 7 7 6 91 0 6 6 53 75 0 4 4 43 4 76 \012ELSE[ ]	/* Else */\012MPPEM[ ]	/* MeasurePixelPerEm */\012PUSHB[ ]	/* 1 value pushed */\01224 \012LT[ ]	/* LessThan */\012IF[ ]	/* If */\012NPUSHB[ ]	/* 39 values pushed */\0120 5 7 4 7 5 4 112 0 0 0 3 2 0 3 100 0 2 0 1 2 1 95 0 7 7 6 91 0 6 6 53 75 0 4 4 43 4 76 \012ELSE[ ]	/* Else */\012NPUSHB[ ]	/* 37 values pushed */\0120 5 7 4 7 5 4 112 0 6 0 7 5 6 7 99 0 0 0 3 2 0 3 100 0 2 0 1 2 1 95 0 4 4 43 4 76 \012EIF[ ]	/* EndIf */\012EIF[ ]	/* EndIf */\012NPUSHB[ ]	/* 12 values pushed */\01272 70 47 37 19 36 36 36 37 8 7 27 \012CALL[ ]	/* CallFunction */";
};
width = 384;
}
);
leftKerningGroup = s;
note = scedilla;
rightKerningGroup = s;
unicode = 015F;
},
{
glyphname = germandbls;
layers = (
{
layerId = "F9783665-9C0C-4F5A-9005-646D18F9330F";
paths = (
{
closed = 1;
nodes = (
"251 935 OFFCURVE",
"199.167 909.833 OFFCURVE",
"165.5 859.5 CURVE SMOOTH",
"98.167 758.833 OFFCURVE",
"92 635.667 OFFCURVE",
"92 473 CURVE",
"66 473 LINE",
"43 423 LINE",
"92 423 LINE",
"92 -182 LINE",
"187 -136 LINE",
"187 753 LINE SMOOTH",
"187 846.333 OFFCURVE",
"221.333 893 OFFCURVE",
"290 893 CURVE SMOOTH",
"345.364 893 OFFCURVE",
"394 842.586 OFFCURVE",
"394 792 CURVE SMOOTH",
"394 752 OFFCURVE",
"378.333 708.333 OFFCURVE",
"349 643 CURVE SMOOTH",
"323.667 584.333 OFFCURVE",
"314 557.333 OFFCURVE",
"314 532 CURVE SMOOTH",
"314 483.333 OFFCURVE",
"321.833 441.667 OFFCURVE",
"337.5 407 CURVE SMOOTH",
"368.833 337.667 OFFCURVE",
"408.333 303 OFFCURVE",
"475 251 CURVE SMOOTH",
"535 205.667 OFFCURVE",
"560 182 OFFCURVE",
"560 142 CURVE SMOOTH",
"560 87.333 OFFCURVE",
"515.333 45 OFFCURVE",
"450 45 CURVE SMOOTH",
"416.667 45 OFFCURVE",
"371 81.667 OFFCURVE",
"347 115 CURVE",
"264 32 LINE",
"294.667 -5.333 OFFCURVE",
"351.333 -21 OFFCURVE",
"390 -21 CURVE SMOOTH",
"424.667 -21 OFFCURVE",
"456.667 -12 OFFCURVE",
"486 6 CURVE SMOOTH",
"544.667 42 OFFCURVE",
"581 106 OFFCURVE",
"581 174 CURVE SMOOTH",
"581 202.667 OFFCURVE",
"575.333 228.167 OFFCURVE",
"564 250.5 CURVE SMOOTH",
"541.333 295.167 OFFCURVE",
"512.667 321.333 OFFCURVE",
"458 364 CURVE SMOOTH",
"416.314 396.91 OFFCURVE",
"346 475.417 OFFCURVE",
"346 530 CURVE SMOOTH",
"346 576.667 OFFCURVE",
"364 609.333 OFFCURVE",
"400 664 CURVE SMOOTH",
"436 716 OFFCURVE",
"453 749 OFFCURVE",
"453 793 CURVE SMOOTH",
"453 882.333 OFFCURVE",
"399.667 935 OFFCURVE",
"321 935 CURVE SMOOTH"
);
}
);
userData = {
assembly = "NPUSHB[ ]	/* 64 values pushed */\01224 1 1 3 23 1 0 1 2 74 51 50 2 0 71 0 4 0 3 1 4 3 97 0 2 2 5 91 6 1 5 5 52 75 0 1 1 0 91 0 0 0 43 0 76 0 0 0 59 0 58 55 54 53 52 48 46 28 26 21 19 7 7 20 \012CALL[ ]	/* CallFunction */";
};
width = 635;
}
);
leftKerningGroup = b;
note = germandbls;
rightKerningGroup = germandbls;
unicode = 00DF;
},
{
glyphname = t;
layers = (
{
layerId = "F9783665-9C0C-4F5A-9005-646D18F9330F";
paths = (
{
closed = 1;
nodes = (
"193 500 LINE",
"193 766 LINE",
"100 730 LINE",
"100 500 LINE",
"56 500 LINE",
"25 436 LINE",
"100 436 LINE",
"100 96 LINE SMOOTH",
"100 28.667 OFFCURVE",
"129.333 -5 OFFCURVE",
"188 -5 CURVE",
"185.333 -5 OFFCURVE",
"183.333 -5.167 OFFCURVE",
"182 -5.5 CURVE SMOOTH",
"180.667 -5.833 OFFCURVE",
"179.667 -6 OFFCURVE",
"179 -6 CURVE",
"179 -30.025 OFFCURVE",
"272.301 22.602 OFFCURVE",
"298 74 CURVE",
"284 89 LINE",
"259.333 63 OFFCURVE",
"240 50 OFFCURVE",
"226 50 CURVE SMOOTH",
"206 50 OFFCURVE",
"193 64 OFFCURVE",
"193 84 CURVE SMOOTH",
"193 436 LINE",
"302 436 LINE",
"332 500 LINE"
);
}
);
userData = {
assembly = "NPUSHB[ ]	/* 12 values pushed */\01210 9 2 2 1 1 74 25 24 2 0 72 \012MPPEM[ ]	/* MeasurePixelPerEm */\012PUSHB[ ]	/* 1 value pushed */\01242 \012LT[ ]	/* LessThan */\012IF[ ]	/* If */\012NPUSHB[ ]	/* 26 values pushed */\0120 2 1 3 1 2 3 112 4 1 1 1 0 89 5 1 0 0 45 75 0 3 3 46 3 76 \012ELSE[ ]	/* Else */\012NPUSHB[ ]	/* 24 values pushed */\0120 2 1 3 1 2 3 112 5 1 0 4 1 1 2 0 1 97 0 3 3 46 3 76 \012EIF[ ]	/* EndIf */\012NPUSHB[ ]	/* 9 values pushed */\01217 18 40 35 17 16 6 7 26 \012CALL[ ]	/* CallFunction */";
};
width = 346;
}
);
leftKerningGroup = t;
note = t;
rightKerningGroup = t;
unicode = 0074;
},
{
glyphname = tbar;
layers = (
{
layerId = "F9783665-9C0C-4F5A-9005-646D18F9330F";
paths = (
{
closed = 1;
nodes = (
"193 308 LINE",
"193 436 LINE",
"302 436 LINE",
"332 500 LINE",
"193 500 LINE",
"193 766 LINE",
"100 730 LINE",
"100 500 LINE",
"56 500 LINE",
"25 436 LINE",
"100 436 LINE",
"100 308 LINE",
"44 308 LINE",
"19 262 LINE",
"100 262 LINE",
"100 96 LINE SMOOTH",
"100 28.667 OFFCURVE",
"129.333 -5 OFFCURVE",
"188 -5 CURVE",
"185.333 -5 OFFCURVE",
"183.333 -5.167 OFFCURVE",
"182 -5.5 CURVE SMOOTH",
"180.667 -5.833 OFFCURVE",
"179.667 -6 OFFCURVE",
"179 -6 CURVE",
"179 -30.025 OFFCURVE",
"272.301 22.602 OFFCURVE",
"298 74 CURVE",
"284 89 LINE",
"259.333 63 OFFCURVE",
"240 50 OFFCURVE",
"226 50 CURVE SMOOTH",
"206 50 OFFCURVE",
"193 64 OFFCURVE",
"193 84 CURVE SMOOTH",
"193 262 LINE",
"298 262 LINE",
"321 308 LINE"
);
}
);
userData = {
assembly = "NPUSHB[ ]	/* 12 values pushed */\01210 9 2 2 1 1 74 29 28 2 7 72 \012MPPEM[ ]	/* MeasurePixelPerEm */\012PUSHB[ ]	/* 1 value pushed */\01242 \012LT[ ]	/* LessThan */\012IF[ ]	/* If */\012NPUSHB[ ]	/* 36 values pushed */\0120 2 1 3 1 2 3 112 5 1 0 4 1 1 2 0 1 97 9 1 6 6 7 89 8 1 7 7 45 75 0 3 3 46 3 76 \012ELSE[ ]	/* Else */\012NPUSHB[ ]	/* 34 values pushed */\0120 2 1 3 1 2 3 112 8 1 7 9 1 6 0 7 6 97 5 1 0 4 1 1 2 0 1 97 0 3 3 46 3 76 \012EIF[ ]	/* EndIf */\012NPUSHB[ ]	/* 14 values pushed */\01233 32 19 17 17 17 18 40 35 17 16 10 7 29 \012CALL[ ]	/* CallFunction */";
};
width = 345;
}
);
leftKerningGroup = t;
note = tbar;
rightKerningGroup = t;
unicode = 0167;
},
{
glyphname = u;
layers = (
{
layerId = "F9783665-9C0C-4F5A-9005-646D18F9330F";
paths = (
{
closed = 1;
nodes = (
"484 514 LINE",
"384 469 LINE",
"384 455.667 OFFCURVE",
"376.167 415.333 OFFCURVE",
"360.5 348 CURVE SMOOTH",
"329.167 213.333 OFFCURVE",
"277.333 79 OFFCURVE",
"220 79 CURVE SMOOTH",
"215.333 79 OFFCURVE",
"211.333 82.167 OFFCURVE",
"208 88.5 CURVE SMOOTH",
"204.667 94.833 OFFCURVE",
"203 105.333 OFFCURVE",
"203 120 CURVE SMOOTH",
"203 408 LINE SMOOTH",
"203 474 OFFCURVE",
"174.333 507 OFFCURVE",
"117 507 CURVE",
"119.667 507 OFFCURVE",
"121.667 507.167 OFFCURVE",
"123 507.5 CURVE SMOOTH",
"124.333 507.833 OFFCURVE",
"125.333 508 OFFCURVE",
"126 508 CURVE",
"126 530.511 OFFCURVE",
"39.821 478.825 OFFCURVE",
"18 427 CURVE",
"30 411 LINE",
"50 437.667 OFFCURVE",
"68 451 OFFCURVE",
"84 451 CURVE SMOOTH",
"101.333 451 OFFCURVE",
"112 436.667 OFFCURVE",
"112 414 CURVE SMOOTH",
"112 132 LINE SMOOTH",
"112 63.128 OFFCURVE",
"133.384 -12 OFFCURVE",
"179 -12 CURVE SMOOTH",
"293.667 -12 OFFCURVE",
"349.333 160 OFFCURVE",
"384 324 CURVE",
"387 324 LINE",
"395 304 LINE",
"394.333 282 OFFCURVE",
"394 252.667 OFFCURVE",
"394 216 CURVE SMOOTH",
"394 88.049 OFFCURVE",
"424.21 -5 OFFCURVE",
"473 -5 CURVE SMOOTH",
"520 -5 OFFCURVE",
"543.831 1.638 OFFCURVE",
"579 77 CURVE",
"564 92 LINE",
"544 66 OFFCURVE",
"527 53 OFFCURVE",
"513 53 CURVE SMOOTH",
"494.333 53 OFFCURVE",
"484 67 OFFCURVE",
"484 87 CURVE SMOOTH"
);
}
);
userData = {
assembly = "NPUSHB[ ]	/* 22 values pushed */\01249 1 3 4 32 31 17 16 5 5 5 3 6 1 0 5 3 74 50 1 4 72 \012MPPEM[ ]	/* MeasurePixelPerEm */\012PUSHB[ ]	/* 1 value pushed */\01234 \012LT[ ]	/* LessThan */\012IF[ ]	/* If */\012NPUSHB[ ]	/* 33 values pushed */\0120 3 4 5 4 3 5 112 0 0 5 1 5 0 1 112 0 4 4 45 75 0 5 5 1 92 2 1 1 1 46 1 76 \012ELSE[ ]	/* Else */\012NPUSHB[ ]	/* 37 values pushed */\0120 3 4 5 4 3 5 112 0 0 5 1 5 0 1 112 0 4 4 45 75 0 1 1 46 75 0 5 5 2 92 0 2 2 43 2 76 \012EIF[ ]	/* EndIf */\012NPUSHB[ ]	/* 9 values pushed */\01236 40 38 41 52 34 6 7 26 \012CALL[ ]	/* CallFunction */";
};
width = 593;
}
);
leftKerningGroup = u;
note = u;
rightKerningGroup = u;
unicode = 0075;
},
{
glyphname = uogonek;
layers = (
{
layerId = "F9783665-9C0C-4F5A-9005-646D18F9330F";
paths = (
{
closed = 1;
nodes = (
"564 -111 LINE",
"550.667 -128.333 OFFCURVE",
"534.333 -137 OFFCURVE",
"515 -137 CURVE SMOOTH",
"484.333 -137 OFFCURVE",
"469 -118.333 OFFCURVE",
"469 -89 CURVE SMOOTH",
"469 -58.333 OFFCURVE",
"486.667 -22.667 OFFCURVE",
"516 4 CURVE",
"514 6 LINE",
"540.667 19.333 OFFCURVE",
"562.333 43 OFFCURVE",
"579 77 CURVE",
"564 92 LINE",
"544 66 OFFCURVE",
"527 53 OFFCURVE",
"513 53 CURVE SMOOTH",
"494.333 53 OFFCURVE",
"484 67 OFFCURVE",
"484 87 CURVE SMOOTH",
"484 514 LINE",
"384 469 LINE",
"384 455.667 OFFCURVE",
"376.167 415.333 OFFCURVE",
"360.5 348 CURVE SMOOTH",
"329.167 213.333 OFFCURVE",
"277.333 79 OFFCURVE",
"220 79 CURVE SMOOTH",
"215.333 79 OFFCURVE",
"211.333 82.167 OFFCURVE",
"208 88.5 CURVE SMOOTH",
"204.667 94.833 OFFCURVE",
"203 105.333 OFFCURVE",
"203 120 CURVE SMOOTH",
"203 408 LINE SMOOTH",
"203 474 OFFCURVE",
"174.333 507 OFFCURVE",
"117 507 CURVE",
"119.667 507 OFFCURVE",
"121.667 507.167 OFFCURVE",
"123 507.5 CURVE SMOOTH",
"124.333 507.833 OFFCURVE",
"125.333 508 OFFCURVE",
"126 508 CURVE",
"126 530.511 OFFCURVE",
"39.821 478.825 OFFCURVE",
"18 427 CURVE",
"30 411 LINE",
"50 437.667 OFFCURVE",
"68 451 OFFCURVE",
"84 451 CURVE SMOOTH",
"101.333 451 OFFCURVE",
"112 436.667 OFFCURVE",
"112 414 CURVE SMOOTH",
"112 132 LINE SMOOTH",
"112 63.128 OFFCURVE",
"133.384 -12 OFFCURVE",
"179 -12 CURVE SMOOTH",
"293.667 -12 OFFCURVE",
"349.333 160 OFFCURVE",
"384 324 CURVE",
"387 324 LINE",
"395 304 LINE",
"394.333 282 OFFCURVE",
"394 252.667 OFFCURVE",
"394 216 CURVE SMOOTH",
"394 88.049 OFFCURVE",
"424.21 -5 OFFCURVE",
"473 -5 CURVE",
"463.667 -5 OFFCURVE",
"463 -7 OFFCURVE",
"471 -7 CURVE",
"429 -41.667 OFFCURVE",
"408 -79.333 OFFCURVE",
"408 -120 CURVE SMOOTH",
"408 -169.333 OFFCURVE",
"447 -195 OFFCURVE",
"487 -195 CURVE SMOOTH",
"524.333 -195 OFFCURVE",
"557 -167.333 OFFCURVE",
"581 -126 CURVE"
);
}
);
userData = {
assembly = "MPPEM[ ]	/* MeasurePixelPerEm */\012PUSHB[ ]	/* 1 value pushed */\01240 \012LT[ ]	/* LessThan */\012IF[ ]	/* If */\012NPUSHB[ ]	/* 26 values pushed */\01250 1 3 4 57 33 32 18 17 5 5 3 58 1 6 5 69 1 7 1 4 74 51 1 4 72 \012ELSE[ ]	/* Else */\012NPUSHB[ ]	/* 26 values pushed */\01250 1 3 4 57 33 32 18 17 5 5 3 58 1 6 5 69 1 7 2 4 74 51 1 4 72 \012EIF[ ]	/* EndIf */\012MPPEM[ ]	/* MeasurePixelPerEm */\012PUSHB[ ]	/* 1 value pushed */\01240 \012LT[ ]	/* LessThan */\012IF[ ]	/* If */\012NPUSHB[ ]	/* 40 values pushed */\0120 3 4 5 4 3 5 112 0 6 5 1 5 6 1 112 0 7 0 0 7 0 96 0 4 4 45 75 0 5 5 1 92 2 1 1 1 46 1 76 \012ELSE[ ]	/* Else */\012NPUSHB[ ]	/* 44 values pushed */\0120 3 4 5 4 3 5 112 0 6 5 1 5 6 1 112 0 7 0 0 7 0 96 0 4 4 45 75 0 1 1 46 75 0 5 5 2 92 0 2 2 43 2 76 \012EIF[ ]	/* EndIf */\012NPUSHB[ ]	/* 11 values pushed */\01242 39 36 40 38 41 68 34 8 7 28 \012CALL[ ]	/* CallFunction */";
};
width = 593;
}
);
leftKerningGroup = u;
note = uogonek;
rightKerningGroup = u;
unicode = 0173;
},
{
glyphname = v;
layers = (
{
layerId = "F9783665-9C0C-4F5A-9005-646D18F9330F";
paths = (
{
closed = 1;
nodes = (
"343 436 LINE",
"396.333 411.333 OFFCURVE",
"423 374.333 OFFCURVE",
"423 325 CURVE SMOOTH",
"423 313 OFFCURVE",
"420.5 300.667 OFFCURVE",
"415.5 288 CURVE SMOOTH",
"410.5 275.333 OFFCURVE",
"407.667 268 OFFCURVE",
"407 266 CURVE",
"318 85 LINE",
"178 396 LINE SMOOTH",
"169.071 416.835 OFFCURVE",
"143.332 500 OFFCURVE",
"109 500 CURVE SMOOTH",
"65 500 OFFCURVE",
"15 462.667 OFFCURVE",
"-1 412 CURVE",
"8 401 LINE",
"10 402.333 OFFCURVE",
"13.833 405.167 OFFCURVE",
"19.5 409.5 CURVE SMOOTH",
"25.167 413.833 OFFCURVE",
"31.333 416 OFFCURVE",
"38 416 CURVE SMOOTH",
"56 416 OFFCURVE",
"73.333 400.667 OFFCURVE",
"90 370 CURVE",
"263 -8 LINE",
"264.333 -12 OFFCURVE",
"276.333 -17 OFFCURVE",
"287 -17 CURVE SMOOTH",
"293.667 -17 OFFCURVE",
"304.333 -13.667 OFFCURVE",
"307 -11 CURVE",
"481 333 LINE SMOOTH",
"493 357 OFFCURVE",
"501 394 OFFCURVE",
"501 422 CURVE SMOOTH",
"501 474 OFFCURVE",
"470.333 516.667 OFFCURVE",
"417 534 CURVE"
);
}
);
userData = {
assembly = "NPUSHB[ ]	/* 15 values pushed */\01233 1 1 2 27 19 2 0 1 2 74 34 1 2 72 \012MPPEM[ ]	/* MeasurePixelPerEm */\012PUSHB[ ]	/* 1 value pushed */\01242 \012LT[ ]	/* LessThan */\012IF[ ]	/* If */\012NPUSHB[ ]	/* 19 values pushed */\0120 1 2 0 2 1 0 112 0 2 2 45 75 0 0 0 43 0 76 \012ELSE[ ]	/* Else */\012NPUSHB[ ]	/* 16 values pushed */\0120 2 1 2 114 0 1 0 1 114 0 0 0 43 0 76 \012EIF[ ]	/* EndIf */\012PUSHB[ ]	/* 6 values pushed */\01237 36 40 3 7 23 \012CALL[ ]	/* CallFunction */";
};
width = 515;
}
);
leftKerningGroup = v;
note = v;
rightKerningGroup = v;
unicode = 0076;
},
{
glyphname = w;
layers = (
{
layerId = "F9783665-9C0C-4F5A-9005-646D18F9330F";
paths = (
{
closed = 1;
nodes = (
"540 436 LINE",
"584 413.333 OFFCURVE",
"610 374.333 OFFCURVE",
"610 325 CURVE SMOOTH",
"610 303.667 OFFCURVE",
"607.333 287.667 OFFCURVE",
"602 277 CURVE",
"543 134 LINE",
"437 510 LINE",
"344 475 LINE",
"376 365 LINE",
"289 136 LINE",
"204 401 LINE SMOOTH",
"186.661 454.352 OFFCURVE",
"172.767 500 OFFCURVE",
"134 500 CURVE SMOOTH",
"83.333 500 OFFCURVE",
"42.333 465.333 OFFCURVE",
"13 412 CURVE",
"24 396 LINE",
"37.333 409.333 OFFCURVE",
"51.667 416 OFFCURVE",
"67 416 CURVE SMOOTH",
"93.667 416 OFFCURVE",
"106.333 403.333 OFFCURVE",
"117 366 CURVE SMOOTH",
"229 15 LINE",
"234.333 3 OFFCURVE",
"241 -4 OFFCURVE",
"257 -4 CURVE SMOOTH",
"273 -4 OFFCURVE",
"278 2.667 OFFCURVE",
"286 20 CURVE",
"393 303 LINE",
"475 18 LINE SMOOTH",
"479 5.333 OFFCURVE",
"489.667 -1 OFFCURVE",
"507 -1 CURVE SMOOTH",
"522.333 -1 OFFCURVE",
"531.667 5 OFFCURVE",
"535 17 CURVE",
"668 332 LINE SMOOTH",
"677.333 356 OFFCURVE",
"684 392.333 OFFCURVE",
"684 419 CURVE SMOOTH",
"684 475.667 OFFCURVE",
"660.333 515 OFFCURVE",
"613 537 CURVE"
);
}
);
userData = {
assembly = "NPUSHB[ ]	/* 21 values pushed */\01242 34 2 2 3 36 33 32 24 23 10 6 0 2 2 74 43 35 2 3 72 \012MPPEM[ ]	/* MeasurePixelPerEm */\012PUSHB[ ]	/* 1 value pushed */\01242 \012LT[ ]	/* LessThan */\012IF[ ]	/* If */\012NPUSHB[ ]	/* 20 values pushed */\0120 2 3 0 3 2 0 112 0 3 3 45 75 1 1 0 0 46 0 76 \012ELSE[ ]	/* Else */\012NPUSHB[ ]	/* 17 values pushed */\0120 3 2 3 114 0 2 0 2 114 1 1 0 0 46 0 76 \012EIF[ ]	/* EndIf */\012PUSHB[ ]	/* 7 values pushed */\01236 37 37 38 4 7 24 \012CALL[ ]	/* CallFunction */";
};
width = 715;
}
);
leftKerningGroup = w;
note = w;
rightKerningGroup = w;
unicode = 0077;
},
{
glyphname = x;
layers = (
{
layerId = "F9783665-9C0C-4F5A-9005-646D18F9330F";
paths = (
{
closed = 1;
nodes = (
"514 82 LINE",
"500 74.667 OFFCURVE",
"489.667 71 OFFCURVE",
"483 71 CURVE SMOOTH",
"466.333 71 OFFCURVE",
"448.167 81.167 OFFCURVE",
"428.5 101.5 CURVE SMOOTH",
"389.167 142.167 OFFCURVE",
"359.667 190 OFFCURVE",
"297 294 CURVE",
"323.667 366 OFFCURVE",
"354.333 405 OFFCURVE",
"413 405 CURVE SMOOTH",
"433 405 OFFCURVE",
"457.667 394.667 OFFCURVE",
"471 384 CURVE",
"517 489 LINE",
"499.667 510.333 OFFCURVE",
"475.333 521 OFFCURVE",
"444 521 CURVE SMOOTH",
"348 521 OFFCURVE",
"306.667 454.333 OFFCURVE",
"272 337 CURVE",
"238.667 391.667 OFFCURVE",
"209.5 434 OFFCURVE",
"184.5 464 CURVE SMOOTH",
"159.5 494 OFFCURVE",
"136.667 509 OFFCURVE",
"116 509 CURVE SMOOTH",
"88 509 OFFCURVE",
"52.667 477.667 OFFCURVE",
"26 439 CURVE",
"38 422 LINE",
"47.333 429.333 OFFCURVE",
"58.333 433 OFFCURVE",
"71 433 CURVE SMOOTH",
"92.333 433 OFFCURVE",
"116.167 416 OFFCURVE",
"142.5 382 CURVE SMOOTH",
"168.833 348 OFFCURVE",
"201.667 298 OFFCURVE",
"241 232 CURVE",
"215.667 153.333 OFFCURVE",
"185.667 109 OFFCURVE",
"127 109 CURVE SMOOTH",
"111 109 OFFCURVE",
"84 122.667 OFFCURVE",
"76 132 CURVE",
"25 23 LINE",
"44.333 3 OFFCURVE",
"68 -7 OFFCURVE",
"96 -7 CURVE SMOOTH",
"130 -7 OFFCURVE",
"158 1.833 OFFCURVE",
"180 19.5 CURVE SMOOTH",
"224 54.833 OFFCURVE",
"244.333 107.333 OFFCURVE",
"267 190 CURVE",
"305 126.667 OFFCURVE",
"337.667 78 OFFCURVE",
"365 44 CURVE SMOOTH",
"392.333 10 OFFCURVE",
"417.333 -7 OFFCURVE",
"440 -7 CURVE SMOOTH",
"464 -7 OFFCURVE",
"501.667 26.333 OFFCURVE",
"527 65 CURVE"
);
}
);
userData = {
assembly = "NPUSHB[ ]	/* 79 values pushed */\01236 25 2 3 4 24 1 6 3 43 37 31 19 13 6 6 2 6 49 1 7 2 12 1 0 7 5 74 0 7 2 0 2 7 0 112 0 3 3 4 91 0 4 4 45 75 0 6 6 5 91 0 5 5 53 75 0 2 2 0 91 1 1 0 0 46 0 76 37 36 36 36 36 36 37 34 8 7 28 \012CALL[ ]	/* CallFunction */";
};
width = 563;
}
);
leftKerningGroup = x;
note = x;
rightKerningGroup = x;
unicode = 0078;
},
{
glyphname = y;
layers = (
{
layerId = "F9783665-9C0C-4F5A-9005-646D18F9330F";
paths = (
{
closed = 1;
nodes = (
"484 514 LINE",
"385 469 LINE",
"385 431.667 OFFCURVE",
"375 383.167 OFFCURVE",
"355 323.5 CURVE SMOOTH",
"321.976 224.98 OFFCURVE",
"261.303 98 OFFCURVE",
"222 98 CURVE SMOOTH",
"208 98 OFFCURVE",
"201 110.333 OFFCURVE",
"201 135 CURVE SMOOTH",
"201 408 LINE SMOOTH",
"201 473.333 OFFCURVE",
"174.333 508 OFFCURVE",
"121 508 CURVE SMOOTH",
"66.333 508 OFFCURVE",
"44.333 489.667 OFFCURVE",
"15 427 CURVE",
"31 411 LINE",
"49.667 438.333 OFFCURVE",
"67.333 452 OFFCURVE",
"84 452 CURVE SMOOTH",
"100 452 OFFCURVE",
"112 435.333 OFFCURVE",
"112 414 CURVE SMOOTH",
"112 132 LINE SMOOTH",
"112 47.721 OFFCURVE",
"137.291 -12 OFFCURVE",
"179 -12 CURVE SMOOTH",
"266.333 -12 OFFCURVE",
"337.333 112 OFFCURVE",
"392 360 CURVE",
"398 360 LINE",
"398 300 LINE SMOOTH",
"397.333 264.667 OFFCURVE",
"397 185 OFFCURVE",
"397 61 CURVE SMOOTH",
"397 -59.952 OFFCURVE",
"349.125 -225 OFFCURVE",
"287 -225 CURVE SMOOTH",
"253.667 -225 OFFCURVE",
"212 -206 OFFCURVE",
"184 -178 CURVE",
"114 -267 LINE",
"148.667 -292.333 OFFCURVE",
"179 -302 OFFCURVE",
"215 -302 CURVE SMOOTH",
"261.667 -302 OFFCURVE",
"305.667 -285.667 OFFCURVE",
"347 -253 CURVE SMOOTH",
"429.667 -187.667 OFFCURVE",
"484 -71.333 OFFCURVE",
"484 54 CURVE SMOOTH"
);
}
);
userData = {
assembly = "NPUSHB[ ]	/* 64 values pushed */\01245 1 3 4 32 31 18 3 5 3 8 1 1 2 7 1 0 1 4 74 46 1 4 72 0 3 3 4 91 0 4 4 45 75 0 5 5 2 91 0 2 2 43 75 0 1 1 0 91 0 0 0 47 0 76 36 36 38 40 37 35 6 7 26 \012CALL[ ]	/* CallFunction */";
};
width = 566;
}
);
leftKerningGroup = y;
note = y;
rightKerningGroup = y;
unicode = 0079;
},
{
glyphname = z;
layers = (
{
layerId = "F9783665-9C0C-4F5A-9005-646D18F9330F";
paths = (
{
closed = 1;
nodes = (
"137 84 LINE",
"453 494 LINE",
"446 512 LINE",
"401.333 497.333 OFFCURVE",
"339.333 490 OFFCURVE",
"260 490 CURVE SMOOTH",
"240 490 OFFCURVE",
"218.333 491.667 OFFCURVE",
"195 495 CURVE SMOOTH",
"161.667 499 OFFCURVE",
"134 500.667 OFFCURVE",
"112 500 CURVE",
"31 394 LINE",
"41.667 396.667 OFFCURVE",
"84 404 OFFCURVE",
"96 404 CURVE SMOOTH",
"121.333 404 OFFCURVE",
"145 403 OFFCURVE",
"167 401 CURVE",
"192.333 399.667 OFFCURVE",
"212 399 OFFCURVE",
"226 399 CURVE SMOOTH",
"276 399 OFFCURVE",
"312.333 405 OFFCURVE",
"335 417 CURVE",
"340 409 LINE",
"31 8 LINE",
"44 -9 LINE",
"98.667 7.667 OFFCURVE",
"148.667 16 OFFCURVE",
"194 16 CURVE SMOOTH",
"210.667 16 OFFCURVE",
"239 12 OFFCURVE",
"279 4 CURVE",
"284.333 3.333 OFFCURVE",
"295.833 1.333 OFFCURVE",
"313.5 -2 CURVE SMOOTH",
"331.167 -5.333 OFFCURVE",
"346.667 -7 OFFCURVE",
"360 -7 CURVE SMOOTH",
"372.667 -7 OFFCURVE",
"383.667 -3.667 OFFCURVE",
"393 3 CURVE",
"472 113 LINE",
"440 101 OFFCURVE",
"402.667 95 OFFCURVE",
"360 95 CURVE SMOOTH",
"344 95 OFFCURVE",
"326.333 96 OFFCURVE",
"307 98 CURVE",
"283 99.333 OFFCURVE",
"266 100 OFFCURVE",
"256 100 CURVE SMOOTH",
"218.667 100 OFFCURVE",
"174 93.667 OFFCURVE",
"142 79 CURVE"
);
}
);
userData = {
assembly = "MPPEM[ ]	/* MeasurePixelPerEm */\012PUSHB[ ]	/* 1 value pushed */\01224 \012LT[ ]	/* LessThan */\012IF[ ]	/* If */\012NPUSHB[ ]	/* 23 values pushed */\01221 1 4 6 30 8 2 0 4 40 1 3 0 3 74 37 1 6 72 18 1 2 71 \012ELSE[ ]	/* Else */\012NPUSHB[ ]	/* 23 values pushed */\01221 1 4 7 30 8 2 0 4 40 1 3 0 3 74 37 1 6 72 18 1 2 71 \012EIF[ ]	/* EndIf */\012MPPEM[ ]	/* MeasurePixelPerEm */\012PUSHB[ ]	/* 1 value pushed */\01224 \012LT[ ]	/* LessThan */\012IF[ ]	/* If */\012NPUSHB[ ]	/* 32 values pushed */\0120 3 0 2 0 3 2 112 5 1 4 4 6 91 7 1 6 6 45 75 1 1 0 0 2 91 0 2 2 46 2 76 \012ELSE[ ]	/* Else */\012MPPEM[ ]	/* MeasurePixelPerEm */\012PUSHB[ ]	/* 1 value pushed */\01242 \012LT[ ]	/* LessThan */\012IF[ ]	/* If */\012NPUSHB[ ]	/* 37 values pushed */\0120 3 0 2 0 3 2 112 0 7 4 4 7 87 5 1 4 4 6 91 0 6 6 45 75 1 1 0 0 2 91 0 2 2 46 2 76 \012ELSE[ ]	/* Else */\012NPUSHB[ ]	/* 35 values pushed */\0120 3 0 2 0 3 2 112 0 6 7 4 6 87 0 7 5 1 4 0 7 4 99 1 1 0 0 2 91 0 2 2 46 2 76 \012EIF[ ]	/* EndIf */\012EIF[ ]	/* EndIf */\012NPUSHB[ ]	/* 11 values pushed */\01234 19 33 53 35 35 33 49 8 7 28 \012CALL[ ]	/* CallFunction */";
};
width = 497;
}
);
leftKerningGroup = z;
note = z;
rightKerningGroup = z;
unicode = 007A;
},
{
glyphname = f_f;
layers = (
{
layerId = "F9783665-9C0C-4F5A-9005-646D18F9330F";
paths = (
{
closed = 1;
nodes = (
"479.333 718 OFFCURVE",
"433 694.333 OFFCURVE",
"401 647 CURVE",
"358.333 691 OFFCURVE",
"304.333 718 OFFCURVE",
"259 718 CURVE SMOOTH",
"128.333 718 OFFCURVE",
"69 614 OFFCURVE",
"69 490 CURVE SMOOTH",
"69 384 LINE",
"40 384 LINE",
"20 335 LINE",
"69 335 LINE",
"69 -139 LINE",
"157 -102 LINE",
"157 335 LINE",
"363 335 LINE",
"363 -139 LINE",
"450 -102 LINE",
"450 335 LINE",
"567 335 LINE",
"589 384 LINE",
"450 384 LINE",
"450 595 LINE SMOOTH",
"450 643 OFFCURVE",
"465.333 684 OFFCURVE",
"512 684 CURVE SMOOTH",
"546.667 684 OFFCURVE",
"572 654.667 OFFCURVE",
"584 616 CURVE",
"652 653 LINE",
"625.333 691.667 OFFCURVE",
"578.667 718 OFFCURVE",
"540 718 CURVE SMOOTH"
);
},
{
closed = 1;
nodes = (
"305 684 OFFCURVE",
"347 635.667 OFFCURVE",
"371 561 CURVE",
"365.667 539.667 OFFCURVE",
"363 516 OFFCURVE",
"363 490 CURVE SMOOTH",
"363 384 LINE",
"157 384 LINE",
"157 578 LINE SMOOTH",
"157 648.667 OFFCURVE",
"185 684 OFFCURVE",
"241 684 CURVE SMOOTH"
);
}
);
userData = {
assembly = "NPUSHB[ ]	/* 66 values pushed */\01239 30 3 2 4 1 0 1 74 19 18 15 14 4 2 71 8 5 2 1 4 3 2 2 1 2 93 11 9 2 0 0 6 91 10 7 2 6 6 42 0 76 33 33 0 0 33 42 33 41 36 35 0 32 0 31 35 17 19 19 17 19 37 12 7 27 \012CALL[ ]	/* CallFunction */";
};
width = 568;
}
);
leftKerningGroup = f;
note = f_f;
rightKerningGroup = f;
},
{
glyphname = f_f_i;
layers = (
{
layerId = "F9783665-9C0C-4F5A-9005-646D18F9330F";
paths = (
{
closed = 1;
nodes = (
"780 71 LINE",
"767.333 53.667 OFFCURVE",
"755.333 45 OFFCURVE",
"744 45 CURVE SMOOTH",
"730 45 OFFCURVE",
"723 53.667 OFFCURVE",
"723 71 CURVE SMOOTH",
"723 412 LINE",
"635 384 LINE",
"447 384 LINE",
"447 578 LINE SMOOTH",
"447 638 OFFCURVE",
"464.333 683 OFFCURVE",
"527 683 CURVE SMOOTH",
"573.667 683 OFFCURVE",
"606.667 643.333 OFFCURVE",
"624 586 CURVE",
"707 616 LINE",
"669.667 677.333 OFFCURVE",
"600.333 718 OFFCURVE",
"543 718 CURVE SMOOTH",
"478.333 718 OFFCURVE",
"430 692.667 OFFCURVE",
"398 642 CURVE",
"356.667 694 OFFCURVE",
"308.333 718 OFFCURVE",
"259 718 CURVE SMOOTH",
"131 718 OFFCURVE",
"74 615.333 OFFCURVE",
"74 490 CURVE SMOOTH",
"74 384 LINE",
"46 384 LINE",
"24 335 LINE",
"74 335 LINE",
"74 -139 LINE",
"160 -102 LINE",
"160 335 LINE",
"359 335 LINE",
"359 -139 LINE",
"447 -102 LINE",
"447 335 LINE",
"635 335 LINE",
"635 75 LINE SMOOTH",
"635 23 OFFCURVE",
"663.333 -5 OFFCURVE",
"702 -5 CURVE SMOOTH",
"736.667 -5 OFFCURVE",
"772.667 16.667 OFFCURVE",
"794 58 CURVE"
);
},
{
closed = 1;
nodes = (
"359 384 LINE",
"160 384 LINE",
"160 578 LINE SMOOTH",
"160 638 OFFCURVE",
"177 683 OFFCURVE",
"241 683 CURVE SMOOTH",
"298.333 683 OFFCURVE",
"340 642 OFFCURVE",
"366 560 CURVE",
"361.333 537.333 OFFCURVE",
"359 514 OFFCURVE",
"359 490 CURVE SMOOTH"
);
}
);
userData = {
assembly = "NPUSHB[ ]	/* 75 values pushed */\01248 39 30 29 24 5 4 7 45 44 2 9 1 2 74 13 12 9 8 4 0 71 11 8 2 4 3 2 2 1 9 4 1 97 10 1 7 7 5 91 6 1 5 5 42 75 0 9 9 0 91 0 0 0 46 0 76 55 54 51 49 43 41 19 37 35 35 17 19 19 19 33 12 7 29 \012CALL[ ]	/* CallFunction */";
};
width = 804;
}
);
note = f_f_i;
},
{
glyphname = f_f_l;
layers = (
{
layerId = "F9783665-9C0C-4F5A-9005-646D18F9330F";
paths = (
{
closed = 1;
nodes = (
"131 718 OFFCURVE",
"74 615.333 OFFCURVE",
"74 490 CURVE SMOOTH",
"74 384 LINE",
"46 384 LINE",
"24 335 LINE",
"74 335 LINE",
"74 -139 LINE",
"160 -102 LINE",
"160 335 LINE",
"359 335 LINE",
"359 -139 LINE",
"447 -102 LINE",
"447 335 LINE",
"559 335 LINE",
"581 384 LINE",
"447 384 LINE",
"447 578 LINE SMOOTH",
"447 638 OFFCURVE",
"464.333 683 OFFCURVE",
"527 683 CURVE SMOOTH",
"580.333 683 OFFCURVE",
"618.333 641 OFFCURVE",
"637 581 CURVE",
"637 75 LINE SMOOTH",
"637 21.667 OFFCURVE",
"661 -5 OFFCURVE",
"709 -5 CURVE SMOOTH",
"745 -5 OFFCURVE",
"780 22 OFFCURVE",
"796 58 CURVE",
"783 71 LINE",
"772.333 57.667 OFFCURVE",
"757 45 OFFCURVE",
"745 45 CURVE SMOOTH",
"731.667 45 OFFCURVE",
"725 53.667 OFFCURVE",
"725 71 CURVE SMOOTH",
"725 711 LINE",
"645 682 LINE",
"613 706 OFFCURVE",
"576.333 718 OFFCURVE",
"543 718 CURVE SMOOTH",
"478.333 718 OFFCURVE",
"430 692.667 OFFCURVE",
"398 642 CURVE",
"356.667 694 OFFCURVE",
"308.333 718 OFFCURVE",
"259 718 CURVE SMOOTH"
);
},
{
closed = 1;
nodes = (
"298.333 683 OFFCURVE",
"340 642 OFFCURVE",
"366 560 CURVE",
"361.333 537.333 OFFCURVE",
"359 513.333 OFFCURVE",
"359 488 CURVE SMOOTH",
"359 384 LINE",
"160 384 LINE",
"160 578 LINE SMOOTH",
"160 638 OFFCURVE",
"177 683 OFFCURVE",
"241 683 CURVE SMOOTH"
);
}
);
userData = {
assembly = "NPUSHB[ ]	/* 88 values pushed */\0128 1 3 0 53 21 7 2 4 4 3 15 14 2 1 5 3 74 37 36 33 32 4 2 71 10 8 2 4 7 6 2 5 1 4 5 97 13 11 2 3 3 0 91 12 9 2 0 0 42 75 0 1 1 2 91 0 2 2 46 2 76 46 46 0 0 46 55 46 54 50 49 0 45 0 44 17 19 19 17 19 36 37 37 35 14 7 29 \012CALL[ ]	/* CallFunction */";
};
width = 807;
}
);
note = f_f_l;
},
{
glyphname = fi;
layers = (
{
layerId = "F9783665-9C0C-4F5A-9005-646D18F9330F";
paths = (
{
closed = 1;
nodes = (
"496 71 LINE",
"483.333 53 OFFCURVE",
"471 44 OFFCURVE",
"459 44 CURVE SMOOTH",
"444.333 44 OFFCURVE",
"436 53.667 OFFCURVE",
"436 71 CURVE SMOOTH",
"436 412 LINE",
"350 384 LINE",
"160 384 LINE",
"160 578 LINE SMOOTH",
"160 648.667 OFFCURVE",
"187 684 OFFCURVE",
"241 684 CURVE SMOOTH",
"289 684 OFFCURVE",
"323 642 OFFCURVE",
"339 586 CURVE",
"422 616 LINE",
"386 677.333 OFFCURVE",
"316.333 718 OFFCURVE",
"259 718 CURVE SMOOTH",
"132.333 718 OFFCURVE",
"74 614 OFFCURVE",
"74 490 CURVE SMOOTH",
"74 384 LINE",
"46 384 LINE",
"24 335 LINE",
"74 335 LINE",
"74 -139 LINE",
"160 -102 LINE",
"160 335 LINE",
"350 335 LINE",
"350 75 LINE SMOOTH",
"350 23 OFFCURVE",
"380.333 -5 OFFCURVE",
"419 -5 CURVE SMOOTH",
"451 -5 OFFCURVE",
"487.667 16.667 OFFCURVE",
"509 58 CURVE"
);
}
);
userData = {
assembly = "NPUSHB[ ]	/* 63 values pushed */\01229 21 20 3 3 5 36 35 2 7 1 2 74 9 8 2 0 71 0 7 1 0 1 7 0 112 6 1 3 2 1 1 7 3 1 97 0 5 5 4 91 0 4 4 42 75 0 0 0 46 0 76 36 18 37 35 17 19 19 33 8 7 28 \012CALL[ ]	/* CallFunction */";
};
width = 521;
}
);
leftKerningGroup = f;
note = fi;
rightKerningGroup = i;
unicode = FB01;
},
{
glyphname = fl;
layers = (
{
layerId = "F9783665-9C0C-4F5A-9005-646D18F9330F";
paths = (
{
closed = 1;
nodes = (
"498 71 LINE",
"483.333 53 OFFCURVE",
"470.667 44 OFFCURVE",
"460 44 CURVE SMOOTH",
"446.667 44 OFFCURVE",
"440 56.333 OFFCURVE",
"440 71 CURVE SMOOTH",
"440 711 LINE",
"360 681 LINE",
"329.333 705 OFFCURVE",
"291 718 OFFCURVE",
"259 718 CURVE SMOOTH",
"132.333 718 OFFCURVE",
"74 614 OFFCURVE",
"74 490 CURVE SMOOTH",
"74 384 LINE",
"46 384 LINE",
"24 335 LINE",
"74 335 LINE",
"74 -139 LINE",
"160 -102 LINE",
"160 335 LINE",
"274 335 LINE",
"295 384 LINE",
"160 384 LINE",
"160 578 LINE SMOOTH",
"160 648.667 OFFCURVE",
"187 684 OFFCURVE",
"241 684 CURVE SMOOTH",
"295.667 684 OFFCURVE",
"333 642.333 OFFCURVE",
"353 581 CURVE",
"353 75 LINE SMOOTH",
"353 21.667 OFFCURVE",
"377 -5 OFFCURVE",
"425 -5 CURVE SMOOTH",
"461 -5 OFFCURVE",
"495.333 23.333 OFFCURVE",
"510 58 CURVE"
);
}
);
userData = {
assembly = "NPUSHB[ ]	/* 66 values pushed */\01228 1 1 6 27 5 2 2 1 35 34 2 7 3 3 74 16 15 2 0 71 0 7 3 0 3 7 0 112 5 1 2 4 1 3 7 2 3 97 0 1 1 6 91 0 6 6 42 75 0 0 0 46 0 76 38 35 17 19 17 18 36 33 8 7 28 \012CALL[ ]	/* CallFunction */";
};
width = 523;
}
);
leftKerningGroup = f;
note = fl;
rightKerningGroup = d;
unicode = FB02;
},
{
glyphname = ordfeminine;
layers = (
{
layerId = "F9783665-9C0C-4F5A-9005-646D18F9330F";
paths = (
{
closed = 1;
nodes = (
"242.333 801 OFFCURVE",
"207 790.167 OFFCURVE",
"175 768.5 CURVE SMOOTH",
"111 725.167 OFFCURVE",
"71 646.667 OFFCURVE",
"71 564 CURVE SMOOTH",
"71 460 OFFCURVE",
"117.333 392 OFFCURVE",
"208 392 CURVE SMOOTH",
"257.333 392 OFFCURVE",
"306 433.667 OFFCURVE",
"334 491 CURVE",
"335 491 LINE",
"335 435 OFFCURVE",
"356.667 397 OFFCURVE",
"402 397 CURVE SMOOTH",
"434 397 OFFCURVE",
"470.667 426 OFFCURVE",
"484 462 CURVE",
"472 475 LINE",
"460 453.667 OFFCURVE",
"445.667 443 OFFCURVE",
"429 443 CURVE SMOOTH",
"414.333 443 OFFCURVE",
"407 458.667 OFFCURVE",
"407 472 CURVE SMOOTH",
"407 683 LINE",
"337 653 LINE",
"337 617 LINE SMOOTH",
"337 534.333 OFFCURVE",
"309 449 OFFCURVE",
"221 449 CURVE SMOOTH",
"159.667 449 OFFCURVE",
"132 506.667 OFFCURVE",
"132 592 CURVE SMOOTH",
"132 682.667 OFFCURVE",
"183.333 750 OFFCURVE",
"266 750 CURVE SMOOTH",
"299.333 750 OFFCURVE",
"331.667 727.333 OFFCURVE",
"349 702 CURVE",
"406 733 LINE",
"384.667 778.333 OFFCURVE",
"334.333 801 OFFCURVE",
"281 801 CURVE SMOOTH"
);
},
{
closed = 1;
nodes = (
"55 251 LINE",
"79 319 LINE",
"357 319 LINE",
"333 251 LINE"
);
}
);
userData = {
assembly = "NPUSHB[ ]	/* 12 values pushed */\01230 24 23 17 16 3 2 7 1 0 1 74 \012MPPEM[ ]	/* MeasurePixelPerEm */\012PUSHB[ ]	/* 1 value pushed */\01217 \012LT[ ]	/* LessThan */\012IF[ ]	/* If */\012NPUSHB[ ]	/* 39 values pushed */\0120 7 3 6 3 7 104 0 6 6 113 8 1 5 0 0 1 5 0 99 2 1 1 3 3 1 87 2 1 1 1 3 91 4 1 3 1 3 79 \012ELSE[ ]	/* Else */\012MPPEM[ ]	/* MeasurePixelPerEm */\012PUSHB[ ]	/* 1 value pushed */\01240 \012LT[ ]	/* LessThan */\012IF[ ]	/* If */\012NPUSHB[ ]	/* 40 values pushed */\0120 7 3 6 3 7 6 112 0 6 6 113 8 1 5 0 0 1 5 0 99 2 1 1 3 3 1 87 2 1 1 1 3 91 4 1 3 1 3 79 \012ELSE[ ]	/* Else */\012MPPEM[ ]	/* MeasurePixelPerEm */\012PUSHB[ ]	/* 1 value pushed */\01245 \012LT[ ]	/* LessThan */\012IF[ ]	/* If */\012NPUSHB[ ]	/* 44 values pushed */\0120 7 3 6 3 7 6 112 0 6 6 113 8 1 5 0 0 1 5 0 99 0 1 2 3 1 87 0 2 3 3 2 87 0 2 2 3 91 4 1 3 2 3 79 \012ELSE[ ]	/* Else */\012NPUSHB[ ]	/* 45 values pushed */\0120 7 4 6 4 7 6 112 0 6 6 113 8 1 5 0 0 1 5 0 99 0 1 2 4 1 87 0 2 0 3 4 2 3 99 0 1 1 4 91 0 4 1 4 79 \012EIF[ ]	/* EndIf */\012EIF[ ]	/* EndIf */\012EIF[ ]	/* EndIf */\012NPUSHB[ ]	/* 18 values pushed */\0120 0 45 44 43 42 0 41 0 40 37 36 39 36 37 9 7 25 \012CALL[ ]	/* CallFunction */";
};
width = 418;
}
);
note = ordfeminine;
unicode = 00AA;
},
{
glyphname = ordmasculine;
layers = (
{
layerId = "F9783665-9C0C-4F5A-9005-646D18F9330F";
paths = (
{
closed = 1;
nodes = (
"259 808 LINE",
"148.333 774.667 OFFCURVE",
"72 683.667 OFFCURVE",
"72 569 CURVE SMOOTH",
"72 535.667 OFFCURVE",
"79.833 505.333 OFFCURVE",
"95.5 478 CURVE SMOOTH",
"126.833 423.333 OFFCURVE",
"184 390 OFFCURVE",
"248 390 CURVE SMOOTH",
"288 390 OFFCURVE",
"322.667 400.833 OFFCURVE",
"352 422.5 CURVE SMOOTH",
"410.667 465.833 OFFCURVE",
"441 539.333 OFFCURVE",
"441 614 CURVE SMOOTH",
"441 698 OFFCURVE",
"395.333 773.667 OFFCURVE",
"322 799 CURVE",
"300 782 LINE SMOOTH",
"272 761.333 OFFCURVE",
"251.333 744.333 OFFCURVE",
"238 731 CURVE",
"263.333 728.333 OFFCURVE",
"288.333 718 OFFCURVE",
"313 700 CURVE SMOOTH",
"362.333 664 OFFCURVE",
"396 606.333 OFFCURVE",
"396 557 CURVE SMOOTH",
"396 490.333 OFFCURVE",
"347.333 438 OFFCURVE",
"278 438 CURVE SMOOTH",
"215.163 438 OFFCURVE",
"145 533.31 OFFCURVE",
"145 595 CURVE SMOOTH",
"145 680.333 OFFCURVE",
"194 741.333 OFFCURVE",
"274 792 CURVE"
);
},
{
closed = 1;
nodes = (
"55 251 LINE",
"79 319 LINE",
"357 319 LINE",
"333 251 LINE"
);
}
);
userData = {
assembly = "PUSHB[ ]	/* 6 values pushed */\01231 17 14 3 0 72 \012MPPEM[ ]	/* MeasurePixelPerEm */\012PUSHB[ ]	/* 1 value pushed */\01218 \012LT[ ]	/* LessThan */\012IF[ ]	/* If */\012NPUSHB[ ]	/* 27 values pushed */\0120 3 1 2 1 3 104 0 2 2 113 0 0 1 1 0 87 0 0 0 1 91 0 1 0 1 79 \012ELSE[ ]	/* Else */\012NPUSHB[ ]	/* 28 values pushed */\0120 3 1 2 1 3 2 112 0 2 2 113 0 0 1 1 0 87 0 0 0 1 91 0 1 0 1 79 \012EIF[ ]	/* EndIf */\012PUSHB[ ]	/* 7 values pushed */\01217 23 47 38 4 7 24 \012CALL[ ]	/* CallFunction */";
};
width = 406;
}
);
note = ordmasculine;
unicode = 00BA;
},
{
glyphname = Omega;
layers = (
{
layerId = "F9783665-9C0C-4F5A-9005-646D18F9330F";
paths = (
{
closed = 1;
nodes = (
"405.667 731 OFFCURVE",
"345.167 718.167 OFFCURVE",
"289.5 692.5 CURVE SMOOTH",
"178.167 641.167 OFFCURVE",
"104 534.667 OFFCURVE",
"104 380 CURVE SMOOTH",
"104 336 OFFCURVE",
"113.667 293 OFFCURVE",
"133 251 CURVE SMOOTH",
"171.667 167 OFFCURVE",
"237.667 101.667 OFFCURVE",
"303 75 CURVE",
"97 75 LINE",
"64 0 LINE",
"404 0 LINE",
"404 70 LINE",
"373.333 86 OFFCURVE",
"343.333 109.333 OFFCURVE",
"314 140 CURVE SMOOTH",
"255.333 201.333 OFFCURVE",
"213 287.667 OFFCURVE",
"213 381 CURVE SMOOTH",
"213 445 OFFCURVE",
"224 499.667 OFFCURVE",
"246 545 CURVE SMOOTH",
"290 635.667 OFFCURVE",
"369.667 681 OFFCURVE",
"471 681 CURVE SMOOTH",
"521 681 OFFCURVE",
"565.333 669.667 OFFCURVE",
"604 647 CURVE SMOOTH",
"681.333 601.667 OFFCURVE",
"728 509 OFFCURVE",
"728 381 CURVE SMOOTH",
"728 334.333 OFFCURVE",
"718.333 290.167 OFFCURVE",
"699 248.5 CURVE SMOOTH",
"660.333 165.167 OFFCURVE",
"597.333 102 OFFCURVE",
"536 70 CURVE",
"536 0 LINE",
"877 0 LINE",
"843 75 LINE",
"639 75 LINE",
"671.667 88.333 OFFCURVE",
"703.167 110.5 OFFCURVE",
"733.5 141.5 CURVE SMOOTH",
"794.167 203.5 OFFCURVE",
"837 292 OFFCURVE",
"837 380 CURVE SMOOTH",
"837 457.333 OFFCURVE",
"820 522.333 OFFCURVE",
"786 575 CURVE SMOOTH",
"718 680.333 OFFCURVE",
"601.667 731 OFFCURVE",
"471 731 CURVE SMOOTH"
);
}
);
userData = {
assembly = "PUSHB[ ]	/* 4 values pushed */\0129 0 1 48 \012CALL[ ]	/* CallFunction */";
};
width = 940;
}
);
note = Omega;
unicode = 03A9;
},
{
glyphname = pi;
layers = (
{
layerId = "F9783665-9C0C-4F5A-9005-646D18F9330F";
paths = (
{
closed = 1;
nodes = (
"594 89 LINE",
"576 63 OFFCURVE",
"560 50 OFFCURVE",
"546 50 CURVE SMOOTH",
"527.333 50 OFFCURVE",
"514 64.667 OFFCURVE",
"514 86 CURVE SMOOTH",
"514 517 LINE",
"422 481 LINE",
"79 481 LINE",
"53 419 LINE",
"115 419 LINE",
"115 -27 LINE",
"207 0 LINE",
"207 419 LINE",
"422 419 LINE",
"422 96 LINE SMOOTH",
"422 25.333 OFFCURVE",
"462 -5 OFFCURVE",
"502 -5 CURVE SMOOTH",
"534 -5 OFFCURVE",
"580.667 18 OFFCURVE",
"610 74 CURVE"
);
}
);
userData = {
assembly = "PUSHB[ ]	/* 4 values pushed */\01214 9 1 48 \012CALL[ ]	/* CallFunction */";
};
width = 628;
}
);
leftKerningGroup = f;
note = pi;
rightKerningGroup = i;
unicode = 03C0;
},
{
glyphname = "a-deva";
layers = (
{
layerId = "F9783665-9C0C-4F5A-9005-646D18F9330F";
paths = (
{
closed = 1;
nodes = (
"28 352 LINE",
"50.667 288 OFFCURVE",
"79.667 231.333 OFFCURVE",
"115 182 CURVE SMOOTH",
"185.667 83.333 OFFCURVE",
"271.667 26 OFFCURVE",
"353 26 CURVE SMOOTH",
"380.333 26 OFFCURVE",
"405.333 33.167 OFFCURVE",
"428 47.5 CURVE SMOOTH",
"473.333 76.167 OFFCURVE",
"501 128.333 OFFCURVE",
"501 187 CURVE SMOOTH",
"501 245.667 OFFCURVE",
"469.667 316.333 OFFCURVE",
"415 387 CURVE",
"423 396 LINE",
"469 353.333 OFFCURVE",
"512 332 OFFCURVE",
"552 332 CURVE SMOOTH",
"563.333 332 OFFCURVE",
"576.333 334.667 OFFCURVE",
"591 340 CURVE",
"591 166 LINE SMOOTH",
"591 140 OFFCURVE",
"609.833 108.833 OFFCURVE",
"647.5 72.5 CURVE SMOOTH",
"722.833 -0.167 OFFCURVE",
"841 -61 OFFCURVE",
"917 -61 CURVE SMOOTH",
"939 -61 OFFCURVE",
"960.333 -50.667 OFFCURVE",
"981 -30 CURVE",
"907 17 LINE",
"895 -3 OFFCURVE",
"874.667 -13 OFFCURVE",
"856 -13 CURVE SMOOTH",
"803.32 -13 OFFCURVE",
"673 59.451 OFFCURVE",
"673 111 CURVE SMOOTH",
"673 609 LINE",
"597 689 LINE",
"426 689 LINE",
"496 609 LINE",
"591 609 LINE",
"591 429 LINE",
"572.333 403.667 OFFCURVE",
"542.333 392 OFFCURVE",
"513 392 CURVE SMOOTH",
"486.333 392 OFFCURVE",
"458.333 402.333 OFFCURVE",
"441 421 CURVE",
"459 449.667 OFFCURVE",
"468 480.667 OFFCURVE",
"468 514 CURVE SMOOTH",
"468 543.333 OFFCURVE",
"458.333 572.667 OFFCURVE",
"439 602 CURVE SMOOTH",
"400.333 660.667 OFFCURVE",
"333 702 OFFCURVE",
"265 702 CURVE SMOOTH",
"197 702 OFFCURVE",
"129 672 OFFCURVE",
"89 620 CURVE",
"151 558 LINE",
"196.333 610 OFFCURVE",
"255 643 OFFCURVE",
"311 643 CURVE SMOOTH",
"361.667 643 OFFCURVE",
"403 600 OFFCURVE",
"403 548 CURVE SMOOTH",
"403 512 OFFCURVE",
"389 473.667 OFFCURVE",
"365 451 CURVE",
"334.333 488.333 OFFCURVE",
"299 509 OFFCURVE",
"267 509 CURVE SMOOTH",
"216.333 509 OFFCURVE",
"166 469.333 OFFCURVE",
"166 428 CURVE SMOOTH",
"166 377.462 OFFCURVE",
"238.268 316 OFFCURVE",
"291 316 CURVE SMOOTH",
"320.333 316 OFFCURVE",
"358 334.333 OFFCURVE",
"394 365 CURVE",
"424.667 323 OFFCURVE",
"440 282.333 OFFCURVE",
"440 243 CURVE SMOOTH",
"440 166.529 OFFCURVE",
"386.321 100 OFFCURVE",
"313 100 CURVE SMOOTH",
"218.333 100 OFFCURVE",
"118.333 208.667 OFFCURVE",
"61 366 CURVE"
);
},
{
closed = 1;
nodes = (
"642 689 LINE",
"719 609 LINE",
"790 609 LINE",
"790 689 LINE"
);
},
{
closed = 1;
nodes = (
"235 371 OFFCURVE",
"226 383.333 OFFCURVE",
"226 394 CURVE SMOOTH",
"226 418 OFFCURVE",
"270.667 453 OFFCURVE",
"300 453 CURVE SMOOTH",
"316.667 453 OFFCURVE",
"332 444.333 OFFCURVE",
"346 427 CURVE",
"306 391 OFFCURVE",
"269.667 371 OFFCURVE",
"247 371 CURVE SMOOTH"
);
}
);
userData = {
assembly = "NPUSHB[ ]	/* 43 values pushed */\01231 1 6 3 30 1 2 6 96 91 71 46 40 21 6 5 14 72 1 15 5 84 83 67 8 4 10 15 59 1 8 11 60 1 9 8 7 74 51 1 6 1 73 \012MPPEM[ ]	/* MeasurePixelPerEm */\012PUSHB[ ]	/* 1 value pushed */\0129 \012LT[ ]	/* LessThan */\012IF[ ]	/* If */\012NPUSHB[ ]	/* 70 values pushed */\01216 1 15 5 10 5 15 10 112 0 1 10 0 14 1 104 0 2 0 14 5 2 14 99 0 5 0 10 1 5 10 99 0 0 0 11 8 0 11 99 0 8 0 9 8 9 95 0 3 3 4 91 0 4 4 24 75 13 1 6 6 7 89 12 1 7 7 24 6 76 \012ELSE[ ]	/* Else */\012MPPEM[ ]	/* MeasurePixelPerEm */\012PUSHB[ ]	/* 1 value pushed */\01218 \012LT[ ]	/* LessThan */\012IF[ ]	/* If */\012NPUSHB[ ]	/* 71 values pushed */\01216 1 15 5 10 5 15 10 112 0 1 10 0 10 1 0 112 0 2 0 14 5 2 14 99 0 5 0 10 1 5 10 99 0 0 0 11 8 0 11 99 0 8 0 9 8 9 95 0 3 3 4 91 0 4 4 24 75 13 1 6 6 7 89 12 1 7 7 24 6 76 \012ELSE[ ]	/* Else */\012MPPEM[ ]	/* MeasurePixelPerEm */\012PUSHB[ ]	/* 1 value pushed */\01239 \012LT[ ]	/* LessThan */\012IF[ ]	/* If */\012NPUSHB[ ]	/* 71 values pushed */\01216 1 15 5 10 5 15 10 112 0 1 10 0 10 1 0 112 0 2 0 14 5 2 14 99 0 5 0 10 1 5 10 99 0 0 0 11 8 0 11 99 0 8 0 9 8 9 95 0 3 3 4 91 0 4 4 25 75 13 1 6 6 7 89 12 1 7 7 25 6 76 \012ELSE[ ]	/* Else */\012NPUSHB[ ]	/* 69 values pushed */\01216 1 15 5 10 5 15 10 112 0 1 10 0 10 1 0 112 0 4 0 3 6 4 3 99 0 2 0 14 5 2 14 99 0 5 0 10 1 5 10 99 0 0 0 11 8 0 11 99 0 8 0 9 8 9 95 13 1 6 6 7 89 12 1 7 7 25 6 76 \012EIF[ ]	/* EndIf */\012EIF[ ]	/* EndIf */\012EIF[ ]	/* EndIf */\012NPUSHB[ ]	/* 30 values pushed */\01289 89 89 99 89 98 94 92 88 87 86 85 80 78 70 68 63 61 37 17 19 39 37 39 37 39 33 17 6 29 \012CALL[ ]	/* CallFunction */";
};
width = 775;
}
);
note = uni0905;
unicode = 0905;
},
{
glyphname = "aa-deva";
layers = (
{
layerId = "F9783665-9C0C-4F5A-9005-646D18F9330F";
paths = (
{
closed = 1;
nodes = (
"803.32 -13 OFFCURVE",
"673 59.451 OFFCURVE",
"673 111 CURVE SMOOTH",
"673 609 LINE",
"597 689 LINE",
"426 689 LINE",
"496 609 LINE",
"591 609 LINE",
"591 429 LINE",
"572.333 403.667 OFFCURVE",
"542.333 392 OFFCURVE",
"513 392 CURVE SMOOTH",
"486.333 392 OFFCURVE",
"458.333 402.333 OFFCURVE",
"441 421 CURVE",
"459 449.667 OFFCURVE",
"468 480.667 OFFCURVE",
"468 514 CURVE SMOOTH",
"468 543.333 OFFCURVE",
"458.333 572.667 OFFCURVE",
"439 602 CURVE SMOOTH",
"400.333 660.667 OFFCURVE",
"333 702 OFFCURVE",
"265 702 CURVE SMOOTH",
"197 702 OFFCURVE",
"129 672 OFFCURVE",
"89 620 CURVE",
"151 558 LINE",
"196.333 610 OFFCURVE",
"255 643 OFFCURVE",
"311 643 CURVE SMOOTH",
"361.667 643 OFFCURVE",
"403 600 OFFCURVE",
"403 548 CURVE SMOOTH",
"403 512 OFFCURVE",
"389 473.667 OFFCURVE",
"365 451 CURVE",
"334.333 488.333 OFFCURVE",
"299 509 OFFCURVE",
"267 509 CURVE SMOOTH",
"216.333 509 OFFCURVE",
"166 469.333 OFFCURVE",
"166 428 CURVE SMOOTH",
"166 377.462 OFFCURVE",
"238.268 316 OFFCURVE",
"291 316 CURVE SMOOTH",
"320.333 316 OFFCURVE",
"358 334.333 OFFCURVE",
"394 365 CURVE",
"424.667 323 OFFCURVE",
"440 282.333 OFFCURVE",
"440 243 CURVE SMOOTH",
"440 166.529 OFFCURVE",
"386.321 100 OFFCURVE",
"313 100 CURVE SMOOTH",
"218.333 100 OFFCURVE",
"118.333 208.667 OFFCURVE",
"61 366 CURVE",
"28 352 LINE",
"50.667 288 OFFCURVE",
"79.667 231.333 OFFCURVE",
"115 182 CURVE SMOOTH",
"185.667 83.333 OFFCURVE",
"271.667 26 OFFCURVE",
"353 26 CURVE SMOOTH",
"380.333 26 OFFCURVE",
"405.333 33.167 OFFCURVE",
"428 47.5 CURVE SMOOTH",
"473.333 76.167 OFFCURVE",
"501 128.333 OFFCURVE",
"501 187 CURVE SMOOTH",
"501 245.667 OFFCURVE",
"469.667 316.333 OFFCURVE",
"415 387 CURVE",
"423 396 LINE",
"469 353.333 OFFCURVE",
"512 332 OFFCURVE",
"552 332 CURVE SMOOTH",
"563.333 332 OFFCURVE",
"576.333 334.667 OFFCURVE",
"591 340 CURVE",
"591 166 LINE SMOOTH",
"591 140 OFFCURVE",
"609.833 108.833 OFFCURVE",
"647.5 72.5 CURVE SMOOTH",
"722.833 -0.167 OFFCURVE",
"841 -61 OFFCURVE",
"917 -61 CURVE SMOOTH",
"939 -61 OFFCURVE",
"960.333 -50.667 OFFCURVE",
"981 -30 CURVE",
"907 17 LINE",
"895 -3 OFFCURVE",
"874.667 -13 OFFCURVE",
"856 -13 CURVE SMOOTH"
);
},
{
closed = 1;
nodes = (
"1193 17 LINE",
"1179.667 -1.667 OFFCURVE",
"1158.667 -13 OFFCURVE",
"1140 -13 CURVE SMOOTH",
"1087.514 -13 OFFCURVE",
"959 59.72 OFFCURVE",
"959 111 CURVE SMOOTH",
"959 609 LINE",
"879 689 LINE",
"642 689 LINE",
"719 609 LINE",
"790 609 LINE",
"877 609 LINE",
"877 168 LINE SMOOTH",
"877 141.333 OFFCURVE",
"895.833 109.833 OFFCURVE",
"933.5 73.5 CURVE SMOOTH",
"1008.833 0.833 OFFCURVE",
"1125.667 -61 OFFCURVE",
"1203 -61 CURVE SMOOTH",
"1226.333 -61 OFFCURVE",
"1247.333 -50.667 OFFCURVE",
"1266 -30 CURVE"
);
},
{
closed = 1;
nodes = (
"1004 609 LINE",
"1075 609 LINE",
"1075 689 LINE",
"925 689 LINE"
);
},
{
closed = 1;
nodes = (
"235 371 OFFCURVE",
"226 383.333 OFFCURVE",
"226 394 CURVE SMOOTH",
"226 418 OFFCURVE",
"270.667 453 OFFCURVE",
"300 453 CURVE SMOOTH",
"316.667 453 OFFCURVE",
"332 444.333 OFFCURVE",
"346 427 CURVE",
"306 391 OFFCURVE",
"269.667 371 OFFCURVE",
"247 371 CURVE SMOOTH"
);
}
);
userData = {
assembly = "NPUSHB[ ]	/* 44 values pushed */\01259 1 9 6 58 1 5 9 117 112 74 68 49 14 6 8 18 15 1 19 8 36 26 10 3 1 19 105 2 2 11 2 3 1 0 11 7 74 97 79 2 9 1 73 \012MPPEM[ ]	/* MeasurePixelPerEm */\012PUSHB[ ]	/* 1 value pushed */\0129 \012LT[ ]	/* LessThan */\012IF[ ]	/* If */\012NPUSHB[ ]	/* 76 values pushed */\01222 1 19 8 1 8 19 1 112 0 4 1 3 18 4 104 0 5 0 18 8 5 18 99 0 8 0 1 4 8 1 99 0 3 0 2 11 3 2 99 15 20 2 11 12 1 0 11 0 95 0 6 6 7 91 0 7 7 24 75 21 17 13 3 9 9 10 89 16 14 2 10 10 24 9 76 \012ELSE[ ]	/* Else */\012MPPEM[ ]	/* MeasurePixelPerEm */\012PUSHB[ ]	/* 1 value pushed */\01218 \012LT[ ]	/* LessThan */\012IF[ ]	/* If */\012NPUSHB[ ]	/* 77 values pushed */\01222 1 19 8 1 8 19 1 112 0 4 1 3 1 4 3 112 0 5 0 18 8 5 18 99 0 8 0 1 4 8 1 99 0 3 0 2 11 3 2 99 15 20 2 11 12 1 0 11 0 95 0 6 6 7 91 0 7 7 24 75 21 17 13 3 9 9 10 89 16 14 2 10 10 24 9 76 \012ELSE[ ]	/* Else */\012MPPEM[ ]	/* MeasurePixelPerEm */\012PUSHB[ ]	/* 1 value pushed */\01239 \012LT[ ]	/* LessThan */\012IF[ ]	/* If */\012NPUSHB[ ]	/* 77 values pushed */\01222 1 19 8 1 8 19 1 112 0 4 1 3 1 4 3 112 0 5 0 18 8 5 18 99 0 8 0 1 4 8 1 99 0 3 0 2 11 3 2 99 15 20 2 11 12 1 0 11 0 95 0 6 6 7 91 0 7 7 25 75 21 17 13 3 9 9 10 89 16 14 2 10 10 25 9 76 \012ELSE[ ]	/* Else */\012NPUSHB[ ]	/* 75 values pushed */\01222 1 19 8 1 8 19 1 112 0 4 1 3 1 4 3 112 0 7 0 6 9 7 6 99 0 5 0 18 8 5 18 99 0 8 0 1 4 8 1 99 0 3 0 2 11 3 2 99 15 20 2 11 12 1 0 11 0 95 21 17 13 3 9 9 10 89 16 14 2 10 10 25 9 76 \012EIF[ ]	/* EndIf */\012EIF[ ]	/* EndIf */\012EIF[ ]	/* EndIf */\012NPUSHB[ ]	/* 46 values pushed */\012110 110 106 106 0 0 110 120 110 119 115 113 106 109 106 109 108 107 103 101 96 95 94 92 88 86 0 84 0 83 78 77 76 75 39 37 39 37 39 38 40 37 36 23 6 29 \012CALL[ ]	/* CallFunction */";
};
width = 1060;
}
);
note = uni0906;
unicode = 0906;
},
{
glyphname = "i-deva";
layers = (
{
layerId = "F9783665-9C0C-4F5A-9005-646D18F9330F";
paths = (
{
closed = 1;
nodes = (
"-14 689 LINE",
"-14 609 LINE",
"303 609 LINE",
"323 589 OFFCURVE",
"336 566 OFFCURVE",
"336 546 CURVE SMOOTH",
"336 528.667 OFFCURVE",
"317.333 514 OFFCURVE",
"296 514 CURVE SMOOTH",
"165 514 LINE SMOOTH",
"108.607 514 OFFCURVE",
"43 461.208 OFFCURVE",
"43 408 CURVE SMOOTH",
"43 348.196 OFFCURVE",
"158.963 256 OFFCURVE",
"222 256 CURVE SMOOTH",
"252.667 256 OFFCURVE",
"278.667 270.333 OFFCURVE",
"312 293 CURVE SMOOTH",
"318.282 297.188 OFFCURVE",
"344.062 314 OFFCURVE",
"356 314 CURVE SMOOTH",
"380 314 OFFCURVE",
"402 290.333 OFFCURVE",
"402 261 CURVE SMOOTH",
"402 200.994 OFFCURVE",
"273.115 124 OFFCURVE",
"209 124 CURVE",
"169.667 165.333 OFFCURVE",
"134.667 186 OFFCURVE",
"104 186 CURVE SMOOTH",
"77.333 186 OFFCURVE",
"52 166 OFFCURVE",
"52 142 CURVE SMOOTH",
"52 95.04 OFFCURVE",
"146.376 45 OFFCURVE",
"210 45 CURVE",
"303.333 -60.333 OFFCURVE",
"405.667 -120 OFFCURVE",
"495 -120 CURVE SMOOTH",
"527 -120 OFFCURVE",
"551 -110.667 OFFCURVE",
"567 -92 CURVE",
"503 -33 LINE",
"485.667 -51.667 OFFCURVE",
"461 -62 OFFCURVE",
"437 -62 CURVE SMOOTH",
"378.333 -62 OFFCURVE",
"306.333 -21 OFFCURVE",
"245 51 CURVE",
"285 57.667 OFFCURVE",
"321.167 69.5 OFFCURVE",
"353.5 86.5 CURVE SMOOTH",
"418.167 120.5 OFFCURVE",
"457 169.667 OFFCURVE",
"457 219 CURVE SMOOTH",
"457 287.725 OFFCURVE",
"387.774 369 OFFCURVE",
"319 369 CURVE SMOOTH",
"300.333 369 OFFCURVE",
"283.333 359.667 OFFCURVE",
"254 341 CURVE SMOOTH",
"220.667 319.667 OFFCURVE",
"201.667 310 OFFCURVE",
"179 310 CURVE SMOOTH",
"141.667 310 OFFCURVE",
"109 336.667 OFFCURVE",
"109 366 CURVE SMOOTH",
"109 404.795 OFFCURVE",
"162.135 443 OFFCURVE",
"210 443 CURVE SMOOTH",
"338 445 LINE SMOOTH",
"370 445 OFFCURVE",
"396 468.667 OFFCURVE",
"396 498 CURVE SMOOTH",
"396 531.333 OFFCURVE",
"377 571.667 OFFCURVE",
"345 609 CURVE",
"266 689 LINE"
);
},
{
closed = 1;
nodes = (
"312 689 LINE",
"391 609 LINE",
"512 609 LINE",
"512 689 LINE"
);
}
);
userData = {
assembly = "NPUSHB[ ]	/* 14 values pushed */\01230 1 6 8 36 1 4 6 37 1 5 4 3 74 \012MPPEM[ ]	/* MeasurePixelPerEm */\012PUSHB[ ]	/* 1 value pushed */\01218 \012LT[ ]	/* LessThan */\012IF[ ]	/* If */\012NPUSHB[ ]	/* 73 values pushed */\0120 3 1 9 1 3 9 112 0 9 2 1 9 2 110 0 7 10 8 10 7 8 112 0 8 6 10 8 6 110 0 6 4 10 6 4 110 0 11 0 1 3 11 1 99 0 2 0 10 7 2 10 99 0 4 0 5 4 5 95 14 1 12 12 0 89 13 1 0 0 24 12 76 \012ELSE[ ]	/* Else */\012NPUSHB[ ]	/* 73 values pushed */\0120 3 1 9 1 3 9 112 0 9 2 1 9 2 110 0 7 10 8 10 7 8 112 0 8 6 10 8 6 110 0 6 4 10 6 4 110 0 11 0 1 3 11 1 99 0 2 0 10 7 2 10 99 0 4 0 5 4 5 95 14 1 12 12 0 89 13 1 0 0 25 12 76 \012EIF[ ]	/* EndIf */\012NPUSHB[ ]	/* 24 values pushed */\01285 84 83 82 81 80 75 72 66 64 58 57 17 37 18 36 41 36 37 54 16 15 6 29 \012CALL[ ]	/* CallFunction */";
};
width = 498;
}
);
note = uni0907;
unicode = 0907;
},
{
glyphname = "u-deva";
layers = (
{
layerId = "F9783665-9C0C-4F5A-9005-646D18F9330F";
paths = (
{
closed = 1;
nodes = (
"-14 689 LINE",
"-14 609 LINE",
"358 609 LINE",
"396.667 583.667 OFFCURVE",
"422 544.333 OFFCURVE",
"422 507 CURVE SMOOTH",
"422 459 OFFCURVE",
"370.667 422 OFFCURVE",
"312 422 CURVE SMOOTH",
"278 422 OFFCURVE",
"249.333 424.667 OFFCURVE",
"226 430 CURVE",
"242 394.667 OFFCURVE",
"263.667 366 OFFCURVE",
"291 344 CURVE",
"297.667 340.667 OFFCURVE",
"312 339 OFFCURVE",
"334 339 CURVE SMOOTH",
"356.667 339 OFFCURVE",
"379.667 344 OFFCURVE",
"403 354 CURVE",
"440.333 316.667 OFFCURVE",
"461 275 OFFCURVE",
"461 239 CURVE SMOOTH",
"461 172.069 OFFCURVE",
"397.723 121 OFFCURVE",
"328 121 CURVE SMOOTH",
"217.333 121 OFFCURVE",
"118.333 238.667 OFFCURVE",
"49 416 CURVE",
"21 405 LINE",
"46.333 335 OFFCURVE",
"78.167 272.833 OFFCURVE",
"116.5 218.5 CURVE SMOOTH",
"193.167 109.833 OFFCURVE",
"286 47 OFFCURVE",
"374 47 CURVE SMOOTH",
"433.88 47 OFFCURVE",
"520 123.499 OFFCURVE",
"520 184 CURVE SMOOTH",
"520 245.333 OFFCURVE",
"487 310.333 OFFCURVE",
"427 369 CURVE",
"456.333 385 OFFCURVE",
"478 419.333 OFFCURVE",
"478 458 CURVE SMOOTH",
"478 503.333 OFFCURVE",
"455.333 561 OFFCURVE",
"410 609 CURVE SMOOTH",
"333 689 LINE"
);
},
{
closed = 1;
nodes = (
"379 689 LINE",
"456 609 LINE",
"588 609 LINE",
"588 689 LINE"
);
}
);
userData = {
assembly = "NPUSHB[ ]	/* 12 values pushed */\01236 1 4 5 30 19 8 3 3 4 2 74 \012MPPEM[ ]	/* MeasurePixelPerEm */\012PUSHB[ ]	/* 1 value pushed */\01218 \012LT[ ]	/* LessThan */\012IF[ ]	/* If */\012NPUSHB[ ]	/* 28 values pushed */\0120 4 0 3 2 4 3 99 0 2 0 1 2 1 95 7 1 5 5 0 89 6 1 0 0 24 5 76 \012ELSE[ ]	/* Else */\012NPUSHB[ ]	/* 28 values pushed */\0120 4 0 3 2 4 3 99 0 2 0 1 2 1 95 7 1 5 5 0 89 6 1 0 0 25 5 76 \012EIF[ ]	/* EndIf */\012NPUSHB[ ]	/* 11 values pushed */\01217 17 21 36 39 38 45 16 8 6 28 \012CALL[ ]	/* CallFunction */";
};
width = 574;
}
);
note = uni0909;
unicode = 0909;
},
{
glyphname = "uu-deva";
layers = (
{
layerId = "F9783665-9C0C-4F5A-9005-646D18F9330F";
paths = (
{
closed = 1;
nodes = (
"-14 689 LINE",
"-14 609 LINE",
"358 609 LINE",
"396.667 583.667 OFFCURVE",
"422 544.333 OFFCURVE",
"422 507 CURVE SMOOTH",
"422 459 OFFCURVE",
"370.667 422 OFFCURVE",
"312 422 CURVE SMOOTH",
"278 422 OFFCURVE",
"249.333 424.667 OFFCURVE",
"226 430 CURVE",
"242 394.667 OFFCURVE",
"263.667 366 OFFCURVE",
"291 344 CURVE",
"297.667 340.667 OFFCURVE",
"312 339 OFFCURVE",
"334 339 CURVE SMOOTH",
"356.667 339 OFFCURVE",
"379.667 344 OFFCURVE",
"403 354 CURVE",
"440.333 316.667 OFFCURVE",
"461 275 OFFCURVE",
"461 239 CURVE SMOOTH",
"461 172.069 OFFCURVE",
"397.723 121 OFFCURVE",
"328 121 CURVE SMOOTH",
"217.333 121 OFFCURVE",
"118.333 238.667 OFFCURVE",
"49 416 CURVE",
"21 405 LINE",
"46.333 335 OFFCURVE",
"78.167 272.833 OFFCURVE",
"116.5 218.5 CURVE SMOOTH",
"193.167 109.833 OFFCURVE",
"286 47 OFFCURVE",
"374 47 CURVE SMOOTH",
"433.88 47 OFFCURVE",
"520 123.499 OFFCURVE",
"520 184 CURVE SMOOTH",
"520 214 OFFCURVE",
"511.333 247 OFFCURVE",
"494 283 CURVE",
"536.667 336.333 OFFCURVE",
"595.333 369 OFFCURVE",
"658 369 CURVE SMOOTH",
"687.333 369 OFFCURVE",
"714 341.333 OFFCURVE",
"714 308 CURVE SMOOTH",
"714 245.333 OFFCURVE",
"673 189.333 OFFCURVE",
"613 168 CURVE",
"668 103 LINE",
"728 121.667 OFFCURVE",
"770 184 OFFCURVE",
"770 252 CURVE SMOOTH",
"770 278 OFFCURVE",
"761.167 305.333 OFFCURVE",
"743.5 334 CURVE SMOOTH",
"708.167 391.333 OFFCURVE",
"648.333 433 OFFCURVE",
"599 433 CURVE SMOOTH",
"544.333 433 OFFCURVE",
"487.333 401.333 OFFCURVE",
"446 348 CURVE",
"427 369 LINE",
"456.333 385 OFFCURVE",
"478 419.333 OFFCURVE",
"478 458 CURVE SMOOTH",
"478 503.333 OFFCURVE",
"455.333 561 OFFCURVE",
"410 609 CURVE SMOOTH",
"333 689 LINE"
);
},
{
closed = 1;
nodes = (
"379 689 LINE",
"456 609 LINE",
"821 609 LINE",
"821 689 LINE"
);
}
);
userData = {
assembly = "NPUSHB[ ]	/* 29 values pushed */\01256 1 6 1 39 1 2 6 50 9 2 5 2 29 20 2 4 5 19 1 3 4 5 74 8 1 2 1 73 \012MPPEM[ ]	/* MeasurePixelPerEm */\012PUSHB[ ]	/* 1 value pushed */\01218 \012LT[ ]	/* LessThan */\012IF[ ]	/* If */\012NPUSHB[ ]	/* 36 values pushed */\0120 1 0 2 5 1 2 99 0 6 0 5 4 6 5 99 0 4 0 3 4 3 95 9 1 7 7 0 89 8 1 0 0 24 7 76 \012ELSE[ ]	/* Else */\012NPUSHB[ ]	/* 36 values pushed */\0120 1 0 2 5 1 2 99 0 6 0 5 4 6 5 99 0 4 0 3 4 3 95 9 1 7 7 0 89 8 1 0 0 25 7 76 \012EIF[ ]	/* EndIf */\012NPUSHB[ ]	/* 14 values pushed */\01269 68 17 21 36 39 38 39 44 42 16 10 6 29 \012CALL[ ]	/* CallFunction */";
};
width = 807;
}
);
note = uni090A;
unicode = 090A;
},
{
glyphname = "rVocalic-deva";
layers = (
{
layerId = "F9783665-9C0C-4F5A-9005-646D18F9330F";
paths = (
{
closed = 1;
nodes = (
"444 609 LINE",
"363 689 LINE",
"-14 689 LINE",
"-14 609 LINE",
"361 609 LINE",
"361 412 LINE",
"297 489.333 OFFCURVE",
"232 532 OFFCURVE",
"176 532 CURVE SMOOTH",
"113.333 532 OFFCURVE",
"56.333 509.333 OFFCURVE",
"15 468 CURVE",
"71 394 LINE",
"116.333 439.333 OFFCURVE",
"172.333 465 OFFCURVE",
"223 465 CURVE SMOOTH",
"256.333 465 OFFCURVE",
"305.333 433.333 OFFCURVE",
"348 380 CURVE",
"290 312 OFFCURVE",
"211.333 262.333 OFFCURVE",
"112 231 CURVE",
"189 165 LINE",
"257.667 196.333 OFFCURVE",
"315 235 OFFCURVE",
"361 281 CURVE",
"361 166 LINE SMOOTH",
"361 140 OFFCURVE",
"379.833 108.833 OFFCURVE",
"417.5 72.5 CURVE SMOOTH",
"492.833 -0.167 OFFCURVE",
"610.667 -61 OFFCURVE",
"688 -61 CURVE SMOOTH",
"711.333 -61 OFFCURVE",
"732.333 -50.667 OFFCURVE",
"751 -30 CURVE",
"678 17 LINE",
"663.333 -3 OFFCURVE",
"646 -13 OFFCURVE",
"626 -13 CURVE SMOOTH",
"574.134 -13 OFFCURVE",
"444 59.656 OFFCURVE",
"444 111 CURVE SMOOTH",
"444 363 LINE",
"486.667 330.333 OFFCURVE",
"531.667 314 OFFCURVE",
"579 314 CURVE SMOOTH",
"601.667 314 OFFCURVE",
"621 316.333 OFFCURVE",
"637 321 CURVE",
"683.667 281 OFFCURVE",
"713 242.667 OFFCURVE",
"713 220 CURVE SMOOTH",
"713 176 OFFCURVE",
"676 139 OFFCURVE",
"632 139 CURVE SMOOTH",
"606.667 139 OFFCURVE",
"578.667 154.333 OFFCURVE",
"556 177 CURVE",
"535 154 LINE",
"583 106 OFFCURVE",
"637 77 OFFCURVE",
"685 77 CURVE SMOOTH",
"735.916 77 OFFCURVE",
"785 125.48 OFFCURVE",
"785 179 CURVE SMOOTH",
"785 198.333 OFFCURVE",
"775.667 220.667 OFFCURVE",
"757 246 CURVE SMOOTH",
"738.333 271.333 OFFCURVE",
"709 302 OFFCURVE",
"669 338 CURVE",
"707.667 355.333 OFFCURVE",
"736 386.667 OFFCURVE",
"736 412 CURVE SMOOTH",
"736 457.213 OFFCURVE",
"673.238 514 OFFCURVE",
"625 514 CURVE SMOOTH",
"595.667 514 OFFCURVE",
"569 488.333 OFFCURVE",
"569 459 CURVE SMOOTH",
"569 434.333 OFFCURVE",
"578.333 411.667 OFFCURVE",
"597 391 CURVE",
"575.667 378.333 OFFCURVE",
"553.333 372 OFFCURVE",
"530 372 CURVE SMOOTH",
"495.333 372 OFFCURVE",
"464 383 OFFCURVE",
"444 403 CURVE"
);
},
{
closed = 1;
nodes = (
"837 609 LINE",
"837 689 LINE",
"409 689 LINE",
"490 609 LINE"
);
}
);
userData = {
assembly = "NPUSHB[ ]	/* 41 values pushed */\01269 1 7 1 75 68 62 6 1 5 0 7 42 38 18 3 4 0 60 59 57 29 28 5 3 4 49 1 5 2 50 1 6 5 6 74 0 1 9 1 73 \012MPPEM[ ]	/* MeasurePixelPerEm */\012PUSHB[ ]	/* 1 value pushed */\0129 \012LT[ ]	/* LessThan */\012IF[ ]	/* If */\012NPUSHB[ ]	/* 51 values pushed */\0120 1 8 7 0 1 104 0 8 0 7 0 8 7 99 0 0 0 4 3 0 4 100 0 3 0 2 5 3 2 99 0 5 0 6 5 6 95 11 1 9 9 10 89 12 1 10 10 24 9 76 \012ELSE[ ]	/* Else */\012MPPEM[ ]	/* MeasurePixelPerEm */\012PUSHB[ ]	/* 1 value pushed */\01218 \012LT[ ]	/* LessThan */\012IF[ ]	/* If */\012NPUSHB[ ]	/* 52 values pushed */\0120 1 8 7 8 1 7 112 0 8 0 7 0 8 7 99 0 0 0 4 3 0 4 100 0 3 0 2 5 3 2 99 0 5 0 6 5 6 95 11 1 9 9 10 89 12 1 10 10 24 9 76 \012ELSE[ ]	/* Else */\012NPUSHB[ ]	/* 52 values pushed */\0120 1 8 7 8 1 7 112 0 8 0 7 0 8 7 99 0 0 0 4 3 0 4 100 0 3 0 2 5 3 2 99 0 5 0 6 5 6 95 11 1 9 9 10 89 12 1 10 10 25 9 76 \012EIF[ ]	/* EndIf */\012EIF[ ]	/* EndIf */\012NPUSHB[ ]	/* 20 values pushed */\01283 82 81 80 79 78 77 76 37 43 35 37 38 37 44 37 35 13 6 29 \012CALL[ ]	/* CallFunction */";
};
width = 822;
}
);
note = uni090B;
unicode = 090B;
},
{
glyphname = "rrVocalic-deva";
layers = (
{
layerId = "F9783665-9C0C-4F5A-9005-646D18F9330F";
paths = (
{
closed = 1;
nodes = (
"444 609 LINE",
"363 689 LINE",
"-14 689 LINE",
"-14 609 LINE",
"361 609 LINE",
"361 412 LINE",
"298.333 486.667 OFFCURVE",
"230.667 532 OFFCURVE",
"176 532 CURVE SMOOTH",
"113.333 532 OFFCURVE",
"55 509.333 OFFCURVE",
"15 468 CURVE",
"71 394 LINE",
"116.333 439.333 OFFCURVE",
"171 465 OFFCURVE",
"223 465 CURVE SMOOTH",
"256.333 465 OFFCURVE",
"302.667 433.333 OFFCURVE",
"348 380 CURVE",
"290 312 OFFCURVE",
"211.333 262.333 OFFCURVE",
"112 231 CURVE",
"189 165 LINE",
"257.667 196.333 OFFCURVE",
"315 235 OFFCURVE",
"361 281 CURVE",
"361 165 LINE SMOOTH",
"361 140.333 OFFCURVE",
"380.167 109.833 OFFCURVE",
"418.5 73.5 CURVE SMOOTH",
"495.167 0.833 OFFCURVE",
"613.333 -61 OFFCURVE",
"688 -61 CURVE SMOOTH",
"712 -61 OFFCURVE",
"733 -50.667 OFFCURVE",
"751 -30 CURVE",
"678 17 LINE",
"662 -3 OFFCURVE",
"644.667 -13 OFFCURVE",
"626 -13 CURVE SMOOTH",
"571.647 -13 OFFCURVE",
"444 61.12 OFFCURVE",
"444 111 CURVE SMOOTH",
"444 366 LINE",
"487.333 334 OFFCURVE",
"532.667 318 OFFCURVE",
"580 318 CURVE SMOOTH",
"605.333 318 OFFCURVE",
"630.333 322.667 OFFCURVE",
"655 332 CURVE",
"675 318.667 OFFCURVE",
"694 297.667 OFFCURVE",
"694 287 CURVE SMOOTH",
"694 280.333 OFFCURVE",
"689.833 275.167 OFFCURVE",
"681.5 271.5 CURVE SMOOTH",
"673.167 267.833 OFFCURVE",
"659 263.333 OFFCURVE",
"639 258 CURVE SMOOTH",
"579 242 OFFCURVE",
"541 226.333 OFFCURVE",
"541 185 CURVE SMOOTH",
"541 132.94 OFFCURVE",
"651.736 61 OFFCURVE",
"708 61 CURVE SMOOTH",
"752 61 OFFCURVE",
"798 77.667 OFFCURVE",
"834 107 CURVE",
"773 156 LINE",
"740.333 128 OFFCURVE",
"707 114 OFFCURVE",
"673 114 CURVE SMOOTH",
"638.333 114 OFFCURVE",
"612 132 OFFCURVE",
"612 152 CURVE SMOOTH",
"612 162 OFFCURVE",
"617.5 170.167 OFFCURVE",
"628.5 176.5 CURVE SMOOTH",
"639.5 182.833 OFFCURVE",
"655.667 189.333 OFFCURVE",
"677 196 CURVE SMOOTH",
"729 213.333 OFFCURVE",
"757 226.333 OFFCURVE",
"757 257 CURVE SMOOTH",
"757 281 OFFCURVE",
"731.333 315.333 OFFCURVE",
"690 346 CURVE",
"719.333 367.333 OFFCURVE",
"736 391.333 OFFCURVE",
"736 410 CURVE SMOOTH",
"736 456.16 OFFCURVE",
"673.079 517 OFFCURVE",
"625 517 CURVE SMOOTH",
"593 517 OFFCURVE",
"569 492.667 OFFCURVE",
"569 462 CURVE SMOOTH",
"569 439.333 OFFCURVE",
"578.333 416.667 OFFCURVE",
"597 394 CURVE",
"573.667 381.333 OFFCURVE",
"551.333 375 OFFCURVE",
"530 375 CURVE SMOOTH",
"494 375 OFFCURVE",
"465.333 385.667 OFFCURVE",
"444 407 CURVE"
);
},
{
closed = 1;
nodes = (
"862 609 LINE",
"862 689 LINE",
"409 689 LINE",
"490 609 LINE"
);
}
);
userData = {
assembly = "NPUSHB[ ]	/* 45 values pushed */\01279 1 7 1 85 78 72 5 1 5 0 7 52 48 17 3 4 0 70 69 67 45 31 5 2 4 32 1 3 2 59 1 5 3 60 1 6 5 7 74 0 1 9 1 73 \012MPPEM[ ]	/* MeasurePixelPerEm */\012PUSHB[ ]	/* 1 value pushed */\0129 \012LT[ ]	/* LessThan */\012IF[ ]	/* If */\012NPUSHB[ ]	/* 51 values pushed */\0120 1 8 7 0 1 104 0 8 0 7 0 8 7 99 0 0 0 4 2 0 4 100 0 2 0 3 5 2 3 99 0 5 0 6 5 6 95 11 1 9 9 10 89 12 1 10 10 24 9 76 \012ELSE[ ]	/* Else */\012MPPEM[ ]	/* MeasurePixelPerEm */\012PUSHB[ ]	/* 1 value pushed */\01218 \012LT[ ]	/* LessThan */\012IF[ ]	/* If */\012NPUSHB[ ]	/* 52 values pushed */\0120 1 8 7 8 1 7 112 0 8 0 7 0 8 7 99 0 0 0 4 2 0 4 100 0 2 0 3 5 2 3 99 0 5 0 6 5 6 95 11 1 9 9 10 89 12 1 10 10 24 9 76 \012ELSE[ ]	/* Else */\012NPUSHB[ ]	/* 52 values pushed */\0120 1 8 7 8 1 7 112 0 8 0 7 0 8 7 99 0 0 0 4 2 0 4 100 0 2 0 3 5 2 3 99 0 5 0 6 5 6 95 11 1 9 9 10 89 12 1 10 10 25 9 76 \012EIF[ ]	/* EndIf */\012EIF[ ]	/* EndIf */\012NPUSHB[ ]	/* 27 values pushed */\01293 92 91 90 89 88 87 86 83 81 76 74 63 61 58 56 51 49 36 34 30 28 37 34 13 6 22 \012CALL[ ]	/* CallFunction */";
};
width = 849;
}
);
note = uni0960;
unicode = 0960;
},
{
glyphname = "lVocalic-deva";
layers = (
{
layerId = "F9783665-9C0C-4F5A-9005-646D18F9330F";
paths = (
{
closed = 1;
nodes = (
"-14 689 LINE",
"-14 609 LINE",
"498 609 LINE",
"498 499 LINE",
"450 496.333 OFFCURVE",
"402.333 452.667 OFFCURVE",
"373 390 CURVE",
"323.667 455.333 OFFCURVE",
"265.333 494 OFFCURVE",
"208 494 CURVE SMOOTH",
"183.333 494 OFFCURVE",
"159.167 485.833 OFFCURVE",
"135.5 469.5 CURVE SMOOTH",
"88.167 436.833 OFFCURVE",
"54 380.333 OFFCURVE",
"54 327 CURVE SMOOTH",
"54 283.667 OFFCURVE",
"69.167 235.5 OFFCURVE",
"99.5 182.5 CURVE SMOOTH",
"160.167 76.5 OFFCURVE",
"259.667 -7 OFFCURVE",
"345 -7 CURVE SMOOTH",
"373 -7 OFFCURVE",
"396.333 2.333 OFFCURVE",
"415 21 CURVE",
"356 81 LINE",
"336 61.667 OFFCURVE",
"316.333 52 OFFCURVE",
"297 52 CURVE SMOOTH",
"275.667 52 OFFCURVE",
"250.833 63.667 OFFCURVE",
"222.5 87 CURVE SMOOTH",
"165.833 133.667 OFFCURVE",
"120 207.667 OFFCURVE",
"120 257 CURVE SMOOTH",
"120 322.206 OFFCURVE",
"196.048 428 OFFCURVE",
"259 428 CURVE SMOOTH",
"293.667 428 OFFCURVE",
"332.333 399.333 OFFCURVE",
"359 354 CURVE",
"353.667 325.333 OFFCURVE",
"351 301.667 OFFCURVE",
"351 283 CURVE",
"434 246 LINE",
"434 378 OFFCURVE",
"493.667 446 OFFCURVE",
"571 446 CURVE SMOOTH",
"634.353 446 OFFCURVE",
"690 388.387 OFFCURVE",
"690 324 CURVE SMOOTH",
"690 266.667 OFFCURVE",
"653.333 237.333 OFFCURVE",
"584 196 CURVE SMOOTH",
"529.326 163.195 OFFCURVE",
"482 131.231 OFFCURVE",
"482 75 CURVE SMOOTH",
"482 51.667 OFFCURVE",
"492.667 27.167 OFFCURVE",
"514 1.5 CURVE SMOOTH",
"556.667 -49.833 OFFCURVE",
"629.333 -88 OFFCURVE",
"696 -88 CURVE SMOOTH",
"750 -88 OFFCURVE",
"793.333 -70 OFFCURVE",
"826 -34 CURVE",
"767 20 LINE",
"730.333 -18.667 OFFCURVE",
"690 -38 OFFCURVE",
"646 -38 CURVE SMOOTH",
"590 -38 OFFCURVE",
"545 -8 OFFCURVE",
"545 32 CURVE SMOOTH",
"545 76 OFFCURVE",
"575.333 98.333 OFFCURVE",
"638 137 CURVE SMOOTH",
"699.051 173.3 OFFCURVE",
"750 208.688 OFFCURVE",
"750 276 CURVE SMOOTH",
"750 365.333 OFFCURVE",
"682.333 452.667 OFFCURVE",
"581 490 CURVE",
"581 609 LINE",
"506 689 LINE"
);
},
{
closed = 1;
nodes = (
"552 689 LINE",
"627 609 LINE",
"811 609 LINE",
"811 689 LINE"
);
}
);
userData = {
assembly = "NPUSHB[ ]	/* 28 values pushed */\0123 1 3 7 69 55 42 40 39 5 5 4 56 18 2 6 5 19 1 1 6 4 74 2 1 9 1 73 \012MPPEM[ ]	/* MeasurePixelPerEm */\012PUSHB[ ]	/* 1 value pushed */\01218 \012LT[ ]	/* LessThan */\012IF[ ]	/* If */\012NPUSHB[ ]	/* 47 values pushed */\0120 3 7 4 7 3 4 112 8 1 7 0 4 5 7 4 99 0 1 0 2 1 2 95 11 1 9 9 0 89 10 1 0 0 24 75 0 5 5 6 91 0 6 6 26 6 76 \012ELSE[ ]	/* Else */\012NPUSHB[ ]	/* 47 values pushed */\0120 3 7 4 7 3 4 112 8 1 7 0 4 5 7 4 99 0 1 0 2 1 2 95 11 1 9 9 0 89 10 1 0 0 25 75 0 5 5 6 91 0 6 6 26 6 76 \012EIF[ ]	/* EndIf */\012NPUSHB[ ]	/* 18 values pushed */\01278 77 76 75 74 73 20 38 35 38 39 45 35 46 16 12 6 29 \012CALL[ ]	/* CallFunction */";
};
width = 798;
}
);
note = uni090C;
unicode = 090C;
},
